<svg width="1394" height="915" viewBox="0 0 1394 915" fill="none" xmlns="http://www.w3.org/2000/svg">
<g opacity="0.5">
<path opacity="0.5" d="M74.58 820.826C159.54 792.977 112.725 770.992 100.588 766.595C-25.6379 749.006 16.7839 731.906 53.7731 725.555C143.935 705.621 329.46 710.409 410.952 715.295C552.437 739.919 784.315 732.395 882.568 725.555C1079.54 719.692 1303.32 727.998 1390.59 732.883C1573.69 739.919 1514.28 758.289 1461.68 766.595C1424.23 765.422 1446.08 780.763 1461.68 788.58C1655.88 873.005 1436.25 883.363 1302.17 877.988C1155.13 869.78 1053.64 886.294 1021.28 895.577C863.148 930.754 665.255 910.234 586.074 895.577C439.041 876.816 273.976 882.874 209.823 888.248C-88.4047 902.319 -4.60047 849.163 74.58 820.826Z" fill="url(#paint0_linear)"/>
<path d="M1444.58 814.499C1448.2 784.65 1418.96 780.742 1403.89 782.518C1360.48 788.915 1224.52 772.747 1161.97 763.863C950.352 734.015 761.793 751.426 693.966 763.863C601.721 778.787 533.442 777.188 510.833 774.523C471.041 768.127 394.773 771.858 361.614 774.523C292.882 780.919 236.51 786.072 216.916 787.848C61.366 811.301 186.771 829.601 268.917 835.819C334.031 846.479 531.181 845.591 621.617 843.814C686.731 843.814 754.256 852.698 779.88 857.139C872.125 867.8 946.433 861.581 972.057 857.139C1019.08 852.875 1091.13 846.479 1121.28 843.814C1232.06 833.154 1311.19 843.814 1317.97 843.814C1415.65 856.606 1443.08 829.601 1444.58 814.499Z" fill="url(#paint1_linear)"/>
</g>
<path d="M984.428 787.052L978.434 577.942C978.41 577.107 978.724 576.298 979.303 575.698C981.221 573.71 984.585 575.029 984.641 577.79L988.875 786.943C988.9 788.189 987.897 789.212 986.651 789.212C985.447 789.212 984.462 788.255 984.428 787.052Z" fill="url(#paint2_linear)"/>
<path d="M1091.57 754.861L1069.52 546.83C1069.43 546 1069.68 545.17 1070.22 544.526C1071.98 542.397 1075.43 543.453 1075.7 546.202L1096 754.411C1096.12 755.651 1095.2 756.748 1093.95 756.844C1092.75 756.937 1091.7 756.058 1091.57 754.861Z" fill="url(#paint3_linear)"/>
<path d="M1039.44 428.781C1088.69 380.373 1090.83 316.355 1085.75 290.397C1120.26 312.286 1107.15 439.831 1096.27 500.868C1090.8 540.015 1005.59 558.922 963.674 563.483C962.832 510.023 1013.84 451.407 1039.44 428.781Z" fill="url(#paint4_linear)"/>
<path opacity="0.5" d="M1058 456C1064.4 444.8 1067.67 410.667 1068.5 395L1110.5 457.5L1053.5 517.5L1000 539.5C997.2 523.9 1016.5 503 1026.5 494.5C1041.7 480.5 1053.83 463 1058 456Z" fill="url(#paint5_linear)"/>
<path d="M1091.99 353.538L1052 519.81C933.294 554.327 957.5 574.596 986.5 583.5C1100.5 618.5 1188.17 574.883 1221.49 545.066C1254.11 360.905 1227.8 303.025 1165.72 297.763C1116.04 293.554 1097.25 333.193 1091.99 353.538Z" fill="url(#paint6_linear)"/>
<mask id="mask0" mask-type="alpha" maskUnits="userSpaceOnUse" x="961" y="297" width="275" height="300">
<path d="M1087.84 353.538L1047.85 519.81C929.147 554.327 957.5 574.596 986.5 583.5C1100.5 618.5 1188.17 574.883 1221.49 545.066C1254.11 360.905 1227.8 303.025 1165.72 297.763C1116.04 293.554 1093.1 333.193 1087.84 353.538Z" fill="url(#paint7_linear)"/>
</mask>
<g mask="url(#mask0)">
<path d="M1095.56 586C997.563 588.8 968.396 565.833 966.063 554C927.263 586.8 1037.9 598.667 1098.06 600.5L1095.56 586Z" fill="url(#paint8_linear)"/>
</g>
<path d="M1147.94 554C1098.08 553.598 1033 541.766 1006.7 535.9C999.057 515.387 1056.12 516.627 1085.61 519.811C1137.89 523.431 1148.94 544.112 1147.94 554Z" fill="url(#paint9_linear)"/>
<path d="M1066.98 750.064C1066.98 741.205 1066.15 727.576 1064.68 722.344L1079.3 714.032L1082.7 724.216L1087.79 733.55C1094.58 742.036 1100.8 747.073 1092.29 755.938C1086.09 762.403 1079.3 792.952 1068.4 799.009C1056.39 801.438 1061.72 791.188 1063.18 785.315C1065.43 776.282 1066.98 762.205 1066.98 750.064Z" fill="url(#paint10_linear)"/>
<path d="M1038.5 519C1059.23 517.445 1081.9 517.67 1088 523.5C1063.61 552.648 1056.55 610.846 1058.44 620.457C1061.15 634.278 1076.43 707.465 1081 719.124C1064.84 726.232 1071.78 725.06 1065.35 727.259C1056.71 692.391 1014 602.5 1006.5 583.5C1000 564.5 1030.5 528 1038.5 519Z" fill="url(#paint11_linear)"/>
<path opacity="0.6" d="M1056.31 699.842C1058.32 695.385 1061.41 672.602 1065.21 654.958L1064.3 649.696L1050.83 684.365C1052.28 689.111 1054.67 696.375 1056.31 699.842Z" fill="url(#paint12_linear)"/>
<path d="M991.606 759.724C994.871 752.707 1005.71 733.591 1007.17 728.459L1022.45 735.247L1013.96 761.554C1011.93 769.252 1012.27 778.89 1009.2 786.588C1004.16 799.259 997.465 803.99 979.887 802.065C965.392 798.216 974.585 786.827 978.32 781.92C983.488 775.131 986.806 770.04 991.606 759.724Z" fill="url(#paint13_linear)"/>
<path d="M1034.5 581.5C1034.5 573.5 1078.99 518.377 1095.5 510.5C1121.02 510.5 1115.19 533.358 1127.2 533.358C1141.32 534.164 1138.42 533.112 1147.64 526.962C1149.14 532.065 1157.64 529.757 1151.5 540.5C1144.65 552.486 1073 581.5 1075.5 599.5C1075.5 659.5 1030.6 716.595 1021.6 736.945C1013.09 733.006 1012.69 732.32 1006.69 729.169C1016.13 710.065 1027 644.662 1030 623C1035.08 586.309 1032 595.5 1034.5 581.5Z" fill="url(#paint14_linear)"/>
<path d="M1073.17 238.923C1075.13 234.831 1079.51 224.274 1081.23 220.311C1109.06 200.327 1126.11 225.546 1131.39 239.85C1136.1 253.219 1126.51 265.091 1121.13 269.357L1134.64 279.296C1124.33 297.18 1117.63 297.188 1107.86 296.22C1100.89 295.157 1102.48 295.087 1103.61 289.705C1104.21 286.855 1102.82 281.133 1101.63 279.296C1100.87 278.135 1095.96 273.277 1090.36 273.534C1060.27 274.915 1066.51 252.438 1073.17 238.923Z" fill="#F9C5A8"/>
<path d="M1100.21 284.89C1099.36 274.729 1092.85 273.844 1088.88 273.561L1088.03 271.011L1121.45 269.595L1171.02 297.919C1149.95 328.736 1118.06 327.943 1104.74 323.694C1086.16 318.256 1082.65 300.657 1083.22 292.538C1085.71 292.311 1090.3 293.199 1092.28 293.671C1099.08 294.804 1100.49 288.289 1100.21 284.89Z" fill="#F9C5A8"/>
<mask id="mask1" mask-type="alpha" maskUnits="userSpaceOnUse" x="1067" y="212" width="105" height="114">
<path fill-rule="evenodd" clip-rule="evenodd" d="M1079.13 225.237C1077.13 229.968 1074.55 236.045 1073.17 238.923C1066.6 252.25 1060.45 274.292 1089.13 273.578C1093.11 273.883 1099.38 274.934 1100.21 284.89C1100.49 288.289 1099.08 294.803 1092.28 293.67C1090.3 293.198 1085.71 292.311 1083.22 292.537C1082.65 300.657 1086.16 318.256 1104.74 323.694C1118.06 327.942 1149.95 328.736 1171.02 297.919L1121.46 269.598L1121.13 269.357C1126.51 265.091 1136.1 253.218 1131.39 239.85C1126.11 225.546 1109.06 200.327 1081.23 220.311C1080.72 221.487 1079.98 223.242 1079.13 225.237Z" fill="#F3BB93"/>
</mask>
<g mask="url(#mask1)">
<path d="M1102.17 271.065C1088.68 273.616 1086.62 273.427 1083.22 273.332V289C1088.47 283.332 1096.7 290.242 1106.55 285.519C1111.51 282.118 1113.47 278.434 1112.38 274.749C1109.83 271.065 1106.18 270.307 1102.17 271.065Z" fill="url(#paint15_linear)"/>
<path d="M1115.5 308.083C1089.9 318.483 1087.83 302.083 1090 292.583C1089.2 291.783 1086 291.25 1084.5 291.083L1076 319.083H1153V291.083C1149 289.883 1126.33 301.917 1115.5 308.083Z" fill="url(#paint16_linear)"/>
</g>
<path d="M961.761 303.694C967.05 308.023 973.059 318.217 975.403 322.773C971.511 306.485 963.071 297.896 959.338 295.638C949.864 294.802 957.005 300.66 961.761 303.694Z" fill="#BC8660"/>
<path d="M970.451 336.018C976.604 345.766 980.654 347.682 981.91 347.422C985.992 345.733 994.307 342.259 994.916 341.874C990.4 322.572 975.246 305.654 968.234 299.607C953.248 287.341 955.004 290.741 957.755 293.974C971.458 309.607 972.398 319.7 971.155 322.793C950.319 300.585 962.004 322.356 970.451 336.018Z" fill="#F3BB93"/>
<path d="M1097 316C1085 315.2 1087 299 1089.5 291C1075.1 291 1066.17 307.667 1063.5 316C1059.1 333.6 1037.67 371 1027.5 387.5C1027.1 385.5 1022.33 380.333 1020 378C1015.6 374 1010.83 366.667 1009 363.5C1005.4 355.9 998.167 343.333 995 338C993.4 340.8 983 345.5 978 347.5L1009 411C1029 439 1057.33 399.333 1069 376C1073.4 395.2 1071 411 1071 421.5C1069.5 432 1069.62 436 1066.5 448.5C1064.5 456.5 1058.54 466.612 1056.5 469.5C1038.5 495 1021.5 501.5 1017 509C999 524.6 1002.5 533.167 1006.5 535.5C1028.5 523.5 1148 531.5 1148 554C1151.2 542.8 1161 545.5 1173.5 525.5C1221.1 482.3 1184.17 350.167 1161 292.5C1154.2 289.7 1132.83 302.333 1123 309C1112.2 315.4 1101.17 316.333 1097 316Z" fill="url(#paint17_linear)"/>
<path d="M1068.5 376.5C1064.1 362.9 1068.33 344.5 1071 337C1067 341 1061.5 370.5 1060.5 372.5C1057.7 384.1 1046.67 404 1042 412.5C1052.5 405 1063.67 386 1068.5 376.5Z" fill="url(#paint18_linear)"/>
<mask id="mask2" mask-type="alpha" maskUnits="userSpaceOnUse" x="978" y="290" width="219" height="264">
<path d="M1097 316C1085 315.2 1087 299 1089.5 291C1075.1 291 1066.17 307.667 1063.5 316C1059.1 333.6 1037.67 371 1027.5 387.5C1027.1 385.5 1022.33 380.333 1020 378C1015.6 374 1010.83 366.667 1009 363.5C1005.4 355.9 998.167 343.333 995 338C993.4 340.8 983 345.5 978 347.5L1009 411C1029 439 1057.33 399.333 1069 376C1073.4 395.2 1071 411 1071 421.5C1069.5 432 1069.62 436 1066.5 448.5C1064.5 456.5 1058.54 466.612 1056.5 469.5C1038.5 495 1021.5 501.5 1017 509C999 524.6 1002.5 533.167 1006.5 535.5C1028.5 523.5 1148 531.5 1148 554C1151.2 542.8 1161 545.5 1173.5 525.5C1221.1 482.3 1184.17 350.167 1161 292.5C1154.2 289.7 1132.83 302.333 1123 309C1112.2 315.4 1101.17 316.333 1097 316Z" fill="url(#paint19_linear)"/>
</mask>
<g mask="url(#mask2)">
<path d="M1011 513.085C1103 501.885 1152.17 523.752 1165.5 537.585L1160 565.085C1112.8 522.685 1025.67 534.419 988 545.585L1011 513.085Z" fill="url(#paint20_linear)"/>
<path d="M1154.5 477C1174.1 449.8 1158 376 1147.5 342.5L1218.5 329L1228.5 487.5L1151.5 563L1092 530.5C1114.4 519.7 1143 490.333 1154.5 477Z" fill="url(#paint21_linear)"/>
</g>
<path d="M1079.55 238.939C1081.44 239.209 1083.2 239.689 1084.74 240.882C1085.44 241.416 1086.26 242.068 1086.64 242.876" stroke="#201947" stroke-width="0.849724" stroke-linecap="round" stroke-linejoin="round"/>
<path d="M1079.82 233.491C1081.98 233.535 1084.03 233.834 1085.94 234.966C1086.79 235.472 1087.82 236.093 1088.36 236.952" stroke="#656274" stroke-width="0.566483" stroke-linecap="round" stroke-linejoin="round"/>
<path d="M1072.76 256.983C1074.25 257.552 1075.4 257.474 1076.87 256.875C1077.78 256.503 1078.92 255.845 1079.57 255.077" stroke="#EA5F56" stroke-width="0.849724" stroke-linecap="round" stroke-linejoin="round"/>
<path d="M1176.5 345.191C1182.95 354.327 1191.45 375.443 1173.88 386.827C1171.62 376.813 1168.97 354.467 1176.5 345.191Z" fill="#0E0735"/>
<path d="M1066.37 247.291C1066.83 246.838 1070.34 243.892 1072.04 242.476L1069.49 250.406C1066.09 248.367 1066 247.48 1066.37 247.291Z" fill="#F9C5A8"/>
<g opacity="0.5" filter="url(#filter0_f)">
<circle cx="1088.31" cy="249.84" r="5.09835" fill="#FE9A9A"/>
</g>
<ellipse cx="1080.4" cy="241.555" rx="0.848598" ry="1.6972" fill="#201947"/>
<path d="M1068.47 316.28C1061.89 316.552 1042.21 324.289 1033.19 328.124C1031.07 329.026 1032.94 330.939 1035.39 335.451C1041.48 346.636 1059.48 382.754 1067.37 401.044C1074.2 397.942 1100.35 397.672 1112.57 397.925C1113.15 378.579 1087.71 337.955 1074.91 320.061C1072.95 316.464 1069.8 316.042 1068.47 316.28Z" fill="url(#paint22_linear)"/>
<path d="M1072.25 368.428C1072.95 370.493 1075.08 371.637 1077 370.985C1078.92 370.333 1079.91 368.131 1079.21 366.066L1074.14 351.112C1073.44 349.047 1071.31 347.9 1069.39 348.552C1067.47 349.204 1066.48 351.409 1067.18 353.474L1072.25 368.428Z" fill="#4CE1C6"/>
<path d="M1061.98 363.572C1062.63 365.494 1064.83 366.488 1066.9 365.787L1081.85 360.713C1083.91 360.013 1085.06 357.884 1084.41 355.962C1083.76 354.04 1081.55 353.051 1079.49 353.751L1064.53 358.825C1062.47 359.526 1061.32 361.65 1061.98 363.572Z" fill="#4CE1C6"/>
<path d="M1132.31 384.056C1129.83 382.026 1123.48 376.104 1117.97 368.658C1115.36 365.179 1109.56 357.365 1107.23 353.939C1106.47 352.72 1103.61 349.7 1098.22 347.375C1093.7 345.566 1084.94 345.088 1080.03 345.62C1078.3 345.912 1079.97 349.534 1089.41 349.027C1086.85 349.433 1082.91 351.948 1082.58 356.987C1081.04 356.939 1079.53 357.831 1085.77 361.774C1088.08 363.468 1093.09 367.74 1094.72 371.287C1097.13 377.247 1105.81 389.84 1121.25 392.529L1132.31 384.056Z" fill="#F3BB93"/>
<path d="M1103.16 360.317C1100.48 357.523 1092.97 352.373 1084.3 354.126C1088.28 352.661 1097.62 351.847 1103.16 360.317Z" fill="#C79978"/>
<path d="M1098.29 349.935C1096.27 349.601 1091.89 348.993 1090.46 349.234C1091.77 348.646 1095.16 347.964 1098.29 349.935Z" fill="#C79978"/>
<path d="M1100.25 367.05C1099.24 364.343 1094.38 358.563 1082.97 357.105C1087.23 358.408 1096.65 362.221 1100.25 367.05Z" fill="#C79978"/>
<path d="M1156 368.5C1139.2 328.1 1144 312.333 1148.5 309.5C1172.5 295.9 1198.83 377.167 1209 419.5C1217 451.1 1193.67 448 1181 442.5C1159 433.3 1130.17 406.667 1118.5 394.5C1122.5 392.9 1128.83 386.167 1131.5 383C1143.5 383.8 1165.83 396.667 1175.5 403L1156 368.5Z" fill="url(#paint23_linear)"/>
<path d="M1102.29 241.338C1086.49 235.786 1082.63 227.34 1081.92 222.358C1080.31 225.027 1078.09 225.858 1078.27 229.061C1071.77 201.541 1091.52 193 1107 193C1145 193 1155.58 214.885 1161.01 234.399C1165.38 250.115 1176.31 256.462 1183.96 260.02C1233.92 280.945 1217.42 301.893 1207.98 320.872C1202.55 331.785 1208.87 340.444 1213.85 345.426C1228.17 362.211 1207.27 378.521 1194.1 381.724C1180.44 384.286 1174.89 387.062 1173.82 388.129C1190.05 365.497 1181.73 353.67 1175.42 348.629C1162.29 338.142 1161.01 328.582 1161.01 318.737C1161.86 296.104 1149.17 293.545 1139.12 294.183C1112.22 295.891 1111 280.007 1112.97 270.162C1116.81 250.946 1107.45 242.939 1102.29 241.338Z" fill="url(#paint24_linear)"/>
<path d="M1109.66 803.89L1103.66 594.78C1103.64 593.945 1103.95 593.136 1104.53 592.535C1106.45 590.548 1109.81 591.867 1109.87 594.628L1114.1 803.781C1114.13 805.027 1113.13 806.05 1111.88 806.05C1110.68 806.05 1109.69 805.093 1109.66 803.89Z" fill="url(#paint25_linear)"/>
<path d="M1212.59 775.908L1190.54 567.878C1190.45 567.047 1190.71 566.217 1191.24 565.573C1193 563.444 1196.45 564.5 1196.72 567.249L1217.02 775.458C1217.14 776.698 1216.22 777.796 1214.97 777.891C1213.77 777.984 1212.72 777.105 1212.59 775.908Z" fill="url(#paint26_linear)"/>
<path opacity="0.2" d="M1161.78 460.384C1211.03 411.976 1213.17 347.958 1208.08 322C1242.6 343.889 1229.48 471.434 1218.61 532.471C1213.13 571.618 1127.93 590.525 1086.01 595.086C1085.17 541.626 1136.17 483.01 1161.78 460.384Z" fill="#3F3A5B"/>
<path d="M1169.4 460.878C1218.65 412.47 1220.79 348.452 1215.7 322.494C1250.22 344.383 1237.1 471.928 1226.23 532.964C1220.75 572.112 1135.55 591.019 1093.63 595.579C1092.79 542.12 1143.79 483.504 1169.4 460.878Z" fill="url(#paint27_linear)"/>
<circle opacity="0.4" cx="1288.5" cy="218.5" r="15.5" fill="url(#paint28_linear)"/>
<circle opacity="0.4" cx="937" cy="31" r="27" fill="url(#paint29_linear)"/>
<path d="M171.728 864.607L168.88 659.64C168.833 656.268 170.952 653.244 174.139 652.137C179.247 650.363 184.573 654.18 184.535 659.587L183.075 864.568C183.052 867.814 180.315 870.379 177.074 870.192C174.103 870.02 171.77 867.582 171.728 864.607Z" fill="url(#paint30_linear)"/>
<path d="M470.968 827.201L468.12 622.235C468.073 618.863 470.192 615.839 473.379 614.732C478.487 612.958 483.813 616.775 483.775 622.182L482.315 827.163C482.292 830.409 479.555 832.974 476.314 832.787C473.343 832.615 471.01 830.177 470.968 827.201Z" fill="url(#paint31_linear)"/>
<path d="M143 659.628V639.589L565.143 516.687C590.525 530.046 596.314 569.232 595.868 580.81C599.075 635.315 542.878 656.066 514.379 659.628H143Z" fill="url(#paint32_linear)"/>
<g filter="url(#filter1_f)">
<path d="M503.692 640.925H143L382.125 506H541.097C581.708 511.344 590.08 553.647 589.189 574.131C587.052 623.292 531.3 639.144 503.692 640.925Z" fill="url(#paint33_linear)"/>
</g>
<path d="M466.5 556C434.1 559.6 420 558 408 558C366.8 559.843 381.133 563.813 392.633 567.712C409.033 571.712 370.133 573.379 348.633 573.712C311.433 574.912 300.8 587.879 300.133 594.212C296.533 616.612 366.966 616.546 402.633 613.712C421.033 611.712 448.3 610.879 459.633 610.712C521.633 609.112 511.133 600.712 498.133 596.712C461.733 587.512 504.3 583.212 530.133 582.212C559.333 580.212 567.3 571.046 567.633 566.712C567.633 555.5 538 556 466.5 556Z" fill="url(#paint34_linear)"/>
<path d="M460.499 483H437.583C436.483 483 435.591 483.892 435.591 484.992V538.812C435.591 546.229 441.625 552.262 449.041 552.262C456.458 552.262 462.491 546.229 462.491 538.812V484.992C462.491 483.892 461.599 483 460.499 483Z" fill="#B6E0FF"/>
<path d="M460.499 483H454.849C455.407 483 455.859 483.892 455.859 484.992V538.812C455.859 546.229 452.8 552.262 449.041 552.262C456.458 552.262 462.491 546.229 462.491 538.812V484.992C462.491 483.892 461.6 483 460.499 483Z" fill="#A6C0E8"/>
<path d="M435.591 503.967V538.812C435.591 546.229 441.625 552.262 449.041 552.262C456.458 552.262 462.491 546.229 462.491 538.812V503.967H435.591Z" fill="url(#paint35_linear)"/>
<path d="M455.859 538.812C455.859 546.229 452.8 552.262 449.041 552.262C456.458 552.262 462.491 546.229 462.491 538.812V503.967H455.859V538.812Z" fill="#756EE3"/>
<path d="M534.417 483H511.501C510.4 483 509.509 483.892 509.509 484.992V538.812C509.509 546.229 515.542 552.262 522.959 552.262C530.375 552.262 536.409 546.229 536.409 538.812V484.992C536.409 483.892 535.517 483 534.417 483Z" fill="#B5E0FF"/>
<path d="M534.417 483H527.839C528.308 483 528.688 483.892 528.688 484.992V538.812C528.688 546.229 526.118 552.262 522.959 552.262C530.375 552.262 536.409 546.229 536.409 538.812V484.992C536.409 483.892 535.517 483 534.417 483Z" fill="#A6C0E8"/>
<path d="M509.509 506.242V538.812C509.509 546.229 515.542 552.262 522.959 552.262C530.375 552.262 536.409 546.229 536.409 538.812V506.242H509.509Z" fill="url(#paint36_linear)"/>
<path d="M528.688 538.812C528.688 546.229 526.118 552.262 522.959 552.262C530.375 552.262 536.409 546.229 536.409 538.812V506.242H528.688V538.812Z" fill="#B04663"/>
<path d="M464.031 486.984H434.052C432.951 486.984 432.059 486.092 432.059 484.992C432.059 483.892 432.951 483 434.052 483H464.031C465.131 483 466.023 483.892 466.023 484.992C466.023 486.092 465.131 486.984 464.031 486.984Z" fill="#A6C0E8"/>
<path opacity="0.4" d="M450.5 517C453.538 517 456 514.538 456 511.5C456 508.462 453.538 506 450.5 506C447.462 506 445 508.462 445 511.5C445 514.538 447.462 517 450.5 517Z" fill="url(#paint37_linear)"/>
<path opacity="0.4" d="M447 530C448.657 530 450 528.657 450 527C450 525.343 448.657 524 447 524C445.343 524 444 525.343 444 527C444 528.657 445.343 530 447 530Z" fill="url(#paint38_linear)"/>
<path d="M497.458 483H474.542C473.442 483 472.55 483.892 472.55 484.992V538.812C472.55 546.229 478.584 552.262 486 552.262C493.417 552.262 499.45 546.229 499.45 538.812V484.992C499.45 483.892 498.558 483 497.458 483Z" fill="#B5E0FF"/>
<path d="M497.458 483H491.808C492.366 483 492.818 483.892 492.818 484.992V538.812C492.818 546.229 489.759 552.262 486 552.262C493.417 552.262 499.45 546.229 499.45 538.812V484.992C499.45 483.892 498.558 483 497.458 483Z" fill="#A6C0E8"/>
<path d="M472.55 517.519V538.812C472.55 546.229 478.583 552.262 486 552.262C493.417 552.262 499.45 546.229 499.45 538.812V517.519H472.55Z" fill="#7EBFE7"/>
<path d="M492.818 538.812C492.818 546.229 489.759 552.262 486 552.262C493.417 552.262 499.45 546.229 499.45 538.812V517.519H492.818V538.812Z" fill="#3E91D9"/>
<path d="M500.99 486.984H471.01C469.91 486.984 469.018 486.092 469.018 484.992C469.018 483.892 469.91 483 471.01 483H500.989C502.09 483 502.982 483.892 502.982 484.992C502.982 486.092 502.09 486.984 500.99 486.984Z" fill="#A6C0E8"/>
<path opacity="0.4" d="M489.219 527.439C490.997 527.439 492.439 525.997 492.439 524.219C492.439 522.441 490.997 521 489.219 521C487.441 521 486 522.441 486 524.219C486 525.997 487.441 527.439 489.219 527.439Z" fill="url(#paint39_linear)"/>
<path opacity="0.4" d="M477.5 534C478.328 534 479 533.328 479 532.5C479 531.672 478.328 531 477.5 531C476.672 531 476 531.672 476 532.5C476 533.328 476.672 534 477.5 534Z" fill="url(#paint40_linear)"/>
<path opacity="0.4" d="M491.5 538C492.328 538 493 537.328 493 536.5C493 535.672 492.328 535 491.5 535C490.672 535 490 535.672 490 536.5C490 537.328 490.672 538 491.5 538Z" fill="url(#paint41_linear)"/>
<path d="M537.948 486.984H507.969C506.869 486.984 505.977 486.092 505.977 484.992C505.977 483.892 506.869 483 507.969 483H537.948C539.049 483 539.941 483.892 539.941 484.992C539.941 486.092 539.049 486.984 537.948 486.984Z" fill="#A6C0E8"/>
<path opacity="0.4" d="M519.219 517.439C520.997 517.439 522.439 515.997 522.439 514.219C522.439 512.441 520.997 511 519.219 511C517.441 511 516 512.441 516 514.219C516 515.997 517.441 517.439 519.219 517.439Z" fill="url(#paint42_linear)"/>
<path opacity="0.4" d="M524.5 523C525.328 523 526 522.328 526 521.5C526 520.672 525.328 520 524.5 520C523.672 520 523 520.672 523 521.5C523 522.328 523.672 523 524.5 523Z" fill="url(#paint43_linear)"/>
<path d="M544.615 564.724H427.385C426.285 564.724 425.393 563.832 425.393 562.732V492.253C425.393 491.153 426.285 490.261 427.385 490.261H544.615C545.715 490.261 546.607 491.153 546.607 492.253V562.732C546.607 563.832 545.715 564.724 544.615 564.724ZM429.378 560.74H542.623V494.245H429.378V560.74Z" fill="url(#paint44_linear)"/>
<path d="M545.854 560.74H426.146C421.654 560.74 418 564.394 418 568.885C418 573.377 421.654 577.031 426.146 577.031H545.854C550.346 577.031 554 573.377 554 568.885C554 564.394 550.346 560.74 545.854 560.74Z" fill="url(#paint45_linear)"/>
<path d="M290.981 574.721C289.674 575.782 288.84 577.318 288.665 578.993L287.111 593.529C286.936 595.204 287.434 596.879 288.495 598.187C289.555 599.494 291.091 600.328 292.766 600.503L362.644 607.796C366.877 608.238 371.155 607.69 375.141 606.196L378.594 604.886C382.58 603.392 386.859 602.843 391.092 603.285L411.786 605.445C413.415 605.591 415.035 605.089 416.295 604.046C418.923 601.879 419.306 597.997 417.152 595.358C416.136 594.108 414.673 593.303 413.073 593.112L393.957 591.117C388.742 590.594 383.786 588.589 379.675 585.337C375.487 582.017 370.419 579.997 365.096 579.527L295.518 573.3C293.878 573.171 292.252 573.679 290.981 574.721Z" fill="url(#paint46_linear)"/>
<path d="M288.625 579.026L287.852 586.426C288.027 584.751 288.861 583.214 290.168 582.154C291.448 581.116 295.448 580.897 297.103 581.045L363.742 587.963C369.066 588.432 374.737 589.41 378.902 592.737C382.982 595.97 387.896 597.975 393.073 598.518L412.301 600.512C413.925 600.705 415.406 601.532 416.424 602.813C416.618 603.024 416.799 603.247 416.966 603.48C419.305 601 419.192 597.093 416.712 594.754C415.713 593.812 414.428 593.229 413.062 593.099L393.946 591.103C388.736 590.583 383.784 588.582 379.675 585.338C375.487 582.017 370.419 579.997 365.096 579.527L295.518 573.3C293.88 573.17 292.254 573.678 290.982 574.721C289.65 575.783 288.801 577.334 288.625 579.026Z" fill="url(#paint47_linear)"/>
<path opacity="0.4" d="M319.08 585.791C317.25 583.535 313.937 583.189 311.68 585.019C309.424 586.849 309.078 590.162 310.908 592.419C312.738 594.675 316.051 595.021 318.308 593.191C320.564 591.361 320.91 588.048 319.08 585.791Z" fill="white"/>
<path d="M358.81 587.451L329.212 584.362L327.925 596.693L357.523 599.782L358.81 587.451Z" fill="#87CED9"/>
<path d="M290.981 574.721C289.674 575.782 288.84 577.318 288.665 578.993L287.111 593.529C286.747 597.017 289.278 600.139 292.764 600.503C292.764 600.503 292.764 600.503 292.766 600.503L300.018 601.26L302.865 573.98L295.554 573.316C293.904 573.172 292.263 573.677 290.981 574.721Z" fill="#ABC2FF"/>
<path d="M411.786 605.445C415.173 605.972 418.347 603.653 418.873 600.264C419.399 596.876 417.081 593.703 413.692 593.177C413.486 593.145 413.28 593.123 413.073 593.112L400.74 591.825L399.453 604.158L411.786 605.445Z" fill="#ABC2FF"/>
<path d="M337.596 585.234L357.802 597.093L358.808 587.448L337.596 585.234Z" fill="#6EC1D4"/>
<path d="M288.625 579.026L287.852 586.426C288.027 584.751 288.861 583.214 290.168 582.154C291.44 581.111 293.067 580.603 294.705 580.733L302.016 581.396L302.789 573.996L295.477 573.333C293.839 573.203 292.213 573.711 290.94 574.754C289.632 575.816 288.799 577.351 288.625 579.026Z" fill="#9ABBFF"/>
<path d="M584.073 843.206L576.711 780.63H645.422L635.606 843.206C612.048 850.077 591.434 846.069 584.073 843.206Z" fill="url(#paint48_linear)"/>
<ellipse cx="611.066" cy="781.857" rx="34.3555" ry="9.81587" fill="#C36078"/>
<mask id="mask3" mask-type="alpha" maskUnits="userSpaceOnUse" x="576" y="772" width="70" height="20">
<ellipse cx="611.066" cy="781.857" rx="34.3555" ry="9.81587" fill="#567FEA"/>
</mask>
<g mask="url(#mask3)">
<ellipse cx="611.066" cy="791.673" rx="34.3555" ry="9.81587" fill="#29186D"/>
</g>
<path d="M649.103 670.201C651.066 647.624 672.824 634.618 683.458 630.937C687.385 639.771 680.186 655.068 676.096 661.612C670.207 669.464 667.098 688.605 666.28 697.194C666.28 715.844 650.739 732.777 642.968 738.912C636.097 744.801 629.471 752.817 627.017 756.089C624.072 767.868 624.972 781.447 625.79 786.764H622.109C621.127 781.856 622.518 764.269 623.336 756.089C612.539 730.568 627.017 707.828 635.606 699.648C644.44 689.832 648.285 675.926 649.103 670.201Z" fill="url(#paint49_linear)"/>
<path fill-rule="evenodd" clip-rule="evenodd" d="M683.459 632.164C676.097 638.708 661.127 655.477 660.146 670.201C660.146 679.198 657.446 701.366 646.649 718.053C642.368 723.891 634.679 737.062 636.483 745.09C638.529 742.963 640.735 740.825 642.968 738.912C650.739 732.777 666.28 715.844 666.28 697.194C667.098 688.605 670.207 669.464 676.096 661.612C680.186 655.068 687.385 639.771 683.458 630.937C683.046 631.08 682.617 631.237 682.172 631.408L683.459 632.164Z" fill="url(#paint50_linear)"/>
<path d="M550.307 687.729C542.786 667.656 519.658 661.329 509.034 660.675C507.699 669.721 518.142 681.832 523.53 686.756C530.89 692.416 538.582 709.068 541.508 716.686C546.243 733.68 564.704 745.163 573.342 748.78C581.098 752.402 589.171 758.024 592.237 760.382C597.911 770.367 600.539 782.969 601.143 788.021L604.497 787.086C604.146 782.365 598.413 766.693 595.591 759.448C598.95 733.452 579.984 716.407 570.081 711.134C559.54 704.433 552.506 692.738 550.307 687.729Z" fill="url(#paint51_linear)"/>
<path fill-rule="evenodd" clip-rule="evenodd" d="M509.345 661.793C517.715 665.887 535.612 677.365 540.244 690.532C542.529 698.731 550.617 718.245 564.692 730.708C570.075 734.941 580.425 744.99 580.82 752.763C585.815 755.71 590.167 758.79 592.237 760.382C597.911 770.367 600.539 782.969 601.143 788.021L604.497 787.086C604.146 782.365 598.413 766.693 595.591 759.448C598.95 733.452 579.984 716.407 570.081 711.134C559.54 704.433 552.506 692.738 550.307 687.729C543.078 668.434 521.429 661.84 510.325 660.777L509.345 661.793Z" fill="url(#paint52_linear)"/>
<path d="M578.945 606.385C578.227 581.463 555.156 565.792 543.711 561.072C538.836 570.525 545.768 587.785 549.844 595.233C555.812 604.233 558.008 625.455 558.359 634.94C557.171 655.425 573.164 675.012 581.308 682.246C588.48 689.152 595.247 698.379 597.734 702.129C600.218 715.254 606.158 735.231 608.251 786.529L612.294 786.764C608.25 724.188 602.155 711.4 601.777 702.363C615.262 675.019 600.807 649.12 591.895 639.589C582.816 628.245 579.479 612.727 578.945 606.385Z" fill="url(#paint53_linear)"/>
<path fill-rule="evenodd" clip-rule="evenodd" d="M543.633 562.42C551.302 570.077 566.676 589.448 566.817 605.682C566.244 615.565 567.797 640.085 578.594 659.101C582.924 665.786 590.53 680.743 588.038 689.445C585.926 686.979 583.639 684.49 581.308 682.246C573.164 675.012 557.171 655.425 558.359 634.94C558.008 625.454 555.812 604.233 549.844 595.233C545.768 587.785 538.836 570.525 543.711 561.072C544.155 561.255 544.617 561.455 545.094 561.671L543.633 562.42Z" fill="url(#paint54_linear)"/>
<path d="M624.563 622.348C625.545 604.68 644.604 582.267 654.011 573.269C661.863 575.232 654.829 596.173 650.33 606.397C647.385 611.305 645.013 627.256 644.195 634.618C643.213 654.25 627.426 677.971 619.655 687.378C615.729 739.402 618.019 775.312 619.655 786.764H615.974C613.029 773.022 614.747 713.145 615.974 684.924C613.029 666.274 617.201 650.978 619.655 645.661C622.6 638.79 624.154 627.256 624.563 622.348Z" fill="url(#paint55_linear)"/>
<path fill-rule="evenodd" clip-rule="evenodd" d="M652.783 574.496C651.965 578.177 649.593 587.502 646.649 595.354C641.332 606.397 630.452 631.673 629.471 644.434C628.297 654.999 623.978 677.695 615.87 687.375C614.654 716.471 613.112 773.408 615.974 786.764H619.655C618.019 775.312 615.729 739.402 619.655 687.378C627.426 677.971 643.213 654.25 644.195 634.618C645.013 627.256 647.385 611.305 650.33 606.397C654.702 596.461 661.468 576.406 654.64 573.48C654.047 573.778 653.429 574.116 652.783 574.496Z" fill="url(#paint56_linear)"/>
<g opacity="0.2">
<path d="M1300.95 889.272C1349.88 876.689 1388.91 884.029 1402.31 889.272C1391.12 816.571 1325.41 843.833 1293.95 866.552C1284.17 873.543 1253.76 888.106 1239.78 894.514C1255.16 898.709 1286.96 892.767 1300.95 889.272Z" fill="url(#paint57_linear)"/>
<path d="M1213.56 850.824C1242.92 839.639 1329.49 834.513 1369.1 833.348C1412.44 831.144 1387.16 819.614 1369.1 814.124C1290.81 805.735 1232.79 835.095 1213.56 850.824Z" fill="url(#paint58_linear)"/>
<path d="M1175.12 618.39C1166.73 601.613 1152.98 557.806 1147.15 538C1177.91 546.389 1207.74 604.41 1218.81 632.371C1235.58 677.11 1273.57 720.917 1290.46 737.229C1270.89 707.869 1268.32 655.09 1269.49 632.371C1272.28 612.798 1274.15 575.283 1274.73 558.971C1284.52 570.156 1295.12 661.498 1299.2 705.771C1299.2 758.899 1309.68 767.521 1314.93 765.19C1299.55 728.84 1319 666.159 1330.65 639.362C1323.66 749.811 1333.57 784.414 1339.39 787.91C1331 730.588 1348.71 669.654 1358.62 646.352C1365.61 668.722 1361.53 755.87 1358.62 796.648C1396.37 799.389 1418.62 851.384 1425.03 877.038H1405.8C1410 828.105 1370.27 813.541 1349.88 812.376C1328.91 815.172 1230.46 875.29 1183.85 905C1225.8 843.484 1293.37 801.308 1321.92 787.91C1281.37 780.919 1212.98 826.94 1183.85 850.824C1197.84 803.289 1266.58 779.754 1299.2 773.929C1234.89 776.725 1195.51 790.24 1183.85 796.648C1161.48 805.036 1132.59 860.727 1120.94 887.524C1116.75 845.581 1132.01 812.959 1140.16 801.89C1163.93 766.938 1250.26 762.86 1290.46 765.19C1200.98 738.627 1147.15 708.684 1131.43 697.033C1089.48 662.081 1148.9 688.295 1183.85 705.771C1207.82 717.753 1250.58 735.967 1271.72 744.722C1231.78 727.697 1211.69 697.874 1206.57 684.8C1203.78 673.615 1184.44 635.867 1175.12 618.39Z" fill="url(#paint59_linear)"/>
</g>
<path d="M1320.95 879.272C1369.88 866.689 1408.91 874.029 1422.31 879.272C1411.12 806.571 1345.41 833.833 1313.95 856.552C1304.17 863.543 1273.76 878.106 1259.78 884.514C1275.16 888.709 1306.96 882.767 1320.95 879.272Z" fill="url(#paint60_linear)"/>
<path d="M1233.56 840.824C1262.92 829.639 1349.49 824.513 1389.1 823.348C1432.44 821.144 1407.16 809.614 1389.1 804.124C1310.81 795.735 1252.79 825.095 1233.56 840.824Z" fill="url(#paint61_linear)"/>
<path d="M1195.12 608.39C1186.73 591.613 1172.98 547.806 1167.15 528C1197.91 536.389 1227.74 594.41 1238.81 622.371C1255.58 667.11 1293.57 710.917 1310.46 727.229C1290.89 697.869 1288.32 645.09 1289.49 622.371C1292.28 602.798 1294.15 565.283 1294.73 548.971C1304.52 560.156 1315.12 651.498 1319.2 695.771C1319.2 748.899 1329.68 757.521 1334.93 755.19C1319.55 718.84 1339 656.159 1350.65 629.362C1343.66 739.811 1353.57 774.414 1359.39 777.91C1351 720.588 1368.71 659.654 1378.62 636.352C1385.61 658.722 1381.53 745.87 1378.62 786.648C1416.37 789.389 1438.62 841.384 1445.03 867.038H1425.8C1430 818.105 1390.27 803.541 1369.88 802.376C1348.91 805.172 1250.46 865.29 1203.85 895C1245.8 833.484 1313.37 791.308 1341.92 777.91C1301.37 770.919 1232.98 816.94 1203.85 840.824C1217.84 793.289 1286.58 769.754 1319.2 763.929C1254.89 766.725 1215.51 780.24 1203.85 786.648C1181.48 795.036 1152.59 850.727 1140.94 877.524C1136.75 835.581 1152.01 802.959 1160.16 791.89C1183.93 756.938 1270.26 752.86 1310.46 755.19C1220.98 728.627 1167.15 698.684 1151.43 687.033C1109.48 652.081 1168.9 678.295 1203.85 695.771C1227.82 707.753 1270.58 725.967 1291.72 734.722C1251.78 717.697 1231.69 687.874 1226.57 674.8C1223.78 663.615 1204.44 625.867 1195.12 608.39Z" fill="url(#paint62_linear)"/>
<circle opacity="0.4" cx="647" cy="507" r="19" fill="url(#paint63_linear)"/>
<path d="M412.002 760.998H404.004C401.795 760.998 400.002 759.206 400.002 756.996C400.002 754.787 401.795 753 404.004 753H412.002C414.211 753 416.004 754.788 416.004 756.996C416.004 759.205 414.211 760.998 412.002 760.998Z" fill="#D0D9F3"/>
<path d="M508.002 760.998H500.004C497.795 760.998 496.002 759.205 496.002 756.996C496.002 754.787 497.795 753 500.004 753H508.002C510.212 753 512.005 754.787 512.005 756.996C512.005 759.205 510.212 760.998 508.002 760.998Z" fill="#D0D9F3"/>
<path d="M476.004 741H436.002C433.793 741 432 742.787 432 744.996V768.996C432 771.205 433.793 772.998 436.002 772.998H476.004C478.214 772.998 480 771.205 480 768.996V744.996C480 742.787 478.213 741 476.004 741ZM472.002 765H440.004V748.998H472.002V765Z" fill="#D0D9F3"/>
<path d="M528 849.001C528 851.21 526.213 852.997 524.005 852.997H388.002C385.793 852.997 384 851.209 384 849.001V760.998C384 758.789 385.793 756.996 388.002 756.996H524.005C526.213 756.996 528 758.789 528 760.998V849.001Z" fill="url(#paint64_linear)"/>
<path d="M524.005 844.998H388.002C385.793 844.998 384 843.205 384 840.996V849.001C384 851.21 385.793 852.997 388.002 852.997H524.005C526.213 852.997 528 851.209 528 849.001V840.996C528 843.205 526.213 844.998 524.005 844.998Z" fill="#AFC0EC"/>
<path d="M464.004 820.999C464.004 825.417 460.418 828.997 456 828.997C451.582 828.997 448.002 825.417 448.002 820.999V789C448.002 784.582 451.582 780.996 456 780.996C460.418 780.996 464.004 784.582 464.004 789V820.999Z" fill="#DA4453"/>
<path d="M480 804.996C480 809.414 476.426 813 472.002 813H440.004C435.586 813 432 809.414 432 804.996C432 800.578 435.586 796.998 440.004 796.998H472.002C476.426 796.998 480 800.578 480 804.996Z" fill="#ED5564"/>
<mask id="mask4" mask-type="alpha" maskUnits="userSpaceOnUse" x="384" y="756" width="144" height="97">
<path d="M528 849.001C528 851.21 526.213 852.997 524.005 852.997H388.002C385.793 852.997 384 851.209 384 849.001V760.998C384 758.789 385.793 756.996 388.002 756.996H524.005C526.213 756.996 528 758.789 528 760.998V849.001Z" fill="url(#paint65_linear)"/>
</mask>
<g mask="url(#mask4)">
<path opacity="0.3" d="M528.331 841.187C479.31 808.759 381.004 743.744 379.952 743.113L531.751 740.747L528.331 841.187Z" fill="white"/>
</g>
<path d="M1032 149.08C1009.2 149.48 993.167 162.913 988 169.58L995 181.5C1003 174.5 1021 178 1030.5 176.5C1044.9 177.3 1052 167.5 1055.5 166C1069.5 154.08 1064 155.46 1057.5 156.5C1047.5 158.1 1031.33 158.413 1023.5 158.58C1025.1 157.78 1034.17 155.247 1038.5 154.08C1048.9 149.28 1038.5 148.747 1032 149.08Z" fill="#E9A97B"/>
<path d="M883.943 139.722C863.773 111.977 852.163 98.3298 846 99L838 162.34L905.234 209.083C917.784 218.733 932.875 214.444 938.851 211.094L1007.07 179.094C1001.69 177.486 995.115 166.361 992.5 161L936.61 176.915C913.75 183.751 894.687 154.5 883.943 139.722Z" fill="url(#paint66_linear)"/>
<path d="M907.611 523.888C905.393 531.281 799.006 540.893 711 470.031L859.559 329.832C881.737 284.737 863.956 160.985 851.943 104C862.663 112.502 876.654 162.112 882.661 186.6C895.967 267.919 904.839 445.342 907.611 523.888Z" fill="url(#paint67_linear)"/>
<path d="M890.749 273.942C878.181 160.835 858.739 113.472 850.269 103.615L853.748 103.118L857.944 106.684C874.208 122.208 886.59 173.526 890.749 197.243C901.098 261.559 912.926 423.642 917.547 496.645L907.382 527.139C907.382 510.875 896.293 351.564 890.749 273.942Z" fill="#F8FAFF"/>
<path d="M873.269 65.4307C873.319 60.4748 873.759 49.7985 873.972 45.0799C856.749 12.2899 828.96 27.3671 817.218 39.0044C806.458 49.9855 810.051 66.202 813.192 72.9376L801.5 90.5C802.976 112.992 817.044 111.78 826.831 115.414C833.984 117.636 839.989 109.56 842.51 104.324C840.553 102.326 837.237 99.2501 836.259 98.2512C835.209 97.1797 839.295 92.9583 840.632 91.5119C866.822 110.165 873.303 81.8966 873.269 65.4307Z" fill="#F3BB93"/>
<path d="M861.065 24.032C880.49 34.7984 882.116 32.3596 883.966 28.8558C889.515 50.0488 854.717 53.0886 840.51 54.6673C830.923 52.648 834.424 60.7237 835.573 63.1907C828.874 64.6477 820.714 69.461 819.454 73.7011C817.982 72.3328 814.87 74.4242 812.371 73.6601C803.979 60.8269 806.905 40.9644 810.157 33.3337C821.828 9.12389 846.502 15.9608 861.065 24.032Z" fill="url(#paint68_linear)"/>
<path d="M876.798 76.0633C876.439 75.2945 873.402 70.0413 871.929 67.5108L871.513 78.5301C876.664 77.5304 877.183 76.469 876.798 76.0633Z" fill="#F3BB93"/>
<path fill-rule="evenodd" clip-rule="evenodd" d="M840.62 91.5242C838.318 89.7836 836.043 87.7255 834.017 85.3326C831.37 82.2051 825.755 78.366 831.722 107.48C832.255 107.559 836.956 106.528 842.367 104.616C842.416 104.518 842.464 104.42 842.51 104.324C841.363 103.154 839.751 101.613 838.415 100.337C837.47 99.4348 836.664 98.6647 836.259 98.2509C835.281 97.2527 838.76 93.5207 840.322 91.8454C840.431 91.7276 840.532 91.62 840.62 91.5242Z" fill="url(#paint69_linear)"/>
<path d="M867.629 61.8188C868.628 62.4532 868.24 63.2709 867.329 63.8947C866.557 64.4229 865.595 63.4622 865.748 62.6252C866.024 61.107 867.138 61.2115 868.029 61.9044C868.517 62.284 867.69 63.2793 867.402 63.5082C866.599 64.1478 865.49 62.9446 866.465 62.5225C867.034 62.2761 867.888 62.8721 867.108 63.34C866.782 63.5357 866.657 62.934 866.873 62.7677C867.067 62.6172 867.266 62.8098 867.253 62.988" stroke="#181242" stroke-width="1.19628" stroke-linecap="round" stroke-linejoin="round"/>
<path d="M868.509 58.7671C866.802 57.6811 865.044 56.8564 862.96 56.7783C862.026 56.7434 860.901 56.712 860.024 57.1224" stroke="#2F2851" stroke-width="1.19628" stroke-linecap="round" stroke-linejoin="round"/>
<path d="M865.198 83.4433C863.516 83.3084 862.446 82.688 861.327 81.4089C860.632 80.6146 859.849 79.4284 859.587 78.3655" stroke="#191242" stroke-width="1.19628" stroke-linecap="round" stroke-linejoin="round"/>
<path opacity="0.4" d="M844.242 158.841C835.289 131.982 804.87 108.933 791.917 99.98L775.344 256.563L858.208 287.422C865.979 245.819 855.482 192.558 844.242 158.841Z" fill="url(#paint70_linear)"/>
<path d="M766.779 420.344C762.861 326.291 775.669 296.609 782.564 293.525C822.188 266.093 858.583 282.095 871.827 293.525C878.794 305.282 889.97 419.255 894.687 474.773C902.525 532.25 904.484 567.665 904.484 578.187C903.613 622.601 908.476 688.133 911.016 715.348H878.358C873.133 705.768 866.021 648.945 863.118 621.73C858.764 542.482 840.984 505.253 832.638 496.544C819.575 530.508 778.935 687.045 760.248 761.068L733.034 753.992C730.421 743.542 747.548 642.595 756.438 593.427C765.582 548.578 767.142 459.351 766.779 420.344Z" fill="url(#paint71_linear)"/>
<mask id="mask5" mask-type="alpha" maskUnits="userSpaceOnUse" x="732" y="278" width="180" height="484">
<path d="M766.779 420.344C762.861 326.291 775.669 296.609 782.564 293.525C822.188 266.093 858.583 282.095 871.827 293.525C878.794 305.282 889.97 419.255 894.687 474.773C902.525 532.25 904.484 567.665 904.484 578.187C903.613 622.601 908.476 688.133 911.016 715.348H878.358C873.133 705.768 866.021 648.945 863.118 621.73C858.764 542.482 840.984 505.253 832.638 496.544C819.575 530.508 778.935 687.045 760.248 761.068L733.034 753.992C730.421 743.542 747.548 642.595 756.438 593.427C765.582 548.578 767.142 459.351 766.779 420.344Z" fill="url(#paint72_linear)"/>
</mask>
<g mask="url(#mask5)">
<path d="M876.244 560.584C874.416 523.553 857.195 440.004 848.814 402.859L807.097 473.149L876.244 708.595H892.246L876.244 560.584Z" fill="url(#paint73_linear)"/>
</g>
<path d="M834.285 105.961C822.495 108.133 807.308 99.2166 799.28 92.4951C799.28 95.908 777.157 102.787 768.429 120.64L765.691 299.606C825.018 299.606 848.423 302.871 871.087 290.461C871.087 273.48 872.916 274.568 872.916 232.658C872.916 208.71 872.916 190.748 871.087 164.078L868.561 142.851L863.663 122.168C859.94 116.273 859.145 111.82 856.043 109.105C850.584 103.118 843.191 98.2405 839.442 96.0428C837.581 105.661 836.871 105.444 834.285 105.961Z" fill="url(#paint74_linear)"/>
<path d="M838.649 110.722C837.379 114.53 831.772 113.896 829.127 113.102L833.888 106.358L838.649 110.722Z" fill="#ECF1FF"/>
<path d="M828.334 124.21L796.199 95.6458L802.15 91.2819L834.285 106.754L839.839 96.836L843.41 118.656L834.285 107.944L828.334 124.21Z" fill="url(#paint75_linear)"/>
<path d="M833.888 106.527L801.797 89.6952L797.389 93.2098L827.626 119.053L833.888 106.527Z" fill="white"/>
<path d="M833.887 106.584L837.5 95L841.5 96.5L840.235 112.705L833.887 106.584Z" fill="white"/>
<path opacity="0.4" d="M806.817 166.286C808.087 138.357 795.445 109.951 788.965 99.2395C787.06 100.826 782.353 104.397 780.237 105.984L761.194 243.648L784.601 341.639L803.247 294.825C795.709 262.691 798.089 243.648 803.247 221.431C805.468 204.927 806.553 178.452 806.817 166.286Z" fill="url(#paint76_linear)"/>
<path d="M841.292 163.505C832.148 136.508 804.099 107.262 791.218 96.0134C752.628 118.358 743.484 186.829 739.565 221.228C735.646 255.627 729.895 347.837 722.093 389.929C720.351 399.944 713.439 447.108 711.752 457.42C710.064 467.733 706.908 465.297 715.616 474.322C739.565 499.141 790.673 516.385 815.166 525.456C829.971 531.552 835.123 525.456 835.849 521.646C878.521 375.342 857.258 211.04 841.292 163.505Z" fill="url(#paint77_linear)"/>
<path d="M792 224.5C798.4 193.7 800.5 149 802 133L779 140.5L768 252L853.5 271.5L858.5 259.5C799 252 788.883 239.5 792 224.5Z" fill="#E3E8F6"/>
<path d="M763.5 285C733.1 280.6 742.5 209.833 751 175L758.5 214.5L779 261L860 288C802 289.2 771.5 286.5 763.5 285Z" fill="url(#paint78_linear)"/>
<g filter="url(#filter2_f)">
<path d="M825.698 505.264C845.803 475.879 850.963 375.506 851.097 324.272C851.103 322.084 848.75 320.686 846.763 321.604C815.478 336.058 774.683 328.354 753.648 321.196C751.507 320.467 749.152 322.279 749.154 324.541C749.174 350.061 732.284 428.646 722.862 468.808C722.641 469.754 722.893 470.711 723.634 471.338C734.158 480.247 780.549 501.06 803.479 510.788C803.605 510.842 803.733 510.885 803.866 510.92C818.444 514.719 824.027 509.719 825.219 506.28C825.345 505.917 825.481 505.58 825.698 505.264Z" fill="url(#paint79_linear)"/>
</g>
<g opacity="0.15">
<circle cx="860.069" cy="166.631" r="11.0152" transform="rotate(14.3374 860.069 166.631)" fill="#2E2846"/>
<circle cx="860.523" cy="164.853" r="11.0152" transform="rotate(14.3374 860.523 164.853)" fill="#2E2846"/>
<circle cx="860.523" cy="164.853" r="6.86978" transform="rotate(14.3374 860.523 164.853)" fill="#2E2846" stroke="white" stroke-width="0.947348"/>
</g>
<path d="M842 95.5C853.183 99.9372 870.249 116.038 860.611 153.746" stroke="url(#paint80_linear)" stroke-width="2.67013" stroke-linecap="round"/>
<circle cx="855.424" cy="166.632" r="11.0152" transform="rotate(14.3374 855.424 166.632)" fill="#719290"/>
<circle cx="855.878" cy="164.853" r="11.0152" transform="rotate(14.3374 855.878 164.853)" fill="#77D9D3"/>
<circle cx="855.878" cy="164.853" r="6.86978" transform="rotate(14.3374 855.878 164.853)" stroke="white" stroke-width="0.947348"/>
<g opacity="0.25">
<path d="M799.831 88.0345C791.655 91.7913 791.799 102.763 806.033 128.788" stroke="url(#paint81_linear)" stroke-width="2.68081" stroke-linecap="round"/>
<path d="M806.623 129.751C810.554 127.421 821.361 124.771 825.972 147.548L834.63 191.612" stroke="url(#paint82_linear)" stroke-width="2.67013" stroke-linecap="round"/>
<ellipse rx="2.24893" ry="2.55264" transform="matrix(0.908676 -0.417503 -0.417503 -0.908676 836.382 192.437)" fill="#2C2748"/>
<path d="M807.818 129.092C803.847 131.403 796.09 139.655 812.908 155.265L845.575 185.23" stroke="url(#paint83_linear)" stroke-width="2.67013" stroke-linecap="round"/>
<ellipse rx="2.45053" ry="2.66669" transform="matrix(-0.958201 0.225467 -0.274991 -0.97482 845.558 186.899)" fill="#2C2748"/>
</g>
<path d="M803.238 86.146C794.969 89.6948 794.836 100.667 808.408 127.043" stroke="url(#paint84_linear)" stroke-width="2.68081" stroke-linecap="round"/>
<path d="M808.973 128.02C812.962 125.791 823.832 123.415 827.866 146.302L835.407 190.57" stroke="url(#paint85_linear)" stroke-width="2.67013" stroke-linecap="round"/>
<ellipse rx="2.24893" ry="2.55264" transform="matrix(0.918941 -0.394395 -0.394395 -0.918941 837.137 191.439)" fill="url(#paint86_linear)"/>
<path d="M810.184 127.391C806.156 129.602 798.193 137.654 814.61 153.685L846.51 184.467" stroke="url(#paint87_linear)" stroke-width="2.67013" stroke-linecap="round"/>
<ellipse rx="2.45053" ry="2.66669" transform="matrix(-0.963595 0.201168 -0.250256 -0.981461 846.451 186.134)" fill="url(#paint88_linear)"/>
<path d="M810.222 830.745L811.811 823.85L716.729 791.332C715.45 796.065 712.975 805.66 713.307 806.183C713.994 813.044 734.826 816.913 745.156 817.989C762.768 820.259 776.45 824.827 781.09 826.826C795.101 830.948 806.349 831.156 810.222 830.745Z" fill="url(#paint89_linear)"/>
<path d="M719.556 784.074C723.585 778.878 730.662 761.26 733.696 753.101L758.884 759.789C757.447 771.56 772.141 787.401 779.668 793.85C785.547 799.129 799.053 810.106 805.07 814.934C823.887 830.876 798.973 825.963 784.163 821.514C770.309 816.72 749.283 812.316 740.501 810.713C712.446 805.06 714.848 790.598 719.556 784.074Z" fill="url(#paint90_linear)"/>
<path d="M971.431 771.503V764.427L872.915 754.086C872.734 758.984 872.48 768.89 872.915 769.326C875.092 775.857 895.957 774.95 906.117 773.68C923.534 771.938 937.685 773.317 942.584 774.224C956.953 775.095 967.803 772.773 971.431 771.503Z" fill="url(#paint91_linear)"/>
<path d="M874.412 747.806C877.025 741.912 879.619 723.475 880.589 714.993L906.141 715.436C907.541 726.98 925.257 738.605 933.94 742.974C940.778 746.617 956.218 753.89 963.083 757.071C984.746 767.821 959.872 769.005 944.726 768.253C930.409 766.947 909.356 767.701 900.618 768.24C872.579 769.458 871.465 755.125 874.412 747.806Z" fill="url(#paint92_linear)"/>
<path d="M950.838 293.255L944.568 285.865L947.524 283.357L953.794 290.747L950.838 293.255Z" fill="#34CDFA"/>
<path d="M938.063 281.21L943.959 276.19C944.774 275.503 945.991 275.602 946.683 276.413L950.481 280.848C951.168 281.662 951.068 282.879 950.258 283.571L944.342 288.59C943.527 289.277 942.311 289.177 941.619 288.367L937.859 283.935C937.172 283.12 937.272 281.904 938.082 281.212L938.063 281.21Z" fill="#CCF2FE"/>
<path d="M911.057 258.361L925.835 245.824C926.649 245.136 927.866 245.236 928.558 246.047L946.115 266.74C946.406 267.082 946.57 267.515 946.578 267.964L946.696 276.492L937.833 284.011L929.439 282.506C929.027 282.416 928.656 282.194 928.382 281.875L910.829 261.143C910.121 260.34 910.199 259.115 911.003 258.407C911.02 258.392 911.039 258.376 911.057 258.361Z" fill="url(#paint93_linear)"/>
<path d="M911.453 258.044L928.609 278.159C928.883 278.479 929.254 278.7 929.666 278.79L938.06 280.296L946.664 273.086L946.721 276.416L937.859 283.935L929.464 282.43C929.053 282.34 928.682 282.118 928.408 281.799L910.829 261.143C910.142 260.328 910.242 259.111 911.052 258.419L911.453 258.044Z" fill="#99E6FD"/>
<path d="M934.169 261.65L929.154 255.737C928.461 254.921 927.238 254.82 926.422 255.513L920.509 260.527C919.693 261.22 919.592 262.443 920.285 263.259L925.299 269.172C925.992 269.989 927.215 270.089 928.031 269.397L933.944 264.382C934.76 263.689 934.861 262.466 934.169 261.65Z" fill="url(#paint94_linear)"/>
<path d="M933.281 272.557L930.773 269.601L933.729 267.093L936.237 270.049L933.281 272.557Z" fill="#99E6FD"/>
<path d="M937.042 276.992L934.534 274.036L937.489 271.528L939.998 274.484L937.042 276.992Z" fill="#99E6FD"/>
<path d="M872.399 266.337C875.913 266.726 885.47 267.153 895.583 265.749C900.331 265.116 910.953 263.649 915.454 262.848C916.997 262.502 921.579 262.423 927.564 264.868C932.481 267.037 939.614 273.562 942.98 277.833C944.088 279.424 939.95 280.903 933.061 273.078C934.715 275.405 935.777 280.447 932.068 284.595C933.291 285.769 933.758 287.649 925.836 285.775C922.725 285.267 915.493 284.615 911.448 286.072C904.897 288.772 888.289 291.653 874.263 281.579L872.399 266.337Z" fill="#F3BB93"/>
<path d="M913.572 270.97C917.834 270.919 927.684 272.86 932.99 281.033C931.076 276.773 924.511 268.796 913.572 270.97Z" fill="#C79978"/>
<path d="M925.499 266.793C927.317 268.121 931.18 271.105 932.093 272.415C931.545 270.931 929.46 267.73 925.499 266.793Z" fill="#C79978"/>
<path d="M910.516 278.451C913.423 277.155 921.726 276.526 931.675 284.382C927.364 282.035 917.097 277.563 910.516 278.451Z" fill="#C79978"/>
<path d="M801 144.5C802.457 123.536 796.5 113 784 113C756.696 113 750.723 177.546 746.307 214.813C740.5 276 761.005 281.067 789.627 285.375C798.267 286.676 862.523 291.591 878.5 285.375L878.5 280.5C878.5 273 880.103 263.155 877.049 262.5C869.321 260.844 808.297 252.47 803.353 251.48C785.106 247.024 784.807 244.311 784.021 237.187L784 237C783.198 229.736 799.124 171.5 801 144.5Z" fill="url(#paint95_linear)"/>
<path d="M1048.25 109H1036.75C1035.16 109 1033.88 110.287 1033.88 111.875V132L1036.75 133.61L1033.88 134.875V140.625L1036.75 142.408L1033.88 143.5V152.125C1033.88 156.888 1037.74 160.75 1042.5 160.75C1047.26 160.75 1051.12 156.888 1051.12 152.125V111.875C1051.12 110.287 1049.84 109 1048.25 109Z" fill="url(#paint96_linear)"/>
<path d="M1051.12 109H1033.88C1032.29 109 1031 110.287 1031 111.875C1031 113.463 1032.29 114.75 1033.88 114.75H1051.12C1052.71 114.75 1054 113.463 1054 111.875C1054 110.287 1052.71 109 1051.12 109Z" fill="#5665EA"/>
<path d="M1042.5 132H1033.88V134.875H1042.5V132Z" fill="#CCF2FE"/>
<path d="M1042.5 140.625H1033.88V143.5H1042.5V140.625Z" fill="#CCF2FE"/>
<path d="M1030 160.5C1017.2 159.7 1009.17 162.833 1007 164.5C1011 162.9 1021 165.167 1025.5 166.5C1036 170.5 1039.67 170.197 1041.5 169.5C1035.5 169.5 1031.5 163.5 1030 160.5Z" fill="url(#paint97_linear)"/>
<path d="M1007.5 165.25C1013.05 163.055 1020.3 164.658 1025.67 166.764C1028.48 167.869 1031.26 169.063 1034.14 170C1036.91 170.902 1039.5 170.574 1042.25 169.75" stroke="url(#paint98_linear)" stroke-width="1.2" stroke-linecap="round" stroke-linejoin="round"/>
<path d="M962 278.5C956.975 278.5 955.167 285.667 955 289.5C955.8 287.5 958.5 285.667 960 285C966.866 281.948 964.5 278.5 962 278.5Z" fill="#ED4C4C"/>
<g filter="url(#filter3_d)">
<circle cx="965.532" cy="527.532" r="73.5325" fill="white"/>
</g>
<path fill-rule="evenodd" clip-rule="evenodd" d="M948.374 490C945.244 490 942.707 492.537 942.707 495.667V538.745C942.707 541.875 945.244 544.412 948.374 544.412H982.629C985.758 544.412 988.295 541.875 988.295 538.745V495.667C988.295 492.537 985.758 490 982.629 490H948.374ZM952.327 497.353C951.075 497.353 950.061 498.368 950.061 499.62V525.969C950.061 527.22 951.075 528.235 952.327 528.235H978.676C979.928 528.235 980.943 527.22 980.943 525.969V499.62C980.943 498.368 979.928 497.353 978.676 497.353H952.327ZM950.061 534.914C950.061 533.662 951.075 532.647 952.327 532.647H961.029C962.281 532.647 963.296 533.662 963.296 534.914V536.263C963.296 537.515 962.281 538.529 961.029 538.529H952.327C951.075 538.529 950.061 537.515 950.061 536.263V534.914ZM969.972 532.647C968.72 532.647 967.706 533.662 967.706 534.914V536.263C967.706 537.515 968.72 538.529 969.972 538.529H978.674C979.926 538.529 980.941 537.515 980.941 536.263V534.914C980.941 533.662 979.926 532.647 978.674 532.647H969.972Z" fill="url(#paint99_linear)"/>
<path d="M973.591 514.872C973.591 519.004 969.969 522.353 965.502 522.353C961.035 522.353 957.414 519.004 957.414 514.872C957.414 511.521 962.736 505.949 964.746 503.965C965.168 503.548 965.836 503.548 966.259 503.965C968.268 505.949 973.591 511.521 973.591 514.872Z" fill="#ED4C4C"/>
<path d="M963.294 544.412H967.706V562.794C967.706 564.012 966.718 565 965.5 565C964.282 565 963.294 564.012 963.294 562.794V544.412Z" fill="#3F2980"/>
<circle cx="649.5" cy="120.5" r="47.5" fill="url(#paint100_linear)"/>
<path fill-rule="evenodd" clip-rule="evenodd" d="M639.471 95C636.342 95 633.805 97.5371 633.805 100.667V125.608C633.805 128.737 636.342 131.274 639.471 131.274H658.53C661.66 131.274 664.197 128.737 664.197 125.608V100.667C664.197 97.5371 661.66 95 658.53 95H639.471ZM640.974 99.902C639.722 99.902 638.707 100.917 638.707 102.169V118.224C638.707 119.475 639.722 120.49 640.974 120.49H657.029C658.28 120.49 659.295 119.475 659.295 118.224V102.169C659.295 100.917 658.28 99.902 657.029 99.902H640.974ZM638.707 125.392C638.707 124.309 639.585 123.431 640.668 123.431H645.57C646.653 123.431 647.531 124.309 647.531 125.392C647.531 126.475 646.653 127.353 645.57 127.353H640.668C639.585 127.353 638.707 126.475 638.707 125.392ZM652.431 123.431C651.348 123.431 650.47 124.309 650.47 125.392C650.47 126.475 651.348 127.353 652.431 127.353H657.333C658.416 127.353 659.294 126.475 659.294 125.392C659.294 124.309 658.416 123.431 657.333 123.431H652.431Z" fill="white"/>
<path d="M654.394 111.581C654.394 114.336 651.98 116.569 649.002 116.569C646.024 116.569 643.609 114.336 643.609 111.581C643.609 109.473 646.769 106.047 648.251 104.555C648.669 104.135 649.334 104.135 649.752 104.555C651.234 106.047 654.394 109.473 654.394 111.581Z" fill="white"/>
<path d="M647.53 131.275H650.471V143.529C650.471 144.342 649.812 145 649 145C648.188 145 647.53 144.342 647.53 143.529V131.275Z" fill="white"/>
<circle cx="1283" cy="53" r="30" fill="url(#paint101_linear)"/>
<path fill-rule="evenodd" clip-rule="evenodd" d="M1278.53 35C1275.4 35 1272.86 37.5371 1272.86 40.6667V54.7254C1272.86 57.8551 1275.4 60.3921 1278.53 60.3921H1288.47C1291.6 60.3921 1294.14 57.8551 1294.14 54.7254V40.6667C1294.14 37.5371 1291.6 35 1288.47 35H1278.53ZM1278.56 38.4314C1277.31 38.4314 1276.29 39.4462 1276.29 40.6981V50.5765C1276.29 51.8283 1277.31 52.8432 1278.56 52.8432H1288.44C1289.69 52.8432 1290.71 51.8283 1290.71 50.5765V40.6981C1290.71 39.4462 1289.69 38.4314 1288.44 38.4314H1278.56ZM1276.29 56.2744C1276.29 55.5164 1276.91 54.9019 1277.67 54.9019H1281.1C1281.86 54.9019 1282.47 55.5164 1282.47 56.2744C1282.47 57.0325 1281.86 57.647 1281.1 57.647H1277.67C1276.91 57.647 1276.29 57.0325 1276.29 56.2744ZM1285.9 54.9019C1285.14 54.9019 1284.53 55.5164 1284.53 56.2744C1284.53 57.0325 1285.14 57.647 1285.9 57.647H1289.33C1290.09 57.647 1290.71 57.0325 1290.71 56.2744C1290.71 55.5164 1290.09 54.9019 1289.33 54.9019H1285.9Z" fill="white"/>
<path d="M1287.28 46.607C1287.28 48.5351 1285.59 50.0981 1283.5 50.0981C1281.42 50.0981 1279.73 48.5351 1279.73 46.607C1279.73 45.2295 1281.65 43.0482 1282.75 41.915C1283.17 41.4894 1283.84 41.4894 1284.25 41.915C1285.35 43.0482 1287.28 45.2295 1287.28 46.607Z" fill="white"/>
<path d="M1282.47 60.3922H1284.53V68.9706C1284.53 69.5392 1284.07 70 1283.5 70C1282.93 70 1282.47 69.5392 1282.47 68.9706V60.3922Z" fill="white"/>
<g opacity="0.8">
<rect x="586.263" y="453" width="9.47368" height="36" rx="4.73684" fill="white"/>
<rect x="573" y="475.737" width="9.47368" height="36" rx="4.73684" transform="rotate(-90 573 475.737)" fill="white"/>
</g>
<defs>
<filter id="filter0_f" x="1082.08" y="243.608" width="12.4626" height="12.4626" filterUnits="userSpaceOnUse" color-interpolation-filters="sRGB">
<feFlood flood-opacity="0" result="BackgroundImageFix"/>
<feBlend mode="normal" in="SourceGraphic" in2="BackgroundImageFix" result="shape"/>
<feGaussianBlur stdDeviation="0.566483" result="effect1_foregroundBlur"/>
</filter>
<filter id="filter1_f" x="142.037" y="505.037" width="448.176" height="136.851" filterUnits="userSpaceOnUse" color-interpolation-filters="sRGB">
<feFlood flood-opacity="0" result="BackgroundImageFix"/>
<feBlend mode="normal" in="SourceGraphic" in2="BackgroundImageFix" result="shape"/>
<feGaussianBlur stdDeviation="0.481315" result="effect1_foregroundBlur"/>
</filter>
<filter id="filter2_f" x="721.822" y="320.07" width="130.237" height="193.174" filterUnits="userSpaceOnUse" color-interpolation-filters="sRGB">
<feFlood flood-opacity="0" result="BackgroundImageFix"/>
<feBlend mode="normal" in="SourceGraphic" in2="BackgroundImageFix" result="shape"/>
<feGaussianBlur stdDeviation="0.481315" result="effect1_foregroundBlur"/>
</filter>
<filter id="filter3_d" x="867.524" y="434.419" width="205.807" height="205.807" filterUnits="userSpaceOnUse" color-interpolation-filters="sRGB">
<feFlood flood-opacity="0" result="BackgroundImageFix"/>
<feColorMatrix in="SourceAlpha" type="matrix" values="0 0 0 0 0 0 0 0 0 0 0 0 0 0 0 0 0 0 127 0"/>
<feOffset dx="4.89518" dy="9.79036"/>
<feGaussianBlur stdDeviation="14.6855"/>
<feColorMatrix type="matrix" values="0 0 0 0 0.761999 0 0 0 0 0.812206 0 0 0 0 0.943231 0 0 0 1 0"/>
<feBlend mode="normal" in2="BackgroundImageFix" result="effect1_dropShadow"/>
<feBlend mode="normal" in="SourceGraphic" in2="effect1_dropShadow" result="shape"/>
</filter>
<linearGradient id="paint0_linear" x1="140.331" y1="859.127" x2="2071.72" y2="956.057" gradientUnits="userSpaceOnUse">
<stop stop-color="white" stop-opacity="0.45"/>
<stop offset="1" stop-color="white" stop-opacity="0"/>
</linearGradient>
<linearGradient id="paint1_linear" x1="1411.62" y1="863.025" x2="-187.732" y2="808.572" gradientUnits="userSpaceOnUse">
<stop stop-color="#5071DC"/>
<stop offset="1" stop-color="#567FEA" stop-opacity="0.21"/>
</linearGradient>
<linearGradient id="paint2_linear" x1="982.325" y1="569.357" x2="994.194" y2="569.636" gradientUnits="userSpaceOnUse">
<stop stop-color="#91A6DF"/>
<stop offset="1" stop-color="#BECAEB"/>
</linearGradient>
<linearGradient id="paint3_linear" x1="1072.74" y1="537.972" x2="1084.6" y2="537.337" gradientUnits="userSpaceOnUse">
<stop stop-color="#91A6DF"/>
<stop offset="1" stop-color="#BECAEB"/>
</linearGradient>
<linearGradient id="paint4_linear" x1="1067" y1="340" x2="1138.25" y2="487.943" gradientUnits="userSpaceOnUse">
<stop stop-color="#C6BDFF"/>
<stop offset="1" stop-color="#90F2FF"/>
</linearGradient>
<linearGradient id="paint5_linear" x1="1075" y1="393.5" x2="1016.5" y2="506" gradientUnits="userSpaceOnUse">
<stop offset="0.00519031" stop-color="#7A9CC5"/>
<stop offset="1" stop-color="#9DE6FF"/>
</linearGradient>
<linearGradient id="paint6_linear" x1="1160" y1="418" x2="1111.81" y2="601.584" gradientUnits="userSpaceOnUse">
<stop stop-color="#5A488D"/>
<stop offset="0.980885" stop-color="#DEE5FF"/>
</linearGradient>
<linearGradient id="paint7_linear" x1="1160" y1="418" x2="1111.81" y2="601.584" gradientUnits="userSpaceOnUse">
<stop stop-color="#5A488D"/>
<stop offset="0.980885" stop-color="#DEE5FF"/>
</linearGradient>
<linearGradient id="paint8_linear" x1="1052" y1="590.5" x2="982.393" y2="623.677" gradientUnits="userSpaceOnUse">
<stop stop-color="#D0D7FF"/>
<stop offset="1" stop-color="#CCD3FF"/>
</linearGradient>
<linearGradient id="paint9_linear" x1="1147.74" y1="550.68" x2="992.428" y2="536.108" gradientUnits="userSpaceOnUse">
<stop stop-color="#732626"/>
<stop offset="1" stop-color="#A84545"/>
</linearGradient>
<linearGradient id="paint10_linear" x1="1055.22" y1="733.055" x2="1091.19" y2="764.951" gradientUnits="userSpaceOnUse">
<stop stop-color="#E38686"/>
<stop offset="1" stop-color="#9A4242"/>
</linearGradient>
<linearGradient id="paint11_linear" x1="1046" y1="530.5" x2="1064" y2="711" gradientUnits="userSpaceOnUse">
<stop stop-color="#403E8A"/>
<stop offset="1" stop-color="#21175C"/>
</linearGradient>
<linearGradient id="paint12_linear" x1="1054.6" y1="649.447" x2="1054.6" y2="697.11" gradientUnits="userSpaceOnUse">
<stop stop-color="#0B0627"/>
<stop offset="1" stop-color="#21185D"/>
</linearGradient>
<linearGradient id="paint13_linear" x1="997.18" y1="728.459" x2="997" y2="794" gradientUnits="userSpaceOnUse">
<stop stop-color="#E38686"/>
<stop offset="1" stop-color="#9A4242"/>
</linearGradient>
<linearGradient id="paint14_linear" x1="1077.21" y1="526.962" x2="1077.21" y2="736.944" gradientUnits="userSpaceOnUse">
<stop stop-color="#5352A1"/>
<stop offset="1" stop-color="#271B72"/>
</linearGradient>
<linearGradient id="paint15_linear" x1="1089.16" y1="270.8" x2="1105.79" y2="281.234" gradientUnits="userSpaceOnUse">
<stop stop-color="#E0A780"/>
<stop offset="1" stop-color="#E0A780" stop-opacity="0"/>
</linearGradient>
<linearGradient id="paint16_linear" x1="1091.55" y1="291" x2="1105.2" y2="316.311" gradientUnits="userSpaceOnUse">
<stop stop-color="#E0A780"/>
<stop offset="1" stop-color="#E0A780" stop-opacity="0"/>
</linearGradient>
<linearGradient id="paint17_linear" x1="1087.14" y1="291" x2="1087.14" y2="554" gradientUnits="userSpaceOnUse">
<stop stop-color="#F9A0A0"/>
<stop offset="1" stop-color="#BD5555"/>
</linearGradient>
<linearGradient id="paint18_linear" x1="1067.5" y1="341" x2="1042.5" y2="402" gradientUnits="userSpaceOnUse">
<stop stop-color="#B35C5C"/>
<stop offset="1" stop-color="#DA7878"/>
</linearGradient>
<linearGradient id="paint19_linear" x1="1087.14" y1="291" x2="1087.14" y2="554" gradientUnits="userSpaceOnUse">
<stop stop-color="#F9A0A0"/>
<stop offset="1" stop-color="#BD5555"/>
</linearGradient>
<linearGradient id="paint20_linear" x1="936.5" y1="510" x2="1087.5" y2="538" gradientUnits="userSpaceOnUse">
<stop stop-color="#F9A0A2"/>
<stop offset="1" stop-color="#BD5555"/>
</linearGradient>
<linearGradient id="paint21_linear" x1="1211.44" y1="341.397" x2="1202.88" y2="511.315" gradientUnits="userSpaceOnUse">
<stop stop-color="#B35C5C"/>
<stop offset="1" stop-color="#BE5555" stop-opacity="0"/>
</linearGradient>
<linearGradient id="paint22_linear" x1="1033.9" y1="358.407" x2="1107.81" y2="344.407" gradientUnits="userSpaceOnUse">
<stop offset="0.0127845" stop-color="white"/>
<stop offset="1" stop-color="#E2EAFF"/>
</linearGradient>
<linearGradient id="paint23_linear" x1="1155" y1="330" x2="1164.57" y2="446.009" gradientUnits="userSpaceOnUse">
<stop stop-color="#F39898"/>
<stop offset="1" stop-color="#BD5555"/>
</linearGradient>
<linearGradient id="paint24_linear" x1="1223.9" y1="337.123" x2="1045.71" y2="321.731" gradientUnits="userSpaceOnUse">
<stop stop-color="#140D3E"/>
<stop offset="1" stop-color="#686277"/>
</linearGradient>
<linearGradient id="paint25_linear" x1="1107.55" y1="586.194" x2="1119.42" y2="586.473" gradientUnits="userSpaceOnUse">
<stop stop-color="#91A6DF"/>
<stop offset="1" stop-color="#BECAEB"/>
</linearGradient>
<linearGradient id="paint26_linear" x1="1193.76" y1="559.019" x2="1205.62" y2="558.384" gradientUnits="userSpaceOnUse">
<stop stop-color="#91A6DF"/>
<stop offset="1" stop-color="#BECAEB"/>
</linearGradient>
<linearGradient id="paint27_linear" x1="1166" y1="428" x2="1316.99" y2="590.455" gradientUnits="userSpaceOnUse">
<stop stop-color="#C6BDFF"/>
<stop offset="1" stop-color="#63FFEC"/>
</linearGradient>
<linearGradient id="paint28_linear" x1="1285.76" y1="239.471" x2="1322.31" y2="211.915" gradientUnits="userSpaceOnUse">
<stop stop-color="white"/>
<stop offset="1" stop-color="white" stop-opacity="0"/>
</linearGradient>
<linearGradient id="paint29_linear" x1="932.235" y1="67.5294" x2="995.897" y2="19.5289" gradientUnits="userSpaceOnUse">
<stop stop-color="#A19EF8"/>
<stop offset="1" stop-color="#77D9D3" stop-opacity="0.41"/>
</linearGradient>
<linearGradient id="paint30_linear" x1="179.183" y1="647.204" x2="209.078" y2="650.706" gradientUnits="userSpaceOnUse">
<stop stop-color="#91A6DF"/>
<stop offset="1" stop-color="#BECAEB"/>
</linearGradient>
<linearGradient id="paint31_linear" x1="478.423" y1="609.799" x2="508.318" y2="613.3" gradientUnits="userSpaceOnUse">
<stop stop-color="#91A6DF"/>
<stop offset="1" stop-color="#BECAEB"/>
</linearGradient>
<linearGradient id="paint32_linear" x1="636" y1="544.266" x2="451.742" y2="806.346" gradientUnits="userSpaceOnUse">
<stop stop-color="#C1C9FF"/>
<stop offset="1" stop-color="#6473D4"/>
</linearGradient>
<linearGradient id="paint33_linear" x1="130" y1="584.266" x2="650" y2="562.266" gradientUnits="userSpaceOnUse">
<stop stop-color="#BBCFFF"/>
<stop offset="1" stop-color="#E2EBFF"/>
</linearGradient>
<linearGradient id="paint34_linear" x1="306.838" y1="615.015" x2="635.923" y2="610.502" gradientUnits="userSpaceOnUse">
<stop stop-color="#D5DCF3"/>
<stop offset="1" stop-color="#8BABFF" stop-opacity="0.21"/>
</linearGradient>
<linearGradient id="paint35_linear" x1="462.773" y1="508.953" x2="423.349" y2="551.192" gradientUnits="userSpaceOnUse">
<stop stop-color="#B8A6FF"/>
<stop offset="0.983134" stop-color="#5350D4"/>
</linearGradient>
<linearGradient id="paint36_linear" x1="522.937" y1="506.242" x2="522.937" y2="552.262" gradientUnits="userSpaceOnUse">
<stop stop-color="#F9A0A0"/>
<stop offset="1" stop-color="#BD5555"/>
</linearGradient>
<linearGradient id="paint37_linear" x1="449.529" y1="518.941" x2="462.497" y2="509.163" gradientUnits="userSpaceOnUse">
<stop stop-color="white"/>
<stop offset="1" stop-color="white" stop-opacity="0"/>
</linearGradient>
<linearGradient id="paint38_linear" x1="446.471" y1="531.059" x2="453.544" y2="525.725" gradientUnits="userSpaceOnUse">
<stop stop-color="white"/>
<stop offset="1" stop-color="white" stop-opacity="0"/>
</linearGradient>
<linearGradient id="paint39_linear" x1="488.651" y1="528.575" x2="496.242" y2="522.852" gradientUnits="userSpaceOnUse">
<stop stop-color="white"/>
<stop offset="1" stop-color="white" stop-opacity="0"/>
</linearGradient>
<linearGradient id="paint40_linear" x1="477.235" y1="534.529" x2="480.772" y2="531.863" gradientUnits="userSpaceOnUse">
<stop stop-color="white"/>
<stop offset="1" stop-color="white" stop-opacity="0"/>
</linearGradient>
<linearGradient id="paint41_linear" x1="491.235" y1="538.529" x2="494.772" y2="535.863" gradientUnits="userSpaceOnUse">
<stop stop-color="white"/>
<stop offset="1" stop-color="white" stop-opacity="0"/>
</linearGradient>
<linearGradient id="paint42_linear" x1="518.651" y1="518.575" x2="526.242" y2="512.852" gradientUnits="userSpaceOnUse">
<stop stop-color="white"/>
<stop offset="1" stop-color="white" stop-opacity="0"/>
</linearGradient>
<linearGradient id="paint43_linear" x1="524.235" y1="523.529" x2="527.772" y2="520.863" gradientUnits="userSpaceOnUse">
<stop stop-color="white"/>
<stop offset="1" stop-color="white" stop-opacity="0"/>
</linearGradient>
<linearGradient id="paint44_linear" x1="486" y1="490.261" x2="486" y2="564.724" gradientUnits="userSpaceOnUse">
<stop stop-color="#8DA1D1"/>
<stop offset="1" stop-color="#B0C6FF"/>
</linearGradient>
<linearGradient id="paint45_linear" x1="550.5" y1="577" x2="543.057" y2="604.918" gradientUnits="userSpaceOnUse">
<stop offset="0.0313908" stop-color="#8DADFF"/>
<stop offset="1" stop-color="#6286E3"/>
</linearGradient>
<linearGradient id="paint46_linear" x1="307.5" y1="595.5" x2="403" y2="605" gradientUnits="userSpaceOnUse">
<stop offset="0.0313908" stop-color="#8DADFF"/>
<stop offset="1" stop-color="#6286E3"/>
</linearGradient>
<linearGradient id="paint47_linear" x1="381" y1="581.5" x2="292" y2="567.5" gradientUnits="userSpaceOnUse">
<stop stop-color="#668BEC"/>
<stop offset="1" stop-color="#3E8CC7" stop-opacity="0"/>
</linearGradient>
<linearGradient id="paint48_linear" x1="588.415" y1="858.06" x2="598.4" y2="792.738" gradientUnits="userSpaceOnUse">
<stop stop-color="#AC9DCD"/>
<stop offset="1" stop-color="#D9CAE5"/>
</linearGradient>
<linearGradient id="paint49_linear" x1="667.295" y1="640.581" x2="607.287" y2="678.92" gradientUnits="userSpaceOnUse">
<stop stop-color="#BAF3FF"/>
<stop offset="0.983134" stop-color="#B8C7FF"/>
</linearGradient>
<linearGradient id="paint50_linear" x1="671.738" y1="638.002" x2="627.518" y2="666.662" gradientUnits="userSpaceOnUse">
<stop stop-color="#5EE2FF"/>
<stop offset="0.983134" stop-color="#5178FF"/>
</linearGradient>
<linearGradient id="paint51_linear" x1="531.562" y1="660.297" x2="592.568" y2="671.929" gradientUnits="userSpaceOnUse">
<stop stop-color="#BAF3FF"/>
<stop offset="0.983134" stop-color="#898EFF"/>
</linearGradient>
<linearGradient id="paint52_linear" x1="512.615" y1="675.889" x2="619.219" y2="701.996" gradientUnits="userSpaceOnUse">
<stop stop-color="#25D8E3"/>
<stop offset="0.983134" stop-color="#2A26D5"/>
</linearGradient>
<linearGradient id="paint53_linear" x1="563.63" y1="575.949" x2="641.778" y2="626.862" gradientUnits="userSpaceOnUse">
<stop stop-color="#BAF3FF"/>
<stop offset="0.983134" stop-color="#B8C7FF"/>
</linearGradient>
<linearGradient id="paint54_linear" x1="556.134" y1="569.579" x2="602.879" y2="603.874" gradientUnits="userSpaceOnUse">
<stop stop-color="#5EE2FF"/>
<stop offset="0.983134" stop-color="#5178FF"/>
</linearGradient>
<linearGradient id="paint55_linear" x1="641.5" y1="581.5" x2="595.524" y2="592.536" gradientUnits="userSpaceOnUse">
<stop stop-color="#BAF3FF"/>
<stop offset="0.983134" stop-color="#898EFF"/>
</linearGradient>
<linearGradient id="paint56_linear" x1="658" y1="595.5" x2="574.498" y2="618.579" gradientUnits="userSpaceOnUse">
<stop stop-color="#25D8E3"/>
<stop offset="0.983134" stop-color="#2A26D5"/>
</linearGradient>
<linearGradient id="paint57_linear" x1="1275.15" y1="853.249" x2="1373.9" y2="979.331" gradientUnits="userSpaceOnUse">
<stop stop-color="#6350D9"/>
<stop offset="1" stop-color="#2A157D"/>
</linearGradient>
<linearGradient id="paint58_linear" x1="1252.62" y1="820.543" x2="1310.51" y2="935.659" gradientUnits="userSpaceOnUse">
<stop stop-color="#6350D9"/>
<stop offset="1" stop-color="#2A157D"/>
</linearGradient>
<linearGradient id="paint59_linear" x1="1176" y1="603" x2="1383.23" y2="916.462" gradientUnits="userSpaceOnUse">
<stop stop-color="#5744C6"/>
<stop offset="1" stop-color="#1E095A"/>
</linearGradient>
<linearGradient id="paint60_linear" x1="1295.15" y1="843.249" x2="1393.9" y2="969.331" gradientUnits="userSpaceOnUse">
<stop stop-color="#6350D9"/>
<stop offset="1" stop-color="#2A157D"/>
</linearGradient>
<linearGradient id="paint61_linear" x1="1272.62" y1="810.543" x2="1330.51" y2="925.659" gradientUnits="userSpaceOnUse">
<stop stop-color="#6350D9"/>
<stop offset="1" stop-color="#2A157D"/>
</linearGradient>
<linearGradient id="paint62_linear" x1="1196" y1="593" x2="1403.23" y2="906.462" gradientUnits="userSpaceOnUse">
<stop stop-color="#5744C6"/>
<stop offset="1" stop-color="#1E095A"/>
</linearGradient>
<linearGradient id="paint63_linear" x1="643.647" y1="532.706" x2="688.446" y2="498.928" gradientUnits="userSpaceOnUse">
<stop stop-color="white"/>
<stop offset="1" stop-color="white" stop-opacity="0"/>
</linearGradient>
<linearGradient id="paint64_linear" x1="456" y1="756.996" x2="456" y2="852.997" gradientUnits="userSpaceOnUse">
<stop stop-color="white"/>
<stop offset="1" stop-color="#D9E4FF"/>
</linearGradient>
<linearGradient id="paint65_linear" x1="456" y1="756.996" x2="456" y2="852.997" gradientUnits="userSpaceOnUse">
<stop stop-color="white"/>
<stop offset="1" stop-color="#A9C1FF"/>
</linearGradient>
<linearGradient id="paint66_linear" x1="1003" y1="177" x2="917.983" y2="234.043" gradientUnits="userSpaceOnUse">
<stop offset="0.0127845" stop-color="white"/>
<stop offset="1" stop-color="#DBE5FF"/>
</linearGradient>
<linearGradient id="paint67_linear" x1="887.013" y1="145.437" x2="764.92" y2="201.302" gradientUnits="userSpaceOnUse">
<stop stop-color="#91A6DF"/>
<stop offset="1" stop-color="#BECAEB"/>
</linearGradient>
<linearGradient id="paint68_linear" x1="816.988" y1="59.0353" x2="900.029" y2="44.9414" gradientUnits="userSpaceOnUse">
<stop stop-color="#140D3E"/>
<stop offset="1" stop-color="#686277"/>
</linearGradient>
<linearGradient id="paint69_linear" x1="844.303" y1="81.0466" x2="828.699" y2="89.5397" gradientUnits="userSpaceOnUse">
<stop stop-color="#E0A780"/>
<stop offset="1" stop-color="#E0A780" stop-opacity="0"/>
</linearGradient>
<linearGradient id="paint70_linear" x1="785.905" y1="199.07" x2="790.252" y2="302.109" gradientUnits="userSpaceOnUse">
<stop stop-color="#AAA1B9"/>
<stop offset="1" stop-color="#D3C5EA"/>
</linearGradient>
<linearGradient id="paint71_linear" x1="821.891" y1="278.378" x2="821.891" y2="761.068" gradientUnits="userSpaceOnUse">
<stop stop-color="#5352A1"/>
<stop offset="1" stop-color="#271B72"/>
</linearGradient>
<linearGradient id="paint72_linear" x1="821.891" y1="278.378" x2="821.891" y2="761.068" gradientUnits="userSpaceOnUse">
<stop stop-color="#5352A1"/>
<stop offset="1" stop-color="#271B72"/>
</linearGradient>
<linearGradient id="paint73_linear" x1="850.477" y1="402.859" x2="855.672" y2="773.171" gradientUnits="userSpaceOnUse">
<stop stop-color="#241A65"/>
<stop offset="1" stop-color="#31277C" stop-opacity="0.03"/>
</linearGradient>
<linearGradient id="paint74_linear" x1="783.956" y1="334.571" x2="842.47" y2="143.497" gradientUnits="userSpaceOnUse">
<stop stop-color="#BCADDA"/>
<stop offset="1" stop-color="#D9CAE5"/>
</linearGradient>
<linearGradient id="paint75_linear" x1="820.796" y1="91.2819" x2="820.796" y2="124.21" gradientUnits="userSpaceOnUse">
<stop stop-color="#B199C4"/>
<stop offset="1" stop-color="#DACBE6" stop-opacity="0.09"/>
</linearGradient>
<linearGradient id="paint76_linear" x1="801.263" y1="227.382" x2="787.775" y2="359.492" gradientUnits="userSpaceOnUse">
<stop stop-color="#AAA1B9"/>
<stop offset="1" stop-color="#D3C5EA"/>
</linearGradient>
<linearGradient id="paint77_linear" x1="869.387" y1="141.126" x2="704.051" y2="207.285" gradientUnits="userSpaceOnUse">
<stop offset="0.0127845" stop-color="white"/>
<stop offset="1" stop-color="#EAF0FF"/>
</linearGradient>
<linearGradient id="paint78_linear" x1="757.421" y1="300.289" x2="831.09" y2="292.591" gradientUnits="userSpaceOnUse">
<stop stop-color="#CCD4E9"/>
<stop offset="1" stop-color="#E3E8F6" stop-opacity="0"/>
</linearGradient>
<linearGradient id="paint79_linear" x1="706.261" y1="459.684" x2="743.523" y2="398.86" gradientUnits="userSpaceOnUse">
<stop stop-color="#D6E1FF"/>
<stop offset="1" stop-color="#E3E8F6" stop-opacity="0"/>
</linearGradient>
<linearGradient id="paint80_linear" x1="856.453" y1="97.7316" x2="853.331" y2="134.222" gradientUnits="userSpaceOnUse">
<stop stop-color="#212352"/>
<stop offset="1" stop-color="#4F5297"/>
</linearGradient>
<linearGradient id="paint81_linear" x1="791.435" y1="88.3675" x2="799.787" y2="114.728" gradientUnits="userSpaceOnUse">
<stop stop-color="#212352"/>
<stop offset="1" stop-color="#4F5297"/>
</linearGradient>
<linearGradient id="paint82_linear" x1="837.262" y1="180.832" x2="807.321" y2="124.792" gradientUnits="userSpaceOnUse">
<stop stop-color="#B8A0FC"/>
<stop offset="1" stop-color="#26285A"/>
</linearGradient>
<linearGradient id="paint83_linear" x1="835.155" y1="182.116" x2="800.875" y2="128.753" gradientUnits="userSpaceOnUse">
<stop stop-color="#B8A0FC"/>
<stop offset="1" stop-color="#26285A"/>
</linearGradient>
<linearGradient id="paint84_linear" x1="794.836" y1="86.2666" x2="802.519" y2="112.83" gradientUnits="userSpaceOnUse">
<stop stop-color="#212352"/>
<stop offset="1" stop-color="#4F5297"/>
</linearGradient>
<linearGradient id="paint85_linear" x1="838.31" y1="179.861" x2="809.795" y2="123.081" gradientUnits="userSpaceOnUse">
<stop stop-color="#B8A0FC"/>
<stop offset="1" stop-color="#26285A"/>
</linearGradient>
<linearGradient id="paint86_linear" x1="1.49929" y1="1.70176" x2="11.6319" y2="2.36302" gradientUnits="userSpaceOnUse">
<stop stop-color="#756AB2"/>
<stop offset="1" stop-color="#C4B3FF"/>
</linearGradient>
<linearGradient id="paint87_linear" x1="836.172" y1="181.089" x2="803.252" y2="126.877" gradientUnits="userSpaceOnUse">
<stop stop-color="#B8A0FC"/>
<stop offset="1" stop-color="#26285A"/>
</linearGradient>
<linearGradient id="paint88_linear" x1="1.63369" y1="1.77779" x2="12.6704" y2="2.52906" gradientUnits="userSpaceOnUse">
<stop stop-color="#756AB2"/>
<stop offset="1" stop-color="#C4B3FF"/>
</linearGradient>
<linearGradient id="paint89_linear" x1="784.983" y1="809.568" x2="770.096" y2="844.572" gradientUnits="userSpaceOnUse">
<stop offset="0.00433069" stop-color="#FFAAAA"/>
<stop offset="1" stop-color="#B0AFFF"/>
</linearGradient>
<linearGradient id="paint90_linear" x1="747.984" y1="762.297" x2="794.163" y2="859.39" gradientUnits="userSpaceOnUse">
<stop stop-color="#251C54"/>
<stop offset="1" stop-color="#02163C"/>
</linearGradient>
<linearGradient id="paint91_linear" x1="942.505" y1="756.533" x2="935.765" y2="793.951" gradientUnits="userSpaceOnUse">
<stop offset="0.00433069" stop-color="#FFAAAA"/>
<stop offset="1" stop-color="#B0AFFF"/>
</linearGradient>
<linearGradient id="paint92_linear" x1="896.354" y1="720.388" x2="963.156" y2="801.959" gradientUnits="userSpaceOnUse">
<stop stop-color="#251C54"/>
<stop offset="1" stop-color="#02163C"/>
</linearGradient>
<linearGradient id="paint93_linear" x1="920.5" y1="241.5" x2="947.5" y2="283" gradientUnits="userSpaceOnUse">
<stop stop-color="white"/>
<stop offset="1" stop-color="#CCF2FE"/>
</linearGradient>
<linearGradient id="paint94_linear" x1="930.99" y1="266.892" x2="923.466" y2="258.023" gradientUnits="userSpaceOnUse">
<stop stop-color="#34CDFA"/>
<stop offset="1" stop-color="#E8D9F1"/>
</linearGradient>
<linearGradient id="paint95_linear" x1="775.401" y1="116.115" x2="835.343" y2="218.217" gradientUnits="userSpaceOnUse">
<stop stop-color="white"/>
<stop offset="1" stop-color="#EAF0FF"/>
</linearGradient>
<linearGradient id="paint96_linear" x1="1026.94" y1="148.771" x2="1058.06" y2="117.617" gradientUnits="userSpaceOnUse">
<stop stop-color="#567FEA"/>
<stop offset="1" stop-color="#E8D9F1"/>
</linearGradient>
<linearGradient id="paint97_linear" x1="1007" y1="164" x2="1061.5" y2="168" gradientUnits="userSpaceOnUse">
<stop stop-color="#C79978" stop-opacity="0"/>
<stop offset="1" stop-color="#C57F4C"/>
</linearGradient>
<linearGradient id="paint98_linear" x1="1015" y1="164" x2="1049" y2="169" gradientUnits="userSpaceOnUse">
<stop stop-color="#BC8660"/>
<stop offset="1" stop-color="#BC8660" stop-opacity="0"/>
</linearGradient>
<linearGradient id="paint99_linear" x1="965.501" y1="490" x2="965.501" y2="544.412" gradientUnits="userSpaceOnUse">
<stop stop-color="#25275A"/>
<stop offset="1" stop-color="#3F2881"/>
</linearGradient>
<linearGradient id="paint100_linear" x1="641.118" y1="184.765" x2="753.115" y2="100.319" gradientUnits="userSpaceOnUse">
<stop stop-color="#5DD3E3"/>
<stop offset="1" stop-color="#77D99F" stop-opacity="0.41"/>
</linearGradient>
<linearGradient id="paint101_linear" x1="1277.71" y1="93.5882" x2="1348.44" y2="40.2543" gradientUnits="userSpaceOnUse">
<stop stop-color="#5D80E3"/>
<stop offset="1" stop-color="#77D9D3" stop-opacity="0.41"/>
</linearGradient>
</defs>
</svg>
