<svg width="1353" height="846" viewBox="0 0 1353 846" fill="none" xmlns="http://www.w3.org/2000/svg">
<g opacity="0.3">
<rect x="30.4572" y="441" width="21.0857" height="82" rx="10.5429" fill="#567FEA"/>
<rect y="492.543" width="21.0857" height="82" rx="10.5429" transform="rotate(-90 0 492.543)" fill="#567FEA"/>
</g>
<path opacity="0.2" d="M360.173 714.312C600.296 651.992 1174.18 667.859 1301.65 677.323C1381.87 690.283 1323.66 701.071 1284.53 704.844C1198.43 718.256 1482.38 738.589 1666.1 753.381C1844.14 759.462 1775.37 773.296 1718.73 779.453C1202.8 811.911 570.77 809.038 411.418 797.633C237.741 780.458 300.684 731.018 360.173 714.312Z" fill="url(#paint0_linear)"/>
<rect opacity="0.6" x="976" y="224" width="341" height="248" rx="34.8684" fill="url(#paint1_linear)"/>
<rect opacity="0.2" x="757" y="55" width="381" height="321" rx="35" fill="url(#paint2_linear)"/>
<g filter="url(#filter0_d)">
<rect x="742" y="40" width="381" height="321" rx="30" fill="url(#paint3_linear)"/>
</g>
<path d="M993.752 187.101C989.428 186.236 984.888 185.804 980.564 185.804C976.888 186.02 974.51 186.02 971.483 183.425C970.402 182.561 969.538 181.696 968.673 180.831L968.889 180.615C972.564 179.75 976.024 178.453 979.699 179.101C984.023 179.534 988.347 179.101 992.455 177.804C994.401 177.156 993.536 174.129 991.59 174.561C990.077 174.994 988.563 175.426 986.834 175.642C985.32 175.858 983.807 176.075 982.293 176.075C980.78 176.075 979.05 175.21 977.537 175.21C974.943 175.21 971.916 176.291 969.105 177.156C969.97 175.858 970.835 174.561 971.7 173.264C975.375 167.427 978.402 163.535 984.455 160.508C986.401 159.643 984.672 156.833 982.726 157.698C977.753 160.076 973.645 163.319 970.835 168.075C968.889 171.102 967.159 174.345 964.781 177.156C956.998 177.156 954.404 177.156 949.647 177.156C949.647 162.886 949.647 148.833 949.647 134.564C949.647 127.43 949.647 120.295 949.647 113.377C949.647 107.107 929.973 106.891 929.973 113.377C929.973 136.078 929.973 158.995 929.973 181.696C919.379 181.696 909.002 181.696 898.408 181.696C896.03 178.885 894.3 175.642 892.354 172.615C889.544 167.859 885.436 164.616 880.463 162.238C878.518 161.373 877.004 164.184 878.734 165.048C885.004 168.291 888.03 172.183 891.49 177.804C892.354 179.101 893.219 180.399 894.084 181.696C891.273 180.831 888.247 179.75 885.652 179.75C884.139 179.75 882.409 180.615 880.896 180.615C879.382 180.615 877.869 180.399 876.356 180.182C874.842 179.966 873.113 179.534 871.599 179.101C869.654 178.453 868.789 181.696 870.735 182.344C874.842 183.642 879.166 184.074 883.49 183.642C887.166 183.209 890.625 184.29 894.3 185.155C894.3 185.155 894.3 185.371 894.516 185.371C893.652 186.236 892.787 187.101 891.706 187.966C888.679 190.344 886.301 190.344 882.625 190.344C878.302 190.128 873.761 190.776 869.437 191.641C867.275 192.073 868.14 195.1 870.302 194.884C872.897 194.452 875.491 194.019 878.302 193.803C881.112 193.587 884.139 194.235 886.949 194.019C891.273 193.587 894.949 190.128 897.543 187.101C897.759 186.885 897.759 186.885 897.759 186.668C908.353 186.668 918.947 186.668 929.757 186.668C929.757 212.612 929.757 238.772 929.757 264.716C929.757 271.851 929.757 278.986 929.757 285.904C929.757 292.39 949.431 292.39 949.431 285.904C949.431 251.312 949.431 216.72 949.431 181.912C954.404 181.912 956.998 181.912 964.997 181.912C964.997 182.128 965.214 182.128 965.214 182.344C967.808 185.371 971.7 188.83 975.807 189.263C978.618 189.479 981.645 188.83 984.455 189.047C987.05 189.263 989.86 189.479 992.455 190.128C994.833 190.56 995.698 187.533 993.752 187.101Z" fill="url(#paint4_linear)"/>
<g opacity="0.2">
<path opacity="0.2" d="M943.161 117.701C943.161 165.265 943.161 213.045 943.161 260.609C943.161 267.311 943.161 274.229 943.161 280.931C943.161 283.093 946.404 283.093 946.404 280.931C946.404 233.368 946.404 185.587 946.404 138.024C946.404 131.321 946.404 124.403 946.404 117.701C946.404 115.539 943.161 115.539 943.161 117.701Z" fill="white"/>
</g>
<path d="M994.545 173.534C991.951 173.967 989.357 174.399 986.546 174.615C983.735 174.832 980.709 174.183 977.898 174.399C973.574 174.832 969.899 178.291 967.304 181.318C967.088 181.534 967.088 181.534 967.088 181.75C957.792 181.75 942.874 181.75 931.631 181.75C931.631 165.967 931.631 149.969 931.631 134.186C931.631 127.052 931.631 119.917 931.631 112.999C931.631 106.729 911.957 106.513 911.957 112.999C911.957 139.375 911.957 165.535 911.957 191.911C906.768 191.911 912.822 191.911 903.309 191.911C903.309 191.695 903.093 191.695 903.093 191.479C900.499 188.452 896.607 184.993 892.499 184.561C889.689 184.344 886.662 184.993 883.851 184.777C881.257 184.561 878.446 184.344 875.852 183.696C873.69 183.263 872.825 186.506 874.987 186.939C879.311 187.804 883.851 188.236 888.175 188.236C891.851 188.02 894.229 188.02 897.256 190.614C898.337 191.479 899.201 192.344 900.066 193.209L899.85 193.425C896.175 194.29 892.716 195.587 889.04 194.938C884.716 194.506 880.392 194.938 876.284 196.235C874.339 196.884 875.203 199.911 877.149 199.478C878.663 199.046 880.176 198.614 881.906 198.397C883.419 198.181 884.932 197.965 886.446 197.965C887.959 197.965 889.689 198.83 891.202 198.83C893.797 198.83 896.823 197.749 899.634 196.884C898.769 198.181 897.904 199.478 897.04 200.776C893.364 206.613 890.337 210.505 884.284 213.531C882.338 214.396 884.068 217.207 886.013 216.342C890.986 213.964 895.094 210.721 897.904 205.964C899.85 202.938 901.58 199.695 903.958 196.884C913.471 196.884 907.201 196.884 912.39 196.884C912.39 219.369 912.39 241.853 912.39 264.554C912.39 271.689 912.39 278.824 912.39 285.742C912.39 292.228 932.064 292.228 932.064 285.742C932.064 252.88 932.064 219.801 932.064 186.939C943.09 186.939 958.008 186.939 967.088 186.939C969.466 189.749 971.196 192.992 973.142 196.019C975.952 200.776 980.06 204.019 985.033 206.397C986.978 207.262 988.492 204.451 986.762 203.586C980.493 200.343 977.466 196.452 974.007 190.83C973.142 189.533 972.277 188.236 971.412 186.939C974.223 187.804 977.25 188.885 979.844 188.885C981.357 188.885 983.087 188.02 984.6 188.02C986.114 188.02 987.627 188.236 989.14 188.452C990.654 188.668 992.383 189.101 993.897 189.533C995.843 190.182 996.707 186.939 994.762 186.29C990.654 184.993 986.33 184.561 982.006 184.993C978.331 185.425 974.871 184.344 971.196 183.48C971.196 183.48 971.196 183.263 970.98 183.263C971.845 182.399 972.709 181.534 973.79 180.669C976.817 178.291 979.195 178.291 982.871 178.291C987.195 178.507 991.735 177.858 996.059 176.994C997.356 176.129 996.491 173.102 994.545 173.534Z" fill="url(#paint5_linear)"/>
<g opacity="0.2">
<path opacity="0.2" d="M924.136 117.701C924.136 165.265 924.136 213.045 924.136 260.609C924.136 267.311 924.136 274.23 924.136 280.932C924.136 283.094 927.379 283.094 927.379 280.932C927.379 233.368 927.379 185.588 927.379 138.024C927.379 131.322 927.379 124.403 927.379 117.701C927.379 115.539 924.136 115.539 924.136 117.701Z" fill="white"/>
</g>
<path d="M909.002 290.66C909.002 267.527 909.218 244.393 909.002 221.26C908.786 196.829 895.814 175.642 872.248 167.21C867.275 165.48 865.113 173.264 870.086 174.993C893.219 183.209 901.002 203.748 901.002 226.232C901.002 247.636 901.002 269.04 901.002 290.444C901.002 295.849 909.002 295.849 909.002 290.66Z" fill="url(#paint6_linear)"/>
<path d="M963.052 290.66C963.052 269.257 963.052 247.853 963.052 226.449C963.052 203.964 970.835 183.425 993.968 175.21C998.941 173.48 996.779 165.697 991.806 167.427C968.24 175.858 955.269 196.83 955.052 221.476C954.836 244.61 955.052 267.743 955.052 290.876C954.836 295.849 963.052 295.849 963.052 290.66Z" fill="url(#paint7_linear)"/>
<path d="M845.007 107.972C859.06 102.35 885.22 107.972 892.571 133.051C898.84 154.454 883.274 161.373 877.653 166.778C871.816 172.615 870.518 194.451 879.383 198.343C888.247 202.235 900.138 214.774 898.624 231.421C897.111 248.069 886.95 266.23 855.601 261.041C824.468 255.852 804.361 214.558 804.361 187.533C804.361 160.508 819.495 118.565 845.007 107.972Z" fill="url(#paint8_linear)"/>
<path d="M867.059 191.64C867.059 191.64 866.627 191.64 865.978 191.857C865.33 191.857 864.249 192.073 863.168 192.289C862.087 192.505 860.789 192.721 859.276 192.938C858.627 193.154 857.763 193.154 857.114 193.37C856.465 193.586 855.601 193.802 854.952 193.802C854.303 194.019 853.439 194.235 852.79 194.451C852.141 194.667 851.277 194.883 850.628 195.1C849.979 195.316 849.331 195.532 848.682 195.748C848.034 195.964 847.385 196.181 846.953 196.397C846.304 196.613 845.872 196.613 845.439 196.829C845.007 197.045 844.574 197.045 844.142 197.262C843.493 197.478 843.061 197.478 843.061 197.478C843.061 197.478 843.277 197.045 843.71 196.613C844.142 195.964 844.791 195.316 845.872 194.451C846.304 194.019 846.953 193.586 847.385 193.154C848.034 192.721 848.682 192.289 849.331 192.073C849.979 191.64 850.844 191.424 851.493 190.992C852.358 190.776 853.006 190.559 853.871 190.343C854.736 190.127 855.601 189.911 856.465 189.911C857.33 189.911 858.195 189.695 858.844 189.695C860.357 189.695 861.87 189.911 863.168 190.343C863.816 190.559 864.249 190.776 864.897 190.992C865.33 191.208 865.762 191.424 866.194 191.64C866.627 191.208 867.059 191.64 867.059 191.64Z" fill="#D27C7C"/>
<path d="M866.843 168.291C866.843 168.291 866.411 168.291 865.762 168.075C865.113 167.859 864.032 167.643 862.951 167.426C861.87 167.21 860.573 166.994 859.06 166.778C858.411 166.562 857.546 166.562 856.898 166.562C856.249 166.562 855.384 166.345 854.736 166.345C854.087 166.345 853.222 166.345 852.574 166.129C851.925 166.129 851.06 166.129 850.412 166.129C849.763 166.129 848.898 166.129 848.25 166.129C847.601 166.129 846.953 166.129 846.304 166.129C845.655 166.129 845.223 166.129 844.574 166.129C844.142 166.129 843.71 166.129 843.277 166.129C842.629 166.129 842.196 166.129 842.196 166.129C842.196 166.129 842.629 165.913 843.061 165.481C843.71 165.048 844.574 164.616 845.872 164.183C846.52 163.967 847.169 163.751 847.817 163.535C848.466 163.319 849.331 163.102 849.979 163.102C850.844 163.102 851.493 162.886 852.358 162.886C853.222 162.886 854.087 162.886 854.952 162.886C855.817 163.102 856.682 163.102 857.546 163.319C858.411 163.535 859.276 163.751 859.925 163.967C861.438 164.4 862.735 165.264 863.816 165.913C864.249 166.345 864.897 166.562 865.113 166.994C865.546 167.21 865.762 167.643 865.978 167.859C866.627 168.075 866.843 168.291 866.843 168.291Z" fill="#D27C7C"/>
<path d="M831.652 126.118C790.811 164.721 809.273 250.878 851.793 254.235C821.022 225.143 802 181.505 831.652 126.118Z" fill="url(#paint9_linear)"/>
<path d="M1020.35 107.972C1006.3 102.35 980.141 107.972 972.791 133.051C966.521 154.454 982.087 161.373 987.708 166.778C993.546 172.615 994.843 194.451 985.979 198.343C977.115 202.235 965.224 214.774 966.737 231.421C968.25 248.069 978.412 266.23 1009.76 261.041C1040.89 255.852 1061 214.558 1061 187.533C1061 160.508 1045.87 118.565 1020.35 107.972Z" fill="url(#paint10_linear)"/>
<path d="M998.302 191.64C998.302 191.64 998.735 191.64 999.383 191.857C1000.03 191.857 1001.11 192.073 1002.19 192.289C1003.27 192.505 1004.57 192.721 1006.09 192.938C1006.73 193.154 1007.6 193.154 1008.25 193.37C1008.9 193.586 1009.76 193.802 1010.41 193.802C1011.06 194.019 1011.92 194.235 1012.57 194.451C1013.22 194.667 1014.08 194.883 1014.73 195.1C1015.38 195.316 1016.03 195.532 1016.68 195.748C1017.33 195.964 1017.98 196.181 1018.41 196.397C1019.06 196.613 1019.49 196.613 1019.92 196.829C1020.35 197.045 1020.79 197.045 1021.22 197.262C1021.87 197.478 1022.3 197.478 1022.3 197.478C1022.3 197.478 1022.08 197.045 1021.65 196.613C1021.22 195.964 1020.57 195.316 1019.49 194.451C1019.06 194.019 1018.41 193.586 1017.98 193.154C1017.33 192.721 1016.68 192.289 1016.03 192.073C1015.38 191.64 1014.52 191.424 1013.87 190.992C1013 190.776 1012.36 190.559 1011.49 190.343C1010.63 190.127 1009.76 189.911 1008.9 189.911C1008.03 189.911 1007.17 189.695 1006.52 189.695C1005 189.695 1003.49 189.911 1002.19 190.343C1001.55 190.559 1001.11 190.776 1000.46 190.992C1000.03 191.208 999.599 191.424 999.167 191.64C998.735 191.208 998.302 191.64 998.302 191.64Z" fill="#D27C7C"/>
<path d="M998.518 168.291C998.518 168.291 998.951 168.291 999.599 168.075C1000.25 167.859 1001.33 167.643 1002.41 167.426C1003.49 167.21 1004.79 166.994 1006.3 166.778C1006.95 166.562 1007.81 166.562 1008.46 166.562C1009.11 166.562 1009.98 166.345 1010.63 166.345C1011.27 166.345 1012.14 166.345 1012.79 166.129C1013.44 166.129 1014.3 166.129 1014.95 166.129C1015.6 166.129 1016.46 166.129 1017.11 166.129C1017.76 166.129 1018.41 166.129 1019.06 166.129C1019.71 166.129 1020.14 166.129 1020.79 166.129C1021.22 166.129 1021.65 166.129 1022.08 166.129C1022.73 166.129 1023.17 166.129 1023.17 166.129C1023.17 166.129 1022.73 165.913 1022.3 165.481C1021.65 165.048 1020.79 164.616 1019.49 164.183C1018.84 163.967 1018.19 163.751 1017.54 163.535C1016.9 163.319 1016.03 163.102 1015.38 163.102C1014.52 163.102 1013.87 162.886 1013 162.886C1012.14 162.886 1011.27 162.886 1010.41 162.886C1009.54 163.102 1008.68 163.102 1007.81 163.319C1006.95 163.535 1006.09 163.751 1005.44 163.967C1003.92 164.4 1002.63 165.264 1001.55 165.913C1001.11 166.345 1000.46 166.562 1000.25 166.994C999.816 167.21 999.599 167.643 999.383 167.859C998.735 168.075 998.518 168.291 998.518 168.291Z" fill="#D27C7C"/>
<path d="M1033.71 126.118C1074.55 164.721 1056.09 250.878 1013.57 254.235C1044.34 225.143 1063.36 181.505 1033.71 126.118Z" fill="url(#paint11_linear)"/>
<path opacity="0.7" d="M1102.5 323.5C1095.3 317.9 1078.5 285.167 1071 269.5L1122.5 305V330C1118.83 330.167 1109.7 329.1 1102.5 323.5Z" fill="url(#paint12_linear)"/>
<path d="M740.044 748.147C705.627 696.522 628.897 591.448 597.314 584.16C575.044 583.147 525.038 614.528 503.173 748.147" stroke="url(#paint13_linear)" stroke-width="6" stroke-linecap="round"/>
<path d="M791.67 714.743C762.548 670.772 697.622 581.277 670.898 575.07C652.054 574.207 609.741 600.935 591.24 714.743" stroke="url(#paint14_linear)" stroke-width="6" stroke-linecap="round"/>
<path d="M503.173 447.503C500.892 423.082 529.499 420.172 545.688 420.172C703.677 420.172 745.105 501.154 746.118 538.608C726.545 631.172 699.292 547.781 675.87 515.174C644.766 471.872 580.667 467.726 548.725 465.724C510.593 463.334 503.864 454.908 503.173 447.503Z" fill="url(#paint15_linear)"/>
<path d="M668.259 257.691C667.142 253.324 665.03 243.839 664.113 239.642C641.302 214.857 620.41 234.612 612.815 247.587C605.93 259.756 612.883 273.166 617.22 278.35L610.5 295.509C617.061 314.929 629.697 311.584 639.148 312.486C645.954 312.765 649.341 304.262 650.331 299.07C648.144 297.773 644.51 295.846 643.416 295.197C642.243 294.501 644.845 289.835 645.682 288.251C673.064 298.513 672.142 272.153 668.259 257.691Z" fill="#F3BB93"/>
<path d="M672.551 266.344C672.174 265.671 669.063 261.113 667.554 258.918L667.926 268.94C672.529 267.684 672.927 266.686 672.551 266.344Z" fill="#F3BB93"/>
<path fill-rule="evenodd" clip-rule="evenodd" d="M645.677 288.261C643.247 287.27 640.767 285.994 638.427 284.366C635.368 282.237 629.536 280.178 641.594 304.366C642.081 304.311 645.968 302.306 650.274 299.361C650.294 299.263 650.313 299.166 650.331 299.07C649.05 298.31 647.272 297.334 645.8 296.526C644.758 295.954 643.869 295.466 643.416 295.197C642.323 294.549 644.507 290.454 645.488 288.617C645.557 288.486 645.621 288.366 645.677 288.261Z" fill="url(#paint16_linear)"/>
<path d="M661.914 255.172C662.941 255.496 662.792 256.305 662.137 257.067C661.582 257.711 660.512 257.092 660.45 256.321C660.337 254.922 661.341 254.753 662.286 255.154C662.804 255.373 662.31 256.441 662.111 256.71C661.554 257.46 660.298 256.662 661.056 256.063C661.498 255.713 662.388 256.037 661.813 256.631C661.572 256.879 661.322 256.38 661.472 256.183C661.608 256.005 661.828 256.128 661.858 256.288" stroke="black" stroke-width="0.946314" stroke-linecap="round" stroke-linejoin="round"/>
<path d="M661.762 252.111C659.922 252.086 658.168 252.288 656.517 253.224C655.778 253.643 654.893 254.156 654.41 254.893" stroke="black" stroke-width="0.946314" stroke-linecap="round" stroke-linejoin="round"/>
<path d="M665.382 275.41C663.872 275.685 662.786 275.39 661.504 274.528C660.707 273.993 659.742 273.134 659.263 272.261" stroke="black" stroke-width="0.946314" stroke-linecap="round" stroke-linejoin="round"/>
<path d="M710.077 506.696L712.75 502.58C711.825 501.473 705.955 499.326 703.135 498.391L710.077 506.696Z" fill="#616E91"/>
<path d="M825.378 734.644C826.177 730.124 824.605 722.48 824.089 718.622C831.478 718.302 840.778 718.378 846.002 715.763C847.079 718.566 883.059 735.214 890.634 739.378C898.209 743.541 903.908 749.421 901.149 749.781C879.861 753.294 834.996 748.844 828.304 746.037C821.612 743.23 824.578 739.164 825.378 734.644Z" fill="url(#paint17_linear)"/>
<path d="M782.693 739.277C783.097 734.449 782.375 727.093 782.004 723.218C789.4 723.175 798.691 723.598 804.009 721.18C804.98 724.022 840.313 742.002 847.728 746.445C855.142 750.888 860.617 756.977 857.846 757.234C836.442 759.949 791.774 753.826 785.192 750.772C780.95 748.201 782.289 744.106 782.693 739.277Z" fill="url(#paint18_linear)"/>
<path d="M815.865 729.068L804.009 721.18C801.267 722.392 797.034 722.784 794.49 723.02C800.644 731.12 812.843 731.457 815.865 729.068Z" fill="#E6C2A7"/>
<path d="M858.144 723.202L846.002 715.763C843.307 717.077 839.092 717.626 836.558 717.957C843.011 725.821 855.214 725.703 858.144 723.202Z" fill="#E6C2A7"/>
<path d="M821.247 721.755L784.926 586.331L675.872 506.234L697.504 484.806L797.898 537.557C816.118 548.729 819.171 556.236 821.247 564.019L849.784 715.009L821.247 721.755Z" fill="url(#paint19_linear)"/>
<path d="M781.714 725.552C781.714 725.552 762.096 589.819 754.832 584.255C706.059 546.897 611.625 498.124 611.625 498.124L698.69 482.361L784.26 539.638C802.02 551.527 806.641 563.577 806.731 568.116L809.142 722.032L781.714 725.552Z" fill="url(#paint20_linear)"/>
<path d="M742.152 395.346C747.405 391.53 761.349 385.184 777.942 387.119C787.912 388.144 800.87 390.176 783.46 391.787C789.084 391.698 795.415 392.859 796.655 396.33C797.64 403.217 794.15 405.215 776.637 406.079L782.183 408.357C784.249 409.205 786.884 411.763 773.916 409.918C771.427 409.564 764.874 409.281 762.403 410.097C753.81 411.524 747.543 410.628 742.356 410.632L742.152 395.346Z" fill="#E7C2A7"/>
<g filter="url(#filter1_d)">
<path d="M803.046 368.601C797.846 364.601 777.879 357.935 768.546 355.101C766.351 354.435 766.554 357.089 765.546 362.101C763.046 374.528 753.712 413.601 748.046 432.601C755.246 434.601 775.379 451.101 784.546 459.101C797.346 444.701 803.879 397.435 805.546 375.601C806.346 371.601 804.212 369.268 803.046 368.601Z" fill="url(#paint21_linear)"/>
</g>
<path opacity="0.7" d="M752.5 416.5C752.5 416.487 752.504 416.469 752.513 416.448L758.5 392.5C759.833 391.833 764.7 390 775.5 390C776.487 393.453 753.142 414.911 752.513 416.448L752.5 416.5Z" fill="url(#paint22_linear)"/>
<g opacity="0.4">
<path d="M777.735 414.977C776.921 417.012 774.72 418.029 772.821 417.251C770.922 416.474 770.043 414.194 770.857 412.159L776.754 397.42C777.569 395.384 779.768 394.363 781.667 395.141C783.566 395.919 784.446 398.202 783.632 400.237L777.735 414.977Z" fill="#2DC8AC"/>
<path d="M788.324 410.728C787.565 412.622 785.299 413.484 783.256 412.648L768.481 406.601C766.441 405.766 765.401 403.551 766.16 401.657C766.918 399.763 769.189 398.905 771.229 399.74L786.004 405.787C788.047 406.623 789.082 408.834 788.324 410.728Z" fill="#4CE1C6"/>
</g>
<path d="M774.912 388.925C766.07 387.428 755.318 389.901 751.048 391.325L755.085 400.99C757.756 401.172 762.871 397.197 765.094 395.187C777.017 392.153 776.607 389.748 774.912 388.925Z" fill="#E7C2A7"/>
<path d="M665.789 323.612C663.984 311.076 663.341 308.996 659.046 303.672C645.87 326.247 632.866 325.737 633.099 354.509L665.678 415.362C671.411 424.428 681.987 424.857 686.559 423.938L747.599 417.362C742.943 410.874 742.346 399.825 742.629 395.112L691.086 389.677C683.248 383.755 670.091 353.486 665.789 323.612Z" fill="url(#paint23_linear)"/>
<path d="M676 412C670.4 408.4 663.667 369.5 661 348C661 365.5 661.6 401.4 664 411C666.4 420.6 676.667 424.5 681.5 424.5L714.5 421C703.833 420.5 680.667 415 676 412Z" fill="url(#paint24_linear)"/>
<path d="M641.734 305.423C631.13 307.96 616.91 300.59 609.297 294.871C609.461 297.97 580.951 308.287 573.88 324.918C566.809 341.55 550.207 443.055 582.89 495.681C635.074 471.249 676.338 467.749 690.238 470.99C673.601 449.838 667.83 428.661 666.685 413.652C665.51 391.392 662.327 359.532 661.578 345.326C661.578 326.672 663.389 305.423 658.046 302.672C651.869 299.493 648.052 296.888 645.942 296.168C644.713 304.992 644.057 304.829 641.734 305.423Z" fill="url(#paint25_linear)"/>
<path opacity="0.7" d="M654 417.5C644.732 415.316 614.586 415.901 600 416.316C608.582 418.744 603.581 424.425 600.008 426.962C612.019 425.616 631.324 425.369 639.475 425.414C663.5 425.414 659.865 419.879 654 417.5Z" fill="url(#paint26_linear)"/>
<path d="M645.925 309.537C644.955 313.057 639.832 312.749 637.392 312.155L641.393 305.802L645.925 309.537Z" fill="#ECF1FF"/>
<path d="M637.546 326.172L607.046 297.172L611.846 293.631L641.772 306.143L646.046 296.172L652.546 319.172L641.829 307.224L637.546 326.172Z" fill="url(#paint27_linear)"/>
<path d="M641.401 305.956L611.449 292.207L607.615 295.61L636.314 317.632L641.401 305.956Z" fill="white"/>
<path d="M641.403 306.007L643.122 294.872L646.04 294.718L647.461 311.262L641.403 306.007Z" fill="white"/>
<path d="M654.183 470.89C645.798 442.067 600.204 428.881 603.824 408.457C598.04 393.741 582.091 380.828 575.046 361.172C577.546 398.172 593.046 446.672 619.546 484.172C619.546 484.172 629.008 477.726 654.183 470.89Z" fill="url(#paint28_linear)"/>
<path d="M644.352 242.605C655.001 248.631 664.471 245.718 667.218 244.853C670.737 216.287 638.463 216.215 624.213 219.862C603.983 224.419 597.726 242.976 597.127 251.684C597.973 271.683 610.394 281.763 616.498 284.303L625.733 277.025C614.82 264.699 620.836 262.785 625.209 263.369C628.344 263.787 630.405 262.482 629.951 258.855C630.345 238.631 639.716 239.595 644.352 242.605Z" fill="url(#paint29_linear)"/>
<path d="M675.513 478.062C670.22 480.437 667.255 480.587 666.434 480.366C665.928 478.326 669.999 474.017 672.098 472.118L675.513 478.062Z" fill="#B9C9F2"/>
<path d="M674.608 463.669C676.814 465.384 683.074 469.625 690.466 472.862C693.926 474.4 701.686 477.806 705.049 479.128C706.231 479.533 709.35 481.375 712.37 485.498C714.784 488.992 716.889 496.338 717.389 500.606C717.478 502.136 714.079 501.421 712.676 493.301C712.827 495.552 711.457 499.387 707.243 500.647C707.581 501.944 707.118 503.403 702.558 498.864C700.673 497.235 696.071 493.804 692.745 493.112C687.216 492.221 674.838 487.292 669.559 474.705L674.608 463.669Z" fill="#E7C2A7"/>
<path d="M681.95 474.78C683.057 473.811 683.94 471.001 684.086 469.807C683.799 469.307 681.084 468.203 680.232 467.445L670.228 476.105C674.291 483.757 681.671 489.504 685.792 490.882C677.231 485.397 674.877 480.092 674.708 478.109C677.535 477.816 680.61 475.827 681.95 474.78Z" fill="url(#paint30_linear)"/>
<path d="M679.341 464.808C675.692 460.722 669.69 453.675 667.146 450.662C653.19 431.117 635.841 419.007 624.329 400.087C620.605 379.447 602.219 308.484 589.182 312.818C569.499 319.362 564.616 359.678 598.63 425.477C603.436 429.875 643.365 466.706 666.822 480.543L679.973 472.988C684.095 469.968 681.014 466.971 679.341 464.808Z" fill="url(#paint31_linear)"/>
<path d="M678.387 474.119C674.392 474.33 623.949 441.943 599.227 425.723C601.792 428.792 634.025 458.936 666.72 480.743C669.628 478.921 676.032 475.045 678.387 474.119Z" fill="url(#paint32_linear)"/>
<path d="M700.422 483.819C703.314 485.548 709.145 490.93 709.338 498.629C709.811 494.968 708.689 486.88 700.422 483.819Z" fill="#C79978"/>
<path d="M710.183 485.941C710.858 487.587 712.225 491.194 712.298 492.454C712.543 491.229 712.463 488.21 710.183 485.941Z" fill="#C79978"/>
<path d="M695.269 487.595C697.763 487.924 703.615 490.935 707.067 500.341C705.134 496.977 700.069 489.718 695.269 487.595Z" fill="#C79978"/>
<path d="M685.823 542.746L660.917 512.652L742.379 556.755C767.25 569.429 772.861 575.102 773.51 583.996L793.259 723.512L781.643 725.002C781.643 725.002 763.134 597.746 755.87 585.812C748.606 573.878 693.465 547.669 685.823 542.746Z" fill="url(#paint33_linear)"/>
<path d="M594.277 596.307C521.394 586.589 501.918 490.415 503.046 444.172C503.046 442.172 503.546 434.672 509.046 430.172C510.546 436.672 515.815 437.86 523.546 438.672C615.07 448.29 700.813 526.159 731.045 566.172C746.045 596.307 648.545 606.672 594.277 596.307Z" fill="url(#paint34_linear)"/>
<rect x="294" y="54" width="10" height="38" rx="5" fill="#4CE1C6"/>
<rect x="280" y="78" width="10" height="38" rx="5" transform="rotate(-90 280 78)" fill="#4CE1C6"/>
<path opacity="0.7" d="M1113.49 589.648C1102.52 631.473 1112.01 642.65 1118.12 643.011C1142.35 654.635 1155.11 623.959 1158.46 607.169C1166.97 558.971 1154.83 508.798 1147.7 489.737L1126.61 535.21L1136.57 546.416L1126.28 540.854L1113.49 589.648Z" fill="url(#paint35_linear)"/>
<path fill-rule="evenodd" clip-rule="evenodd" d="M1149.43 508.72C1149.46 508.169 1149.03 507.7 1148.48 507.672C1147.93 507.645 1147.46 508.07 1147.44 508.621C1147.01 517.118 1146.22 528.372 1145.03 540.944L1145.02 540.939L1145.01 540.922L1144.99 540.906L1144.98 540.889L1144.96 540.872L1144.95 540.855L1144.93 540.838L1144.92 540.821L1144.9 540.804L1144.89 540.787L1144.87 540.77L1144.86 540.753L1144.84 540.736L1144.83 540.719L1144.81 540.701L1144.79 540.684L1144.78 540.667L1144.76 540.65L1144.75 540.633L1144.73 540.615L1144.72 540.598L1144.7 540.581L1144.69 540.563L1144.67 540.546L1144.66 540.529L1144.64 540.511L1144.63 540.494L1144.61 540.476L1144.59 540.459L1144.58 540.442L1144.56 540.424L1144.55 540.407L1144.53 540.389L1144.52 540.371L1144.5 540.354L1144.49 540.336L1144.47 540.319L1144.45 540.301L1144.44 540.283L1144.42 540.266L1144.41 540.248L1144.39 540.23L1144.38 540.213L1144.36 540.195L1144.34 540.177L1144.33 540.159L1144.31 540.142L1144.3 540.124L1144.28 540.106L1144.27 540.088L1144.25 540.07L1144.23 540.053L1144.22 540.035L1144.2 540.017L1144.19 539.999L1144.17 539.981L1144.15 539.963L1144.14 539.945L1144.12 539.927L1144.11 539.909L1144.09 539.892L1144.07 539.874L1144.06 539.856L1144.04 539.838L1144.03 539.82L1144.01 539.802L1143.99 539.784L1143.98 539.766L1143.96 539.748L1143.95 539.73L1143.93 539.711L1143.91 539.693L1143.9 539.675L1143.88 539.657L1143.87 539.639L1143.85 539.621L1143.83 539.603L1143.82 539.585L1143.8 539.567L1143.79 539.549L1143.77 539.531L1143.75 539.513L1143.74 539.494L1143.72 539.476L1143.71 539.458L1143.69 539.44L1143.67 539.422L1143.66 539.404L1143.64 539.386L1143.62 539.368L1143.61 539.349L1143.59 539.331L1143.58 539.313L1143.56 539.295L1143.54 539.277L1143.53 539.259L1143.51 539.24L1143.5 539.222L1143.48 539.204L1143.46 539.186L1143.45 539.168L1143.43 539.15L1143.42 539.132L1143.4 539.113L1143.38 539.095L1143.37 539.077L1143.35 539.059L1143.33 539.041L1143.32 539.023L1143.3 539.005L1143.29 538.986L1143.27 538.968L1143.25 538.95L1143.24 538.932L1143.22 538.914L1143.21 538.896L1143.19 538.878L1143.17 538.86L1143.16 538.842L1143.14 538.823L1143.13 538.805L1143.11 538.787L1143.09 538.769L1143.08 538.751L1143.06 538.733L1143.05 538.715L1143.03 538.697L1143.01 538.679L1143 538.661L1142.98 538.643L1142.97 538.625L1142.95 538.607L1142.93 538.589L1142.92 538.571L1142.9 538.553L1142.89 538.535L1142.87 538.517L1142.85 538.499L1142.84 538.481L1142.82 538.463L1142.81 538.445L1142.79 538.427L1142.77 538.41L1142.76 538.392L1142.74 538.374L1142.73 538.356L1142.71 538.338L1142.69 538.32L1142.68 538.303L1142.66 538.285L1142.65 538.267L1142.63 538.249L1142.62 538.232L1142.6 538.214L1142.58 538.196L1142.57 538.178L1142.55 538.161L1142.54 538.143L1142.52 538.125L1142.51 538.108L1142.49 538.09L1142.47 538.073L1142.46 538.055L1142.44 538.037L1142.43 538.02L1142.41 538.002L1142.4 537.985L1142.38 537.967L1142.37 537.95L1142.35 537.933L1142.33 537.915L1142.32 537.898L1142.3 537.88L1142.29 537.863L1142.27 537.846L1142.26 537.828L1142.24 537.811L1142.23 537.794L1142.21 537.777L1142.2 537.759L1142.18 537.742L1142.17 537.725L1142.15 537.708L1142.14 537.691L1142.12 537.674L1142.1 537.657L1142.09 537.639L1142.07 537.622L1142.06 537.605L1142.04 537.588L1142.03 537.572L1142.01 537.555L1142 537.538L1141.98 537.521L1141.97 537.504L1141.95 537.487L1141.94 537.47L1141.92 537.454L1141.91 537.437L1141.89 537.42L1141.88 537.404L1141.87 537.387L1141.85 537.37L1141.84 537.354L1141.82 537.337L1141.81 537.321L1141.79 537.304L1141.78 537.288L1141.76 537.271L1141.75 537.255L1141.73 537.238L1141.72 537.222L1141.7 537.206L1141.69 537.189L1141.68 537.173L1141.66 537.157L1141.65 537.141L1141.63 537.125L1141.62 537.109L1141.6 537.093L1141.59 537.076L1141.58 537.06L1141.56 537.045L1141.55 537.029L1141.53 537.013L1141.52 536.997L1141.5 536.981L1141.49 536.965L1141.48 536.949L1141.46 536.934L1141.45 536.918L1141.43 536.902L1141.42 536.887L1141.41 536.871L1141.39 536.856L1141.38 536.84L1141.37 536.825L1141.35 536.809L1141.34 536.794L1141.32 536.779L1141.31 536.763L1141.3 536.748L1141.28 536.733L1141.27 536.718L1141.26 536.703L1141.24 536.688L1141.23 536.673L1141.22 536.658L1141.2 536.643L1141.19 536.628L1141.18 536.613L1141.16 536.598L1141.15 536.583L1141.14 536.568L1141.12 536.554L1141.11 536.539L1141.1 536.524L1141.09 536.51L1141.07 536.495L1141.06 536.481L1141.05 536.467L1141.03 536.452L1141.02 536.438L1141.01 536.424L1141 536.409L1140.98 536.395L1140.97 536.381L1140.96 536.367L1140.95 536.353L1140.93 536.339L1140.92 536.325L1140.91 536.311L1140.9 536.297L1140.88 536.283L1140.87 536.27L1140.86 536.256L1140.85 536.242L1140.84 536.229L1140.82 536.215L1140.81 536.202L1140.8 536.188L1140.79 536.175L1140.78 536.161L1140.76 536.148L1140.75 536.135L1140.74 536.122L1140.73 536.109L1140.72 536.095L1140.71 536.082L1140.69 536.069L1140.68 536.057L1140.67 536.044L1140.66 536.031L1140.65 536.018L1140.64 536.005L1140.63 535.993L1140.62 535.98L1140.6 535.968L1140.59 535.955L1140.58 535.943L1140.57 535.93L1140.56 535.918L1140.55 535.906L1140.54 535.894L1140.53 535.882L1140.52 535.87L1140.51 535.858L1140.5 535.846L1140.49 535.834L1140.47 535.822L1140.46 535.81L1140.45 535.798L1140.44 535.787L1140.43 535.775L1140.42 535.764L1140.41 535.752L1140.4 535.741L1140.39 535.729L1140.38 535.718L1140.37 535.707L1140.36 535.696L1140.35 535.685L1140.34 535.674L1140.33 535.663L1140.32 535.652L1140.31 535.641L1140.3 535.63L1140.29 535.62L1140.29 535.609L1140.28 535.598L1140.27 535.588L1140.26 535.577L1140.25 535.567L1140.24 535.557L1140.23 535.546L1140.22 535.536L1140.21 535.526L1140.2 535.516L1140.19 535.506L1140.19 535.496L1140.18 535.486L1140.17 535.477L1140.16 535.467L1140.15 535.457L1140.14 535.448L1140.13 535.438L1140.13 535.429L1140.12 535.42L1140.11 535.41L1140.1 535.401L1140.09 535.392L1140.08 535.383L1140.08 535.374L1140.07 535.365L1140.06 535.356L1140.05 535.347L1140.05 535.339L1140.04 535.33L1140.03 535.322L1140.02 535.313L1140.02 535.305L1140.01 535.296L1140 535.288L1139.99 535.28L1139.99 535.272L1139.98 535.264L1139.97 535.256L1139.96 535.248L1139.96 535.24L1139.95 535.232L1139.94 535.225L1139.94 535.217L1139.93 535.21L1139.92 535.202L1139.92 535.195L1139.91 535.188L1139.9 535.181L1139.9 535.174L1139.89 535.167L1139.89 535.16L1139.88 535.153L1139.87 535.146L1139.87 535.139L1139.86 535.133L1139.86 535.126L1139.85 535.12L1139.85 535.113L1139.84 535.107L1139.83 535.101L1139.83 535.095L1139.82 535.089L1139.82 535.083L1139.81 535.077L1139.81 535.071L1139.8 535.065L1139.8 535.06L1139.79 535.054L1139.79 535.049L1139.78 535.043L1139.78 535.038L1139.77 535.033L1139.77 535.028L1139.76 535.023L1139.76 535.018L1139.76 535.013L1139.75 535.008L1139.75 535.004L1139.74 534.999L1139.74 534.994L1139.74 534.99L1139.73 534.986L1139.73 534.982L1139.72 534.977L1139.72 534.973L1139.72 534.969L1139.71 534.965L1139.71 534.962L1139.71 534.958L1139.7 534.954L1139.7 534.951C1139.33 534.538 1138.7 534.501 1138.29 534.868C1137.88 535.234 1137.84 535.866 1138.21 536.278L1138.21 536.282L1138.21 536.286L1138.22 536.289L1138.22 536.293L1138.22 536.297L1138.23 536.301L1138.23 536.305L1138.23 536.309L1138.24 536.313L1138.24 536.318L1138.25 536.322L1138.25 536.326L1138.25 536.331L1138.26 536.336L1138.26 536.34L1138.27 536.345L1138.27 536.35L1138.27 536.355L1138.28 536.36L1138.28 536.366L1138.29 536.371L1138.29 536.376L1138.3 536.382L1138.3 536.387L1138.31 536.393L1138.31 536.399L1138.32 536.404L1138.32 536.41L1138.33 536.416L1138.33 536.422L1138.34 536.428L1138.35 536.435L1138.35 536.441L1138.36 536.447L1138.36 536.454L1138.37 536.46L1138.37 536.467L1138.38 536.473L1138.39 536.48L1138.39 536.487L1138.4 536.494L1138.4 536.501L1138.41 536.508L1138.42 536.515L1138.42 536.523L1138.43 536.53L1138.44 536.537L1138.44 536.545L1138.45 536.552L1138.46 536.56L1138.46 536.568L1138.47 536.575L1138.48 536.583L1138.48 536.591L1138.49 536.599L1138.5 536.607L1138.51 536.616L1138.51 536.624L1138.52 536.632L1138.53 536.641L1138.54 536.649L1138.54 536.658L1138.55 536.666L1138.56 536.675L1138.57 536.684L1138.57 536.693L1138.58 536.701L1138.59 536.71L1138.6 536.719L1138.61 536.729L1138.61 536.738L1138.62 536.747L1138.63 536.756L1138.64 536.766L1138.65 536.775L1138.66 536.785L1138.67 536.794L1138.67 536.804L1138.68 536.814L1138.69 536.824L1138.7 536.834L1138.71 536.844L1138.72 536.854L1138.73 536.864L1138.74 536.874L1138.74 536.884L1138.75 536.895L1138.76 536.905L1138.77 536.915L1138.78 536.926L1138.79 536.936L1138.8 536.947L1138.81 536.958L1138.82 536.969L1138.83 536.979L1138.84 536.99L1138.85 537.001L1138.86 537.012L1138.87 537.023L1138.88 537.034L1138.89 537.046L1138.9 537.057L1138.91 537.068L1138.92 537.08L1138.93 537.091L1138.94 537.103L1138.95 537.114L1138.96 537.126L1138.97 537.138L1138.98 537.149L1138.99 537.161L1139 537.173L1139.01 537.185L1139.02 537.197L1139.03 537.209L1139.04 537.221L1139.06 537.233L1139.07 537.246L1139.08 537.258L1139.09 537.27L1139.1 537.283L1139.11 537.295L1139.12 537.308L1139.13 537.32L1139.14 537.333L1139.15 537.346L1139.17 537.358L1139.18 537.371L1139.19 537.384L1139.2 537.397L1139.21 537.41L1139.22 537.423L1139.24 537.436L1139.25 537.449L1139.26 537.462L1139.27 537.476L1139.28 537.489L1139.29 537.502L1139.31 537.516L1139.32 537.529L1139.33 537.543L1139.34 537.556L1139.35 537.57L1139.37 537.583L1139.38 537.597L1139.39 537.611L1139.4 537.625L1139.42 537.638L1139.43 537.652L1139.44 537.666L1139.45 537.68L1139.46 537.694L1139.48 537.708L1139.49 537.723L1139.5 537.737L1139.52 537.751L1139.53 537.765L1139.54 537.78L1139.55 537.794L1139.57 537.808L1139.58 537.823L1139.59 537.837L1139.6 537.852L1139.62 537.867L1139.63 537.881L1139.64 537.896L1139.66 537.911L1139.67 537.925L1139.68 537.94L1139.7 537.955L1139.71 537.97L1139.72 537.985L1139.74 538L1139.75 538.015L1139.76 538.03L1139.78 538.045L1139.79 538.06L1139.8 538.076L1139.82 538.091L1139.83 538.106L1139.84 538.122L1139.86 538.137L1139.87 538.152L1139.89 538.168L1139.9 538.183L1139.91 538.199L1139.93 538.214L1139.94 538.23L1139.95 538.246L1139.97 538.261L1139.98 538.277L1140 538.293L1140.01 538.309L1140.02 538.324L1140.04 538.34L1140.05 538.356L1140.07 538.372L1140.08 538.388L1140.1 538.404L1140.11 538.42L1140.12 538.436L1140.14 538.452L1140.15 538.468L1140.17 538.485L1140.18 538.501L1140.2 538.517L1140.21 538.533L1140.22 538.55L1140.24 538.566L1140.25 538.582L1140.27 538.599L1140.28 538.615L1140.3 538.632L1140.31 538.648L1140.33 538.665L1140.34 538.681L1140.36 538.698L1140.37 538.714L1140.39 538.731L1140.4 538.748L1140.42 538.764L1140.43 538.781L1140.45 538.798L1140.46 538.815L1140.48 538.831L1140.49 538.848L1140.51 538.865L1140.52 538.882L1140.54 538.899L1140.55 538.916L1140.57 538.933L1140.58 538.95L1140.6 538.967L1140.61 538.984L1140.63 539.001L1140.64 539.018L1140.66 539.035L1140.67 539.052L1140.69 539.07L1140.7 539.087L1140.72 539.104L1140.73 539.121L1140.75 539.139L1140.76 539.156L1140.78 539.173L1140.79 539.191L1140.81 539.208L1140.82 539.225L1140.84 539.243L1140.86 539.26L1140.87 539.278L1140.89 539.295L1140.9 539.312L1140.92 539.33L1140.93 539.347L1140.95 539.365L1140.96 539.383L1140.98 539.4L1141 539.418L1141.01 539.435L1141.03 539.453L1141.04 539.471L1141.06 539.488L1141.07 539.506L1141.09 539.524L1141.11 539.541L1141.12 539.559L1141.14 539.577L1141.15 539.595L1141.17 539.612L1141.18 539.63L1141.2 539.648L1141.22 539.666L1141.23 539.684L1141.25 539.701L1141.26 539.719L1141.28 539.737L1141.3 539.755L1141.31 539.773L1141.33 539.791L1141.34 539.809L1141.36 539.827L1141.38 539.845L1141.39 539.862L1141.41 539.88L1141.42 539.898L1141.44 539.916L1141.46 539.934L1141.47 539.952L1141.49 539.97L1141.5 539.988L1141.52 540.006L1141.54 540.024L1141.55 540.043L1141.57 540.061L1141.58 540.079L1141.6 540.097L1141.62 540.115L1141.63 540.133L1141.65 540.151L1141.66 540.169L1141.68 540.187L1141.7 540.205L1141.71 540.223L1141.73 540.241L1141.74 540.26L1141.76 540.278L1141.78 540.296L1141.79 540.314L1141.81 540.332L1141.82 540.35L1141.84 540.368L1141.86 540.386L1141.87 540.405L1141.89 540.423L1141.91 540.441L1141.92 540.459L1141.94 540.477L1141.95 540.495L1141.97 540.514L1141.99 540.532L1142 540.55L1142.02 540.568L1142.03 540.586L1142.05 540.604L1142.07 540.622L1142.08 540.641L1142.1 540.659L1142.11 540.677L1142.13 540.695L1142.15 540.713L1142.16 540.731L1142.18 540.749L1142.2 540.768L1142.21 540.786L1142.23 540.804L1142.24 540.822L1142.26 540.84L1142.28 540.858L1142.29 540.876L1142.31 540.894L1142.32 540.912L1142.34 540.931L1142.36 540.949L1142.37 540.967L1142.39 540.985L1142.4 541.003L1142.42 541.021L1142.44 541.039L1142.45 541.057L1142.47 541.075L1142.48 541.093L1142.5 541.111L1142.52 541.129L1142.53 541.147L1142.55 541.165L1142.56 541.183L1142.58 541.201L1142.6 541.219L1142.61 541.237L1142.63 541.255L1142.64 541.273L1142.66 541.291L1142.68 541.309L1142.69 541.327L1142.71 541.344L1142.72 541.362L1142.74 541.38L1142.76 541.398L1142.77 541.416L1142.79 541.434L1142.8 541.451L1142.82 541.469L1142.83 541.487L1142.85 541.505L1142.87 541.522L1142.88 541.54L1142.9 541.558L1142.91 541.576L1142.93 541.593L1142.94 541.611L1142.96 541.629L1142.98 541.646L1142.99 541.664L1143.01 541.681L1143.02 541.699L1143.04 541.716L1143.05 541.734L1143.07 541.752L1143.09 541.769L1143.1 541.787L1143.12 541.804L1143.13 541.821L1143.15 541.839L1143.16 541.856L1143.18 541.874L1143.19 541.891L1143.21 541.908L1143.22 541.926L1143.24 541.943L1143.25 541.96L1143.27 541.977L1143.29 541.995L1143.3 542.012L1143.32 542.029L1143.33 542.046L1143.35 542.063L1143.36 542.08L1143.38 542.097L1143.39 542.115L1143.41 542.132L1143.42 542.149L1143.44 542.166L1143.45 542.182L1143.47 542.199L1143.48 542.216L1143.5 542.233L1143.51 542.25L1143.53 542.267L1143.54 542.284L1143.56 542.3L1143.57 542.317L1143.59 542.334L1143.6 542.35L1143.62 542.367L1143.63 542.384L1143.65 542.4L1143.66 542.417L1143.68 542.433L1143.69 542.45L1143.7 542.466L1143.72 542.483L1143.73 542.499L1143.75 542.516L1143.76 542.532L1143.78 542.548L1143.79 542.564L1143.81 542.581L1143.82 542.597L1143.84 542.613L1143.85 542.629L1143.86 542.645L1143.88 542.661L1143.89 542.677L1143.91 542.693L1143.92 542.709L1143.93 542.725L1143.95 542.741L1143.96 542.757L1143.98 542.773L1143.99 542.789L1144.01 542.804L1144.02 542.82L1144.03 542.836L1144.05 542.852L1144.06 542.867L1144.07 542.883L1144.09 542.898L1144.1 542.914L1144.12 542.929L1144.13 542.945L1144.14 542.96L1144.16 542.975L1144.17 542.991L1144.18 543.006L1144.2 543.021L1144.21 543.036L1144.22 543.051L1144.24 543.066L1144.25 543.081L1144.26 543.096L1144.28 543.111L1144.29 543.126L1144.3 543.141L1144.32 543.156L1144.33 543.171L1144.34 543.185L1144.36 543.2L1144.37 543.215L1144.38 543.229L1144.4 543.244L1144.41 543.259L1144.42 543.273L1144.43 543.287L1144.45 543.302L1144.46 543.316L1144.47 543.33L1144.49 543.345L1144.5 543.359L1144.51 543.373L1144.52 543.387L1144.54 543.401L1144.55 543.415L1144.56 543.429L1144.57 543.443L1144.58 543.457L1144.6 543.471L1144.61 543.484L1144.62 543.498L1144.63 543.512L1144.65 543.525L1144.66 543.539L1144.67 543.552L1144.68 543.566L1144.69 543.579L1144.71 543.593L1144.72 543.606L1144.73 543.619L1144.74 543.632L1144.75 543.645L1144.76 543.657C1143.81 553.35 1142.61 563.745 1141.16 574.21L1132.19 564.113C1131.83 563.701 1131.19 563.663 1130.78 564.03C1130.37 564.396 1130.33 565.028 1130.7 565.441L1140.8 576.807C1140.74 577.226 1140.68 577.644 1140.62 578.063C1138.57 592.17 1136.06 606.228 1133.04 618.716L1120.2 598.783C1119.9 598.319 1119.29 598.185 1118.82 598.484C1118.36 598.783 1118.22 599.401 1118.52 599.865L1132.38 621.383C1129.87 631.315 1127.02 640.145 1123.81 647.061C1123.58 647.562 1123.8 648.156 1124.3 648.388C1124.8 648.62 1125.4 648.403 1125.63 647.902C1128.91 640.839 1131.8 631.856 1134.34 621.791L1151.05 609.547C1151.49 609.221 1151.59 608.596 1151.26 608.15C1150.94 607.705 1150.31 607.609 1149.86 607.935L1135.09 618.767C1138.09 606.273 1140.58 592.299 1142.59 578.349C1142.65 577.976 1142.7 577.604 1142.76 577.231L1152.33 568.724C1152.74 568.357 1152.78 567.726 1152.41 567.313C1152.05 566.901 1151.42 566.863 1151 567.23L1143.18 574.176C1144.65 563.551 1145.86 553.005 1146.82 543.195L1152.16 538.445C1152.58 538.078 1152.61 537.447 1152.25 537.034C1151.88 536.621 1151.25 536.584 1150.84 536.951L1147.1 540.272C1148.25 528.015 1149.02 517.051 1149.43 508.72Z" fill="url(#paint36_linear)"/>
<path d="M1101.94 522.201C1106.55 543.588 1116.57 600.442 1114.52 650.673" stroke="#62A4BF" stroke-width="1.40098" stroke-linecap="round"/>
<path d="M1087.83 501.097C1089.93 510.877 1097.61 518.103 1102.73 524.098C1105.15 517.577 1109.14 509.839 1110.08 501.456C1111.65 487.327 1105.39 481.312 1097.39 482.005C1086.68 482.931 1086.64 495.502 1087.83 501.097Z" fill="url(#paint37_linear)"/>
<path d="M1110.43 530.341C1106.84 536.766 1107.58 544.494 1107.5 550.295C1112.01 547.866 1117.97 545.523 1122.56 541.34C1130.29 534.29 1129.75 527.921 1124.99 524.42C1118.61 519.73 1112.48 526.664 1110.43 530.341Z" fill="url(#paint38_linear)"/>
<path d="M1088.23 546.188C1094.58 549.907 1102.33 549.321 1108.12 549.517C1105.79 544.962 1103.56 538.951 1099.47 534.281C1092.58 526.409 1086.2 526.826 1082.6 531.516C1077.79 537.797 1084.6 544.06 1088.23 546.188Z" fill="url(#paint39_linear)"/>
<path d="M1114.16 553.937C1109.6 562.094 1110.54 571.904 1110.44 579.268C1116.16 576.184 1123.73 573.21 1129.56 567.9C1139.37 558.95 1138.68 550.866 1132.64 546.421C1124.54 540.468 1116.77 549.27 1114.16 553.937Z" fill="url(#paint40_linear)"/>
<path d="M1085.98 574.054C1094.04 578.775 1103.87 578.031 1111.23 578.279C1108.26 572.497 1105.44 564.868 1100.25 558.939C1091.49 548.946 1083.4 549.476 1078.83 555.43C1072.72 563.403 1081.37 571.353 1085.98 574.054Z" fill="url(#paint41_linear)"/>
<path d="M1049.15 601.877C1061.9 644.044 1100.9 647.631 1120.36 652.971C1135.69 627.944 1125.71 607.124 1118.8 599.842C1113.92 594.313 1102.9 581.4 1098.01 575.635L1093.94 598.205L1093.15 571.051L1078.5 554.936L1075.51 573.929L1073.64 550.351C1065 545.877 1049.72 527.023 1043.15 518.156C1035.96 530.655 1036.1 546.327 1037.07 552.601L1051.76 569.897L1037.31 560.865C1038.64 574.061 1043.3 590.625 1045.43 596.078L1070.1 601.265L1049.15 601.877Z" fill="url(#paint42_linear)"/>
<path fill-rule="evenodd" clip-rule="evenodd" d="M1046.01 537.175C1045.51 537.401 1045.29 537.993 1045.51 538.496C1073.65 600.959 1101.58 633.037 1130 655.013C1130.44 655.35 1131.06 655.27 1131.4 654.834C1131.74 654.397 1131.66 653.769 1131.22 653.432C1103.1 631.689 1075.36 599.892 1047.34 537.675C1047.11 537.172 1046.52 536.948 1046.01 537.175Z" fill="url(#paint43_linear)"/>
<path d="M1147.43 636.804H1071.45C1067.6 678.336 1079.93 700.18 1086.58 705.91C1111.5 711 1135.74 705.91 1135.74 705.91C1147.57 696.833 1148.47 656.058 1147.43 636.804Z" fill="url(#paint44_linear)"/>
<path d="M1072.36 259.233C1070.5 260.933 1068.45 263.518 1067.65 264.598C1069.6 265.044 1074.17 263.705 1076.21 262.98L1072.36 259.233Z" fill="url(#paint45_linear)"/>
<path d="M1055.1 223.993C1057.12 224.866 1059.89 231.81 1063.09 235.214C1066.28 238.618 1067.32 245.834 1067.32 245.834C1062.58 247.495 1059.76 248.126 1057.65 247.261C1056.64 246.269 1052.99 244.344 1051.12 243.687C1048.16 242.647 1046.48 239.929 1045.03 237.733C1045.03 237.733 1041.22 232.821 1040.66 229.277C1040.1 225.734 1046.31 224.775 1048.11 225.243C1041.2 223.444 1037.47 218.566 1037.18 217.809C1037.09 216.276 1038.24 216.564 1038.82 216.9C1040.66 217.535 1052.81 223.109 1055.1 223.993Z" fill="#F3BB93"/>
<path d="M1063.92 236.971C1069.41 243.171 1100.59 269.425 1115.91 281.323C1114.28 288.558 1110.33 303.646 1108.8 303.243C1107.26 302.839 1088.22 284.82 1058.96 247.24C1059.36 245.684 1060.45 240.174 1063.92 236.971Z" fill="#F3BB93"/>
<path d="M1163.49 261.955C1182.87 253.222 1193.91 245.855 1197.95 248.002L1183.17 291.008L1123.1 309.057C1111.61 313.135 1102.49 305.848 1099.37 301.694L1068.35 264.965C1072.53 265.156 1080.34 258.363 1083.72 254.943L1119.5 279.404C1131.86 276.213 1140.56 272.292 1163.49 261.955Z" fill="url(#paint46_linear)"/>
<path opacity="0.7" d="M1141.88 298.66C1148.98 295.32 1167.35 266.512 1169.44 265.677C1164.98 278.063 1157.16 297.658 1156.5 298.66C1155.66 299.913 1123.93 309.098 1117.67 309.933C1111.56 310.747 1112.6 309.974 1105.69 306.841C1105.45 306.779 1105.27 306.697 1105.14 306.593C1105.33 306.677 1105.52 306.76 1105.69 306.841C1110.3 308.022 1135.14 301.834 1141.88 298.66Z" fill="url(#paint47_linear)"/>
<path d="M1162.34 249.812C1153.79 227.017 1159.93 203.955 1163.71 196.391C1171.53 194.382 1188.35 237.237 1196.07 258.884C1185.39 253.64 1163.59 274.445 1158.17 270.687C1161.09 269.017 1166.1 259.832 1162.34 249.812Z" fill="#100938"/>
<path d="M1161.66 211.428C1162.45 203.503 1166.28 197.286 1170.65 194.15C1195.26 176.477 1205.29 198.779 1209.96 211.428C1214.12 223.25 1205.65 233.749 1200.89 237.521L1212.93 247.629C1203.81 263.443 1197.79 262.131 1189.15 261.276C1182.99 260.336 1187.68 260.372 1188.68 255.613C1189.21 253.092 1189.3 248.145 1188.68 246.31C1188.13 244.687 1186.77 242.12 1181.83 242.585C1159.56 244.687 1159.56 232.5 1161.66 211.428Z" fill="#F3BB93"/>
<path d="M1200.23 227.452C1195.99 238.056 1186.09 241.944 1182.91 242.297C1189.63 243.358 1189.98 247.953 1188.57 256.082C1192.79 255.641 1198.36 247.546 1201.15 241.923C1200.96 241.232 1202.35 228.652 1200.23 227.452Z" fill="url(#paint48_linear)"/>
<path d="M1163.79 230.748C1165.59 232.401 1168.77 233.108 1170.9 231.66" stroke="#201947" stroke-width="1.26072" stroke-linecap="round" stroke-linejoin="round"/>
<ellipse rx="1.72876" ry="2.42026" transform="matrix(-0.985775 -0.168073 -0.168073 0.985775 1177.15 217.526)" fill="#383737"/>
<path d="M1165.44 208.546C1164.18 208.546 1163.34 208.546 1162.09 209.083" stroke="#656274" stroke-width="0.84048" stroke-linecap="round" stroke-linejoin="round"/>
<ellipse cx="1162.82" cy="216.213" rx="1.31121" ry="2.17251" transform="rotate(1.3719 1162.82 216.213)" fill="#383737"/>
<path d="M1175.52 209.375C1177.49 209.379 1179.36 209.617 1181.12 210.615C1181.9 211.062 1182.84 211.61 1183.35 212.382" stroke="#656274" stroke-width="0.84048" stroke-linecap="round" stroke-linejoin="round"/>
<path d="M1148.82 381.081C1158 298.446 1172.21 263.843 1178.4 256.642L1175.85 256.279L1172.79 258.884C1160.91 270.226 1151.86 307.718 1148.82 325.046C1141.26 372.035 1132.62 490.451 1129.24 543.785L1136.67 566.064C1136.67 554.182 1144.77 437.791 1148.82 381.081Z" fill="#F8FAFF"/>
<path d="M1135.18 563.045C1136.8 568.446 1214.53 575.469 1278.83 523.698L1170.29 421.27C1154.09 388.324 1167.08 297.912 1175.85 256.279C1168.02 262.49 1157.8 298.735 1153.41 316.626C1143.69 376.036 1137.21 505.66 1135.18 563.045Z" fill="url(#paint49_linear)"/>
<path d="M1190.07 258.356C1198.69 259.943 1209.78 253.429 1215.65 248.518C1215.65 251.012 1231.81 256.038 1238.19 269.081L1240.19 399.831C1196.84 399.831 1179.32 404.171 1162.76 395.105C1162.76 382.698 1161.85 381.539 1161.85 350.92C1161.85 333.423 1161.85 320.301 1163.19 300.816L1165.03 285.308L1168.61 270.197C1171.33 265.89 1171.91 262.637 1174.18 260.653C1178.17 256.279 1183.57 252.716 1186.3 251.11C1187.67 258.137 1188.18 257.979 1190.07 258.356Z" fill="url(#paint50_linear)"/>
<path d="M1182.8 306.593C1189.34 286.97 1195.74 284.465 1200.75 296.155L1233.13 368.384L1166.93 395.522C1165.68 365.044 1172.78 327.051 1182.8 306.593Z" fill="url(#paint51_linear)"/>
<path d="M1159.92 721.617C1157.93 718.132 1155.15 706.878 1154.02 701.686L1138.22 703.575C1138.08 710.813 1127.85 719.131 1122.74 722.385C1118.74 725.073 1109.64 730.553 1105.59 732.956C1092.85 740.982 1108.33 740.144 1117.66 738.722C1126.45 737.009 1139.53 736.145 1144.98 735.928C1162.42 734.91 1162.2 725.964 1159.92 721.617Z" fill="#F3BB93"/>
<path d="M1132.82 721.746C1139.32 723.027 1152.42 719.49 1158.16 717.561C1163.28 720.751 1161.98 729.64 1160.69 733.686L1160.47 736.285L1144.81 738.577L1144.58 737.012C1141.12 737.022 1118.99 740.84 1112.82 741.832C1092.8 743.36 1096.67 737.871 1101.1 734.935C1108.98 730.842 1124.87 719.603 1131.82 714.495L1132.39 717.507L1132.82 721.746Z" fill="url(#paint52_linear)"/>
<path d="M1169.01 635.172C1172.19 577.274 1185.18 550.075 1191.28 543.712L1227.86 395.388C1191.28 398.027 1175.7 398.027 1162.65 395.388C1157.56 403.978 1149.39 487.246 1145.94 527.806C1140.22 569.798 1138.79 595.672 1138.79 603.36C1139.42 635.808 1135.87 683.685 1134.01 703.568H1157.87C1161.69 696.569 1166.89 655.054 1169.01 635.172Z" fill="url(#paint53_linear)"/>
<path d="M1244.43 746.606C1242.23 743.25 1238.78 732.188 1237.32 727.076L1221.67 729.933C1221.98 737.166 1212.27 746.098 1207.38 749.66C1203.55 752.59 1194.8 758.619 1190.91 761.268C1178.69 770.063 1194.09 768.273 1203.31 766.279C1211.98 764.029 1224.98 762.361 1230.41 761.809C1247.75 759.72 1246.99 750.803 1244.43 746.606Z" fill="#F3BB93"/>
<path d="M1217.39 748.403C1223.96 749.281 1236.82 744.944 1242.43 742.666C1247.74 745.535 1246.98 754.487 1245.95 758.605L1245.9 761.212L1230.4 764.464L1230.08 762.915C1226.62 763.138 1204.77 768.311 1198.67 769.681C1178.79 772.439 1182.31 766.722 1186.55 763.519C1194.16 758.949 1209.33 746.753 1215.96 741.227L1216.7 744.198L1217.39 748.403Z" fill="url(#paint54_linear)"/>
<path d="M1240.43 499.816C1249.82 431.687 1242.57 409.209 1237.77 406.487C1210.87 383.779 1183.28 392.884 1172.86 400.275L1187.23 550.652C1194.37 576.261 1208.81 676.082 1217.25 731.216L1243.12 728.239C1245.75 720.821 1238.95 662.79 1235.91 626.414C1232.38 593.16 1237.45 528.16 1240.43 499.816Z" fill="url(#paint55_linear)"/>
<path d="M1159.42 591.334C1160.75 564.28 1173.33 503.24 1179.46 476.102C1179.46 476.102 1186.7 520.994 1186.97 550.001C1154.68 635.173 1166.1 673.583 1159 701.557C1154.55 701.07 1147.73 699.469 1147.73 699.469L1159.42 591.334Z" fill="url(#paint56_linear)"/>
<path d="M1186.88 261.835C1187.81 264.617 1191.91 264.153 1193.84 263.574L1190.36 258.646L1186.88 261.835Z" fill="#ECF1FF"/>
<path d="M1194.42 271.689L1217.9 250.82L1213.55 247.632L1190.07 258.936L1186.02 251.69L1183.41 267.631L1190.07 259.806L1194.42 271.689Z" fill="url(#paint57_linear)"/>
<path d="M1190.36 258.77L1213.81 246.473L1217.03 249.04L1194.94 267.921L1190.36 258.77Z" fill="white"/>
<path d="M1190.36 258.811L1188.51 249.951H1186.17L1185.73 263.284L1190.36 258.811Z" fill="white"/>
<path opacity="0.4" d="M1210.14 302.429C1209.21 282.024 1218.45 261.271 1223.18 253.446C1224.57 254.605 1228.01 257.214 1229.56 258.373L1243.47 358.949L1226.37 430.54L1212.75 396.339C1218.26 372.861 1216.52 358.949 1212.75 342.717C1211.13 330.66 1210.33 311.318 1210.14 302.429Z" fill="url(#paint58_linear)"/>
<g filter="url(#filter2_d)">
<path d="M1184.95 300.398C1191.63 280.674 1212.13 259.307 1221.54 251.089C1249.73 267.414 1256.41 317.438 1259.27 342.569C1262.14 367.701 1266.34 435.069 1272.04 465.82C1273.31 473.137 1278.36 507.594 1279.59 515.129C1280.83 522.663 1283.13 520.883 1276.77 527.477C1259.27 545.61 1221.94 558.208 1204.04 564.835C1193.22 569.289 1189.46 564.835 1188.93 562.052C1157.75 455.163 1173.29 335.126 1184.95 300.398Z" fill="url(#paint59_linear)"/>
</g>
<path opacity="0.7" d="M1221.01 329.337C1221.81 315.601 1217.77 282.369 1221.01 276.115C1250.02 319.118 1252.1 371.724 1216.62 433.933C1213.28 430.632 1223.8 409.682 1224.55 401.844C1228.97 389.859 1221.01 356.277 1221.01 329.337Z" fill="url(#paint60_linear)"/>
<path d="M1175.78 447.922C1176.27 449.542 1177.98 450.453 1179.6 449.96L1279.29 419.604C1280.91 419.111 1281.82 417.401 1281.33 415.782L1261.69 351.277C1261.19 349.658 1259.48 348.744 1257.86 349.237L1158.17 379.593C1156.55 380.086 1155.64 381.799 1156.14 383.418L1175.78 447.922Z" fill="url(#paint61_linear)"/>
<path d="M1177.81 444.097L1277.5 413.741C1279.12 413.248 1280.03 411.534 1279.54 409.915L1281.33 415.782C1281.82 417.401 1280.91 419.111 1279.29 419.604L1179.6 449.96C1177.98 450.453 1176.27 449.541 1175.78 447.922L1173.99 442.055C1174.48 443.674 1176.19 444.59 1177.81 444.097Z" fill="#AFC0EC"/>
<path d="M1216.44 413.114C1217.42 416.352 1220.85 418.175 1224.09 417.189C1227.33 416.203 1229.15 412.78 1228.17 409.542L1221.02 386.087C1220.04 382.849 1216.61 381.02 1213.37 382.006C1210.14 382.992 1208.31 386.421 1209.29 389.659L1216.44 413.114Z" fill="#DA4453"/>
<path d="M1201.14 404.954C1202.13 408.192 1205.55 410.023 1208.79 409.036L1232.24 401.894C1235.48 400.908 1237.31 397.479 1236.32 394.241C1235.34 391.002 1231.91 389.179 1228.67 390.165L1205.22 397.307C1201.97 398.294 1200.15 401.716 1201.14 404.954Z" fill="#ED5564"/>
<mask id="mask0" mask-type="alpha" maskUnits="userSpaceOnUse" x="1156" y="349" width="126" height="102">
<path d="M1175.78 447.922C1176.27 449.542 1177.98 450.453 1179.6 449.96L1279.29 419.604C1280.91 419.111 1281.82 417.401 1281.33 415.782L1261.69 351.277C1261.19 349.658 1259.48 348.744 1257.86 349.237L1158.17 379.593C1156.55 380.086 1155.64 381.799 1156.14 383.418L1175.78 447.922Z" fill="url(#paint62_linear)"/>
</mask>
<g mask="url(#mask0)">
<path opacity="0.3" d="M1173.79 442.269C1202.49 407.558 1260.03 337.962 1260.66 337.264L1148.87 369.411L1173.79 442.269Z" fill="white"/>
</g>
<g filter="url(#filter3_f)">
<path d="M1196.94 549.435C1184.04 516.247 1179.6 453.869 1179.46 417.017C1179.46 415.418 1181.18 414.397 1182.63 415.068C1205.48 425.628 1235.29 420 1250.66 414.77C1252.22 414.237 1253.94 415.562 1253.94 417.214C1253.94 435.538 1266.26 490.432 1273.14 519.69C1273.3 520.38 1273.12 521.079 1272.59 521.547C1264.91 528.264 1231.01 546.16 1214.25 553.284C1214.16 553.323 1214.06 553.355 1213.97 553.38C1202.94 556.25 1197.76 552.248 1197.03 549.739L1197.03 549.726C1197 549.627 1196.97 549.532 1196.94 549.435Z" fill="url(#paint63_linear)"/>
</g>
<path d="M1218.14 419.924C1223.3 412.357 1226.57 410.949 1227.56 411.191C1230.75 412.648 1237.26 415.641 1237.73 415.964C1233.6 431.164 1229.14 436.021 1214.95 442.284C1203.67 448.546 1203.49 444.774 1205.76 442.284C1212.02 438.526 1219.22 432.937 1218.32 430.446C1202.42 445.206 1211.05 430.535 1218.14 419.924Z" fill="#F3BB93"/>
<path opacity="0.7" d="M1227.89 433.933C1228.59 423.496 1251.52 384.584 1259.2 349.179C1260.11 349.179 1261.29 350.014 1261.71 351.267C1269.02 375.031 1272.15 423.496 1227.89 433.933Z" fill="url(#paint64_linear)"/>
<path d="M1227.08 323.893C1222.59 308.407 1211.24 278.031 1227.08 271.94C1242.16 270.082 1254.21 299.934 1256.99 325.526C1260.18 354.946 1261.89 368.483 1249.29 403.76C1246.77 410.817 1244.56 417.657 1235.33 426.725L1227.48 415.679C1225.49 411.842 1223.04 410.824 1225.81 407.584C1235.56 385.65 1232.03 340.991 1227.08 323.893Z" fill="url(#paint65_linear)"/>
<g opacity="0.15">
<circle r="8.04758" transform="matrix(-0.968854 0.247631 0.247631 0.968854 1171.24 302.682)" fill="#2E2846"/>
<circle r="8.04758" transform="matrix(-0.968854 0.247631 0.247631 0.968854 1170.9 301.382)" fill="#2E2846"/>
<circle r="5.01899" transform="matrix(-0.968854 0.247631 0.247631 0.968854 1170.9 301.382)" fill="#2E2846" stroke="white" stroke-width="0.692123"/>
</g>
<path d="M1186.55 249.106C1178.38 252.348 1163.8 265.718 1170.84 293.268" stroke="url(#paint66_linear)" stroke-width="1.95077" stroke-linecap="round"/>
<circle r="8.04758" transform="matrix(-0.968854 0.247631 0.247631 0.968854 1174.63 302.682)" fill="#719290"/>
<circle r="8.04758" transform="matrix(-0.968854 0.247631 0.247631 0.968854 1174.3 301.383)" fill="#77D9D3"/>
<circle r="5.01899" transform="matrix(-0.968854 0.247631 0.247631 0.968854 1174.3 301.382)" stroke="white" stroke-width="0.692123"/>
<g opacity="0.25">
<path d="M1215.98 248.174C1222.3 249.989 1223.4 257.929 1215.98 278.291" stroke="url(#paint67_linear)" stroke-width="1.95857" stroke-linecap="round"/>
<path d="M1215.66 279.051C1212.56 277.801 1204.47 277.074 1203.64 294.033L1202.23 326.81" stroke="url(#paint68_linear)" stroke-width="1.95077" stroke-linecap="round"/>
<ellipse cx="1201.06" cy="327.599" rx="1.64305" ry="1.86493" transform="rotate(-163.976 1201.06 327.599)" fill="#2C2748"/>
<path d="M1214.72 278.706C1217.85 279.94 1224.36 285.047 1213.93 298.17L1193.62 323.404" stroke="url(#paint69_linear)" stroke-width="1.95077" stroke-linecap="round"/>
<ellipse rx="1.79033" ry="1.94825" transform="matrix(0.981216 0.0787321 0.125192 -1.0051 1193.82 324.608)" fill="#2C2748"/>
</g>
<path d="M1218.02 247.496C1224.33 249.31 1225.44 257.251 1218.02 277.613" stroke="url(#paint70_linear)" stroke-width="1.95857" stroke-linecap="round"/>
<path d="M1217.7 278.372C1214.6 277.122 1206.5 276.396 1205.68 293.354L1204.27 326.132" stroke="url(#paint71_linear)" stroke-width="1.95077" stroke-linecap="round"/>
<ellipse cx="1203.09" cy="326.921" rx="1.64305" ry="1.86493" transform="rotate(-163.976 1203.09 326.921)" fill="url(#paint72_linear)"/>
<path d="M1216.76 278.028C1219.88 279.261 1226.39 284.368 1215.96 297.491L1195.66 322.726" stroke="url(#paint73_linear)" stroke-width="1.95077" stroke-linecap="round"/>
<ellipse rx="1.79033" ry="1.94825" transform="matrix(0.981216 0.0787321 0.125192 -1.0051 1195.86 323.929)" fill="url(#paint74_linear)"/>
<path d="M1197.41 277.367C1195.74 264.842 1196.16 254.404 1198.66 244.801C1202.11 231.579 1201.27 214.352 1199.52 214.021C1173.72 209.145 1163.4 198.376 1163.3 196.373C1163.3 181.782 1184.2 176.584 1193.52 178.322C1225.04 184.205 1228.66 208.161 1228.43 231.239C1229.56 259.414 1225.07 252.171 1218.29 252.734C1209.88 253.432 1210.86 276.107 1197.41 277.367Z" fill="url(#paint75_linear)"/>
<path d="M1205.19 213.048C1203.07 211.963 1200.25 214.044 1199.11 215.22C1198.58 218.579 1197.69 225.447 1198.36 226.053C1199.2 226.81 1204.25 225.101 1205.97 222.244C1207.69 219.387 1207.84 214.404 1205.19 213.048Z" fill="#F3BB93"/>
<path d="M1199.88 214.374C1199.88 214.374 1203.06 212.344 1204.63 212.834C1206.25 213.34 1206.92 214.907 1207.09 216.495C1193.16 219.323 1168.07 205.538 1165.59 199.448C1170.89 204.124 1180.79 210.487 1199.52 214.021C1200.01 214.282 1199.88 214.374 1199.88 214.374Z" fill="url(#paint76_linear)"/>
<ellipse rx="34.0356" ry="5.37403" transform="matrix(-1 0 0 1 451.798 682.717)" fill="url(#paint77_linear)"/>
<path d="M419.948 645.657C450.043 660.704 453.319 684.133 451.229 691H449.438C450.871 678.819 438.16 660.883 431.592 656.405C425.143 650.673 408.603 651.628 401.139 652.822C386.092 654.255 363.819 646.254 354.564 642.074L286.493 610.726C256.398 596.395 305.003 595.798 333.068 597.29C388.241 603.023 405.02 620.578 406.513 628.639C410.096 637.237 416.962 643.567 419.948 645.657Z" fill="url(#paint78_linear)"/>
<path d="M338.944 621.94C346.109 627.672 361.037 641.645 367.605 647.915C361.156 645.048 309.983 621.642 285.203 610.296C310.282 605.997 331.48 616.268 338.944 621.94Z" fill="url(#paint79_linear)"/>
<path d="M449.207 626.79C457.806 643.27 457.567 681.856 456.373 693.5H459.06C462.642 672.004 458.761 642.912 456.373 636.642C454.223 631.626 455.477 626.79 456.373 624.998C467.121 591.321 455.477 576.333 448.312 573.049C439.713 568.033 438.758 560.211 439.355 556.927C438.639 534.714 419.949 524.981 410.694 522.892C403.528 520.025 398.751 512.741 397.259 509.456C392.243 497.992 375.464 499.306 367.701 501.395C387.048 517.876 430.1 591.858 449.207 626.79Z" fill="url(#paint80_linear)"/>
<path d="M452.694 687.195C469.891 687.195 482.55 684.21 486.729 682.717L480.46 725.709C477.594 753.654 457.769 758.252 448.216 757.058C428.869 757.058 422.838 736.756 422.241 726.605L417.763 682.717C422.778 685.583 443.14 686.897 452.694 687.195Z" fill="url(#paint81_linear)"/>
<path d="M409.895 536.863C406.211 517.39 386.845 510.145 377.623 508.957C400.063 545.513 445.121 618.63 445.837 618.653C450.678 601.601 429.985 572.15 419.034 559.555C415.566 555.861 411.497 542.888 409.895 536.863Z" fill="url(#paint82_linear)"/>
<circle opacity="0.4" cx="454.5" cy="144.5" r="23.5" fill="url(#paint83_linear)"/>
<circle cx="177.319" cy="553.319" r="38.3187" fill="url(#paint84_linear)"/>
<path d="M166.312 550.555H168.156C171.691 550.555 174.556 553.421 174.556 556.955V572.933" stroke="white" stroke-width="3.2" stroke-linecap="round" stroke-linejoin="round"/>
<path d="M156.182 537.201C154.403 540.009 151.846 544.934 151.846 550.238C151.846 555.543 154.403 560.468 156.182 563.275C157.568 565.462 159.933 566.607 162.333 566.779C165.487 567.004 167.928 565.123 169.198 562.731C170.459 560.358 170.708 557.258 169.365 554.61C168.482 552.87 168.002 551.365 168.002 550.238C168.002 549.112 168.482 547.607 169.365 545.866C170.708 543.219 170.459 540.119 169.198 537.745C167.928 535.354 165.487 533.473 162.333 533.698C159.933 533.869 157.568 535.015 156.182 537.201Z" fill="white" stroke="white" stroke-width="3.2"/>
<path d="M188.962 550.827H187.117C183.582 550.827 180.717 553.693 180.717 557.227V573.205" stroke="white" stroke-width="3.2" stroke-linecap="round" stroke-linejoin="round"/>
<path d="M199.18 537.201C200.96 540.009 203.516 544.934 203.516 550.238C203.516 555.543 200.96 560.468 199.18 563.275C197.794 565.462 195.43 566.607 193.03 566.779C189.875 567.004 187.434 565.123 186.164 562.731C184.903 560.358 184.654 557.258 185.998 554.61C186.881 552.87 187.361 551.365 187.361 550.238C187.361 549.112 186.881 547.607 185.998 545.866C184.654 543.219 184.903 540.119 186.164 537.745C187.434 535.354 189.875 533.473 193.03 533.698C195.43 533.869 197.794 535.015 199.18 537.201Z" fill="white" stroke="white" stroke-width="3.2"/>
<circle cx="962.5" cy="462.5" r="43.5" fill="url(#paint85_linear)"/>
<path d="M949.623 461.111H952.712C956.246 461.111 959.112 463.976 959.112 467.511V486.866" stroke="white" stroke-width="3.2" stroke-linecap="round" stroke-linejoin="round"/>
<path d="M938.168 445.87C936.127 449.09 933.215 454.71 933.215 460.746C933.215 466.782 936.127 472.402 938.168 475.622C939.715 478.062 942.36 479.349 945.06 479.542C948.574 479.793 951.303 477.701 952.732 475.011C954.151 472.34 954.428 468.856 952.922 465.887C951.9 463.874 951.327 462.1 951.327 460.746C951.327 459.392 951.9 457.618 952.922 455.605C954.428 452.636 954.151 449.152 952.732 446.481C951.303 443.791 948.574 441.699 945.06 441.95C942.36 442.143 939.715 443.43 938.168 445.87Z" fill="white" stroke="white" stroke-width="3.2"/>
<path d="M975.692 461.424H972.603C969.068 461.424 966.203 464.289 966.203 467.824V487.179" stroke="white" stroke-width="3.2" stroke-linecap="round" stroke-linejoin="round"/>
<path d="M987.249 445.87C989.29 449.09 992.202 454.71 992.202 460.746C992.202 466.782 989.29 472.402 987.249 475.622C985.702 478.062 983.057 479.349 980.357 479.542C976.843 479.793 974.114 477.701 972.685 475.011C971.266 472.34 970.989 468.856 972.496 465.887C973.517 463.874 974.091 462.1 974.091 460.746C974.091 459.392 973.517 457.618 972.496 455.605C970.989 452.636 971.266 449.152 972.685 446.481C974.114 443.791 976.843 441.699 980.357 441.95C983.057 442.143 985.702 443.43 987.249 445.87Z" fill="white" stroke="white" stroke-width="3.2"/>
<g filter="url(#filter4_d)">
<circle cx="518.532" cy="88.5325" r="68.5325" fill="white"/>
</g>
<path d="M503.09 84.4441H507.258C511.227 84.4441 514.445 87.6621 514.445 91.6318V115.266" stroke="#4A4A4A" stroke-width="3.59385" stroke-linecap="round" stroke-linejoin="round"/>
<path d="M489.359 65.8947C486.92 69.7427 483.45 76.4446 483.45 83.6336C483.45 90.8227 486.92 97.5246 489.359 101.373C491.187 104.256 494.315 105.781 497.516 106.01C501.663 106.306 504.891 103.838 506.584 100.65C508.266 97.4825 508.593 93.3537 506.81 89.8396C505.584 87.4246 504.888 85.2824 504.888 83.6336C504.888 81.9848 505.584 79.8427 506.81 77.4277C508.593 73.9136 508.266 69.7847 506.584 66.6172C504.891 63.4297 501.663 60.9611 497.516 61.2574C494.315 61.486 491.187 63.011 489.359 65.8947Z" fill="#ED4C4C" stroke="#ED4C4C" stroke-width="3.59385"/>
<path d="M533.914 84.4438H529.747C525.777 84.4438 522.559 87.6619 522.559 91.6315V115.266" stroke="#4A4A4A" stroke-width="3.59385" stroke-linecap="round" stroke-linejoin="round"/>
<path d="M547.646 65.8942C550.085 69.7422 553.555 76.4441 553.555 83.6332C553.555 90.8222 550.085 97.5241 547.646 101.372C545.818 104.256 542.69 105.781 539.489 106.009C535.341 106.306 532.114 103.837 530.421 100.65C528.738 97.482 528.412 93.3532 530.195 89.8391C531.42 87.4241 532.116 85.282 532.116 83.6332C532.116 81.9844 531.42 79.8422 530.195 77.4272C528.412 73.9131 528.738 69.7843 530.421 66.6167C532.114 63.4292 535.341 60.9606 539.489 61.2569C542.69 61.4855 545.818 63.0105 547.646 65.8942Z" fill="#ED4C4C" stroke="#ED4C4C" stroke-width="3.59385"/>
<defs>
<filter id="filter0_d" x="672" y="0" width="541" height="481" filterUnits="userSpaceOnUse" color-interpolation-filters="sRGB">
<feFlood flood-opacity="0" result="BackgroundImageFix"/>
<feColorMatrix in="SourceAlpha" type="matrix" values="0 0 0 0 0 0 0 0 0 0 0 0 0 0 0 0 0 0 127 0"/>
<feOffset dx="10" dy="40"/>
<feGaussianBlur stdDeviation="40"/>
<feColorMatrix type="matrix" values="0 0 0 0 0.554375 0 0 0 0 0.623387 0 0 0 0 0.803493 0 0 0 1 0"/>
<feBlend mode="normal" in2="BackgroundImageFix" result="effect1_dropShadow"/>
<feBlend mode="normal" in="SourceGraphic" in2="effect1_dropShadow" result="shape"/>
</filter>
<filter id="filter1_d" x="741.046" y="349" width="71.6752" height="118.101" filterUnits="userSpaceOnUse" color-interpolation-filters="sRGB">
<feFlood flood-opacity="0" result="BackgroundImageFix"/>
<feColorMatrix in="SourceAlpha" type="matrix" values="0 0 0 0 0 0 0 0 0 0 0 0 0 0 0 0 0 0 127 0"/>
<feOffset dy="1"/>
<feGaussianBlur stdDeviation="3.5"/>
<feColorMatrix type="matrix" values="0 0 0 0 0.720314 0 0 0 0 0.765132 0 0 0 0 0.882096 0 0 0 1 0"/>
<feBlend mode="normal" in2="BackgroundImageFix" result="effect1_dropShadow"/>
<feBlend mode="normal" in="SourceGraphic" in2="effect1_dropShadow" result="shape"/>
</filter>
<filter id="filter2_d" x="1166.62" y="247.908" width="118.389" height="323.589" filterUnits="userSpaceOnUse" color-interpolation-filters="sRGB">
<feFlood flood-opacity="0" result="BackgroundImageFix"/>
<feColorMatrix in="SourceAlpha" type="matrix" values="0 0 0 0 0 0 0 0 0 0 0 0 0 0 0 0 0 0 127 0"/>
<feOffset dy="0.795301"/>
<feGaussianBlur stdDeviation="1.98825"/>
<feColorMatrix type="matrix" values="0 0 0 0 0.664556 0 0 0 0 0.645106 0 0 0 0 0.742358 0 0 0 1 0"/>
<feBlend mode="normal" in2="BackgroundImageFix" result="effect1_dropShadow"/>
<feBlend mode="normal" in="SourceGraphic" in2="effect1_dropShadow" result="shape"/>
</filter>
<filter id="filter3_f" x="1178.76" y="413.947" width="95.1435" height="141.131" filterUnits="userSpaceOnUse" color-interpolation-filters="sRGB">
<feFlood flood-opacity="0" result="BackgroundImageFix"/>
<feBlend mode="normal" in="SourceGraphic" in2="BackgroundImageFix" result="shape"/>
<feGaussianBlur stdDeviation="0.351644" result="effect1_foregroundBlur"/>
</filter>
<filter id="filter4_d" x="425.524" y="0.419286" width="195.807" height="195.807" filterUnits="userSpaceOnUse" color-interpolation-filters="sRGB">
<feFlood flood-opacity="0" result="BackgroundImageFix"/>
<feColorMatrix in="SourceAlpha" type="matrix" values="0 0 0 0 0 0 0 0 0 0 0 0 0 0 0 0 0 0 127 0"/>
<feOffset dx="4.89518" dy="9.79036"/>
<feGaussianBlur stdDeviation="14.6855"/>
<feColorMatrix type="matrix" values="0 0 0 0 0.761999 0 0 0 0 0.812206 0 0 0 0 0.943231 0 0 0 1 0"/>
<feBlend mode="normal" in2="BackgroundImageFix" result="effect1_dropShadow"/>
<feBlend mode="normal" in="SourceGraphic" in2="effect1_dropShadow" result="shape"/>
</filter>
<linearGradient id="paint0_linear" x1="520.37" y1="785.806" x2="1881.6" y2="757.976" gradientUnits="userSpaceOnUse">
<stop offset="0.00389023" stop-color="#DAEBF5"/>
<stop offset="1" stop-color="#E3F1F9" stop-opacity="0.37"/>
</linearGradient>
<linearGradient id="paint1_linear" x1="1031.36" y1="260.804" x2="1295.21" y2="413.209" gradientUnits="userSpaceOnUse">
<stop stop-color="#F7CFC6"/>
<stop offset="1" stop-color="#F7E3C9" stop-opacity="0"/>
</linearGradient>
<linearGradient id="paint2_linear" x1="957.321" y1="-70.9648" x2="825.626" y2="183.524" gradientUnits="userSpaceOnUse">
<stop stop-color="#56B5EA" stop-opacity="0.59"/>
<stop offset="1" stop-color="#4B41B9"/>
</linearGradient>
<linearGradient id="paint3_linear" x1="1123.4" y1="9.98032" x2="848.086" y2="532.213" gradientUnits="userSpaceOnUse">
<stop stop-color="#E1E2FF"/>
<stop offset="1" stop-color="white"/>
</linearGradient>
<linearGradient id="paint4_linear" x1="931.504" y1="108.593" x2="931.504" y2="290.768" gradientUnits="userSpaceOnUse">
<stop stop-color="#66CED7"/>
<stop offset="1" stop-color="#2AA3AE"/>
</linearGradient>
<linearGradient id="paint5_linear" x1="935.205" y1="108.215" x2="935.205" y2="290.606" gradientUnits="userSpaceOnUse">
<stop stop-color="#FF939A"/>
<stop offset="1" stop-color="#EB7179"/>
</linearGradient>
<linearGradient id="paint6_linear" x1="888.182" y1="166.961" x2="888.182" y2="294.525" gradientUnits="userSpaceOnUse">
<stop stop-color="#FDC672"/>
<stop offset="1" stop-color="#F1B14F"/>
</linearGradient>
<linearGradient id="paint7_linear" x1="975.872" y1="167.177" x2="975.872" y2="294.579" gradientUnits="userSpaceOnUse">
<stop stop-color="#FDC672"/>
<stop offset="1" stop-color="#F1B14F"/>
</linearGradient>
<linearGradient id="paint8_linear" x1="832.01" y1="124.596" x2="969.94" y2="220.793" gradientUnits="userSpaceOnUse">
<stop stop-color="#E89D9D"/>
<stop offset="1" stop-color="#C06A6A"/>
</linearGradient>
<linearGradient id="paint9_linear" x1="819.21" y1="141.279" x2="837.806" y2="250.319" gradientUnits="userSpaceOnUse">
<stop stop-color="#E89D9D" stop-opacity="0"/>
<stop offset="1" stop-color="#CD7171"/>
</linearGradient>
<linearGradient id="paint10_linear" x1="1033.35" y1="124.596" x2="895.421" y2="220.793" gradientUnits="userSpaceOnUse">
<stop stop-color="#E89D9D"/>
<stop offset="1" stop-color="#C06A6A"/>
</linearGradient>
<linearGradient id="paint11_linear" x1="1046.15" y1="141.279" x2="1027.56" y2="250.319" gradientUnits="userSpaceOnUse">
<stop stop-color="#E89D9D" stop-opacity="0"/>
<stop offset="1" stop-color="#CD7171"/>
</linearGradient>
<linearGradient id="paint12_linear" x1="1086.82" y1="310.434" x2="1102.12" y2="256.301" gradientUnits="userSpaceOnUse">
<stop stop-color="#C4CCE2" stop-opacity="0.52"/>
<stop offset="0.954354" stop-color="#C8D0E7" stop-opacity="0"/>
</linearGradient>
<linearGradient id="paint13_linear" x1="621.609" y1="584.136" x2="838.098" y2="848.167" gradientUnits="userSpaceOnUse">
<stop stop-color="#555399"/>
<stop offset="1" stop-color="#B84545"/>
</linearGradient>
<linearGradient id="paint14_linear" x1="691.455" y1="575.05" x2="876.079" y2="798.744" gradientUnits="userSpaceOnUse">
<stop stop-color="#351F74"/>
<stop offset="1" stop-color="#573D81"/>
</linearGradient>
<linearGradient id="paint15_linear" x1="879.046" y1="522.172" x2="469.046" y2="426.172" gradientUnits="userSpaceOnUse">
<stop stop-color="#897AE2"/>
<stop offset="1" stop-color="#403F9C"/>
</linearGradient>
<linearGradient id="paint16_linear" x1="646.459" y1="278.192" x2="634.735" y2="289.305" gradientUnits="userSpaceOnUse">
<stop stop-color="#E0A780"/>
<stop offset="1" stop-color="#E0A780" stop-opacity="0"/>
</linearGradient>
<linearGradient id="paint17_linear" x1="895.155" y1="725.773" x2="834.089" y2="750.081" gradientUnits="userSpaceOnUse">
<stop stop-color="#3B47B0"/>
<stop offset="1" stop-color="#15227D"/>
</linearGradient>
<linearGradient id="paint18_linear" x1="777.574" y1="734.74" x2="874.525" y2="777.725" gradientUnits="userSpaceOnUse">
<stop stop-color="#3B47B0"/>
<stop offset="1" stop-color="#15227D"/>
</linearGradient>
<linearGradient id="paint19_linear" x1="844.178" y1="717.793" x2="757.321" y2="515.067" gradientUnits="userSpaceOnUse">
<stop stop-color="#20146C"/>
<stop offset="1" stop-color="#382A8D"/>
</linearGradient>
<linearGradient id="paint20_linear" x1="694.455" y1="481.608" x2="728.576" y2="747.498" gradientUnits="userSpaceOnUse">
<stop stop-color="#5352A1"/>
<stop offset="1" stop-color="#271B72"/>
</linearGradient>
<linearGradient id="paint21_linear" x1="749.742" y1="378.674" x2="815.103" y2="415.204" gradientUnits="userSpaceOnUse">
<stop offset="0.0127845" stop-color="white"/>
<stop offset="1" stop-color="#EAF0FF"/>
</linearGradient>
<linearGradient id="paint22_linear" x1="765.418" y1="401.349" x2="763.479" y2="412.032" gradientUnits="userSpaceOnUse">
<stop stop-color="#C4CCE2" stop-opacity="0.52"/>
<stop offset="0.954354" stop-color="#C8D0E7" stop-opacity="0"/>
</linearGradient>
<linearGradient id="paint23_linear" x1="638.576" y1="343.105" x2="732.594" y2="479.521" gradientUnits="userSpaceOnUse">
<stop offset="0.0127845" stop-color="white"/>
<stop offset="1" stop-color="#EAF0FF"/>
</linearGradient>
<linearGradient id="paint24_linear" x1="662.5" y1="367" x2="637.068" y2="393.798" gradientUnits="userSpaceOnUse">
<stop stop-color="#D7E2FF"/>
<stop offset="1" stop-color="#E3E8F6" stop-opacity="0"/>
</linearGradient>
<linearGradient id="paint25_linear" x1="608.501" y1="523.792" x2="655.616" y2="341.615" gradientUnits="userSpaceOnUse">
<stop stop-color="#BCADDA"/>
<stop offset="1" stop-color="#D9CAE5"/>
</linearGradient>
<linearGradient id="paint26_linear" x1="652.597" y1="421.778" x2="646.439" y2="439.249" gradientUnits="userSpaceOnUse">
<stop stop-color="#B19FC8"/>
<stop offset="1" stop-color="#CBBDE0" stop-opacity="0"/>
</linearGradient>
<linearGradient id="paint27_linear" x1="628.78" y1="292.738" x2="630.358" y2="322.643" gradientUnits="userSpaceOnUse">
<stop stop-color="#B199C4"/>
<stop offset="1" stop-color="#DACBE6" stop-opacity="0.09"/>
</linearGradient>
<linearGradient id="paint28_linear" x1="612.09" y1="368.466" x2="621.046" y2="508.172" gradientUnits="userSpaceOnUse">
<stop stop-color="#B199C4"/>
<stop offset="1" stop-color="#DACBE6" stop-opacity="0.09"/>
</linearGradient>
<linearGradient id="paint29_linear" x1="623.517" y1="275.898" x2="670.602" y2="254.542" gradientUnits="userSpaceOnUse">
<stop stop-color="#252525"/>
<stop offset="1" stop-color="#73655A"/>
</linearGradient>
<linearGradient id="paint30_linear" x1="678.714" y1="469.149" x2="682.942" y2="477.955" gradientUnits="userSpaceOnUse">
<stop stop-color="#C79978"/>
<stop offset="1" stop-color="#C79978" stop-opacity="0"/>
</linearGradient>
<linearGradient id="paint31_linear" x1="719.979" y1="388.61" x2="654.04" y2="475.63" gradientUnits="userSpaceOnUse">
<stop stop-color="white"/>
<stop offset="1" stop-color="#EAF0FF"/>
</linearGradient>
<linearGradient id="paint32_linear" x1="675.818" y1="424.922" x2="612.96" y2="436.182" gradientUnits="userSpaceOnUse">
<stop stop-color="#D7E2FF"/>
<stop offset="1" stop-color="#E3E8F6" stop-opacity="0"/>
</linearGradient>
<linearGradient id="paint33_linear" x1="716.109" y1="500.229" x2="745.827" y2="731.812" gradientUnits="userSpaceOnUse">
<stop stop-color="#2F2479"/>
<stop offset="1" stop-color="#31277C" stop-opacity="0.03"/>
</linearGradient>
<linearGradient id="paint34_linear" x1="647.816" y1="504.196" x2="559.102" y2="674.088" gradientUnits="userSpaceOnUse">
<stop stop-color="#D1CAFF"/>
<stop offset="1" stop-color="#ECB3B3"/>
</linearGradient>
<linearGradient id="paint35_linear" x1="1148.25" y1="498.096" x2="1153.62" y2="598.396" gradientUnits="userSpaceOnUse">
<stop stop-color="#6248FE"/>
<stop offset="1" stop-color="#3C32AE"/>
</linearGradient>
<linearGradient id="paint36_linear" x1="1149.58" y1="483.972" x2="1131.47" y2="662.343" gradientUnits="userSpaceOnUse">
<stop stop-color="white"/>
<stop offset="1" stop-color="white" stop-opacity="0"/>
</linearGradient>
<linearGradient id="paint37_linear" x1="1084.68" y1="485.114" x2="1100.11" y2="521.539" gradientUnits="userSpaceOnUse">
<stop stop-color="#762592"/>
<stop offset="1" stop-color="#410D76"/>
</linearGradient>
<linearGradient id="paint38_linear" x1="1116.45" y1="519.968" x2="1107.29" y2="547.607" gradientUnits="userSpaceOnUse">
<stop stop-color="#762592"/>
<stop offset="1" stop-color="#410D76"/>
</linearGradient>
<linearGradient id="paint39_linear" x1="1077.98" y1="539.965" x2="1105.43" y2="549.67" gradientUnits="userSpaceOnUse">
<stop stop-color="#762592"/>
<stop offset="1" stop-color="#410D76"/>
</linearGradient>
<linearGradient id="paint40_linear" x1="1121.8" y1="540.77" x2="1110.17" y2="575.856" gradientUnits="userSpaceOnUse">
<stop stop-color="#762592"/>
<stop offset="1" stop-color="#410D76"/>
</linearGradient>
<linearGradient id="paint41_linear" x1="1072.97" y1="566.155" x2="1107.82" y2="578.474" gradientUnits="userSpaceOnUse">
<stop stop-color="#762592"/>
<stop offset="1" stop-color="#410D76"/>
</linearGradient>
<linearGradient id="paint42_linear" x1="1041.38" y1="523.813" x2="1120.32" y2="568.315" gradientUnits="userSpaceOnUse">
<stop stop-color="#6248FE"/>
<stop offset="1" stop-color="#3C32AE"/>
</linearGradient>
<linearGradient id="paint43_linear" x1="1034.19" y1="515.98" x2="1137.35" y2="667.009" gradientUnits="userSpaceOnUse">
<stop stop-color="white"/>
<stop offset="1" stop-color="white" stop-opacity="0"/>
</linearGradient>
<linearGradient id="paint44_linear" x1="1099.17" y1="666.889" x2="1138.87" y2="729.65" gradientUnits="userSpaceOnUse">
<stop stop-color="#D1CAFF"/>
<stop offset="1" stop-color="#ECB3B3"/>
</linearGradient>
<linearGradient id="paint45_linear" x1="1078.91" y1="259.706" x2="1070.08" y2="261.596" gradientUnits="userSpaceOnUse">
<stop offset="0.182023" stop-color="#91A6DF"/>
<stop offset="1" stop-color="#BECAEB"/>
</linearGradient>
<linearGradient id="paint46_linear" x1="1086.72" y1="226.776" x2="1115.53" y2="327.159" gradientUnits="userSpaceOnUse">
<stop offset="0.0127845" stop-color="white"/>
<stop offset="1" stop-color="#EAF0FF"/>
</linearGradient>
<linearGradient id="paint47_linear" x1="1138.51" y1="283.788" x2="1135.98" y2="304.862" gradientUnits="userSpaceOnUse">
<stop stop-color="#C4CCE2" stop-opacity="0.52"/>
<stop offset="0.954354" stop-color="#C8D0E7" stop-opacity="0"/>
</linearGradient>
<linearGradient id="paint48_linear" x1="1191.04" y1="234.521" x2="1188.62" y2="249.63" gradientUnits="userSpaceOnUse">
<stop stop-color="#E0A780"/>
<stop offset="1" stop-color="#E0A780" stop-opacity="0"/>
</linearGradient>
<linearGradient id="paint49_linear" x1="1150.23" y1="286.552" x2="1239.43" y2="327.367" gradientUnits="userSpaceOnUse">
<stop stop-color="#91A6DF"/>
<stop offset="1" stop-color="#BECAEB"/>
</linearGradient>
<linearGradient id="paint50_linear" x1="1226.84" y1="425.377" x2="1184.09" y2="285.78" gradientUnits="userSpaceOnUse">
<stop stop-color="#BCADDA"/>
<stop offset="1" stop-color="#D9CAE5"/>
</linearGradient>
<linearGradient id="paint51_linear" x1="1203.2" y1="253.987" x2="1203.2" y2="390.93" gradientUnits="userSpaceOnUse">
<stop stop-color="#B199C4"/>
<stop offset="1" stop-color="#DACBE6" stop-opacity="0.09"/>
</linearGradient>
<linearGradient id="paint52_linear" x1="1124.77" y1="716.868" x2="1134.26" y2="745.099" gradientUnits="userSpaceOnUse">
<stop stop-color="#5352A1"/>
<stop offset="1" stop-color="#271B72"/>
</linearGradient>
<linearGradient id="paint53_linear" x1="1180.94" y1="384.323" x2="1180.94" y2="703.568" gradientUnits="userSpaceOnUse">
<stop stop-color="#5352A1"/>
<stop offset="1" stop-color="#271B72"/>
</linearGradient>
<linearGradient id="paint54_linear" x1="1209.06" y1="744.029" x2="1220.27" y2="771.623" gradientUnits="userSpaceOnUse">
<stop stop-color="#5352A1"/>
<stop offset="1" stop-color="#271B72"/>
</linearGradient>
<linearGradient id="paint55_linear" x1="1224.37" y1="394.087" x2="1192.34" y2="728.833" gradientUnits="userSpaceOnUse">
<stop stop-color="#5352A1"/>
<stop offset="1" stop-color="#271B72"/>
</linearGradient>
<linearGradient id="paint56_linear" x1="1166.98" y1="476.102" x2="1166.98" y2="703.697" gradientUnits="userSpaceOnUse">
<stop stop-color="#2F2479"/>
<stop offset="1" stop-color="#31277C" stop-opacity="0.03"/>
</linearGradient>
<linearGradient id="paint57_linear" x1="1199.93" y1="247.632" x2="1199.93" y2="271.689" gradientUnits="userSpaceOnUse">
<stop stop-color="#B199C4"/>
<stop offset="1" stop-color="#DACBE6" stop-opacity="0.09"/>
</linearGradient>
<linearGradient id="paint58_linear" x1="1214.2" y1="347.065" x2="1224.05" y2="443.583" gradientUnits="userSpaceOnUse">
<stop stop-color="#AAA1B9"/>
<stop offset="1" stop-color="#D3C5EA"/>
</linearGradient>
<linearGradient id="paint59_linear" x1="1164.43" y1="284.047" x2="1285.22" y2="332.383" gradientUnits="userSpaceOnUse">
<stop offset="0.0127845" stop-color="white"/>
<stop offset="1" stop-color="#EAF0FF"/>
</linearGradient>
<linearGradient id="paint60_linear" x1="1214.73" y1="382.348" x2="1299.92" y2="325.657" gradientUnits="userSpaceOnUse">
<stop stop-color="#C4CCE2" stop-opacity="0.52"/>
<stop offset="0.954354" stop-color="#C8D0E7" stop-opacity="0"/>
</linearGradient>
<linearGradient id="paint61_linear" x1="1208.02" y1="364.414" x2="1229.44" y2="434.781" gradientUnits="userSpaceOnUse">
<stop stop-color="white"/>
<stop offset="1" stop-color="#D9E4FF"/>
</linearGradient>
<linearGradient id="paint62_linear" x1="1208.02" y1="364.414" x2="1229.44" y2="434.781" gradientUnits="userSpaceOnUse">
<stop stop-color="white"/>
<stop offset="1" stop-color="#A9C1FF"/>
</linearGradient>
<linearGradient id="paint63_linear" x1="1285.28" y1="515.948" x2="1258.05" y2="471.51" gradientUnits="userSpaceOnUse">
<stop stop-color="#D6E1FF"/>
<stop offset="1" stop-color="#E3E8F6" stop-opacity="0"/>
</linearGradient>
<linearGradient id="paint64_linear" x1="1256.28" y1="363.374" x2="1228.24" y2="394.349" gradientUnits="userSpaceOnUse">
<stop stop-color="#C4CCE2" stop-opacity="0.52"/>
<stop offset="0.954354" stop-color="#C8D0E7" stop-opacity="0"/>
</linearGradient>
<linearGradient id="paint65_linear" x1="1234.98" y1="419.766" x2="1235.61" y2="267.72" gradientUnits="userSpaceOnUse">
<stop stop-color="white"/>
<stop offset="1" stop-color="#EAF0FF"/>
</linearGradient>
<linearGradient id="paint66_linear" x1="1173.88" y1="252.344" x2="1176.16" y2="279.004" gradientUnits="userSpaceOnUse">
<stop stop-color="#212352"/>
<stop offset="1" stop-color="#4F5297"/>
</linearGradient>
<linearGradient id="paint67_linear" x1="1222.08" y1="247.492" x2="1218.95" y2="267.449" gradientUnits="userSpaceOnUse">
<stop stop-color="#212352"/>
<stop offset="1" stop-color="#4F5297"/>
</linearGradient>
<linearGradient id="paint68_linear" x1="1199.15" y1="319.314" x2="1214.61" y2="275.546" gradientUnits="userSpaceOnUse">
<stop stop-color="#B8A0FC"/>
<stop offset="1" stop-color="#26285A"/>
</linearGradient>
<linearGradient id="paint69_linear" x1="1200.81" y1="320.009" x2="1219.7" y2="277.698" gradientUnits="userSpaceOnUse">
<stop stop-color="#B8A0FC"/>
<stop offset="1" stop-color="#26285A"/>
</linearGradient>
<linearGradient id="paint70_linear" x1="1224.12" y1="246.813" x2="1220.98" y2="266.771" gradientUnits="userSpaceOnUse">
<stop stop-color="#212352"/>
<stop offset="1" stop-color="#4F5297"/>
</linearGradient>
<linearGradient id="paint71_linear" x1="1201.18" y1="318.635" x2="1216.65" y2="274.868" gradientUnits="userSpaceOnUse">
<stop stop-color="#B8A0FC"/>
<stop offset="1" stop-color="#26285A"/>
</linearGradient>
<linearGradient id="paint72_linear" x1="1202.54" y1="326.299" x2="1209.95" y2="326.782" gradientUnits="userSpaceOnUse">
<stop stop-color="#756AB2"/>
<stop offset="1" stop-color="#C4B3FF"/>
</linearGradient>
<linearGradient id="paint73_linear" x1="1202.84" y1="319.33" x2="1221.74" y2="277.02" gradientUnits="userSpaceOnUse">
<stop stop-color="#B8A0FC"/>
<stop offset="1" stop-color="#26285A"/>
</linearGradient>
<linearGradient id="paint74_linear" x1="1.19355" y1="1.29884" x2="9.25689" y2="1.8477" gradientUnits="userSpaceOnUse">
<stop stop-color="#756AB2"/>
<stop offset="1" stop-color="#C4B3FF"/>
</linearGradient>
<linearGradient id="paint75_linear" x1="1228.74" y1="196.939" x2="1203.03" y2="156.502" gradientUnits="userSpaceOnUse">
<stop stop-color="#140D3E"/>
<stop offset="1" stop-color="#8D6589"/>
</linearGradient>
<linearGradient id="paint76_linear" x1="1209.07" y1="191.703" x2="1146.78" y2="225.021" gradientUnits="userSpaceOnUse">
<stop stop-color="#E0A780"/>
<stop offset="1" stop-color="#E0A780" stop-opacity="0"/>
</linearGradient>
<linearGradient id="paint77_linear" x1="-4.16617" y1="-0.34314" x2="-0.612698" y2="23.5536" gradientUnits="userSpaceOnUse">
<stop stop-color="#D1CAFF"/>
<stop offset="1" stop-color="#BA6A6A"/>
</linearGradient>
<linearGradient id="paint78_linear" x1="364" y1="597" x2="364.621" y2="655.062" gradientUnits="userSpaceOnUse">
<stop stop-color="#CED3FF" stop-opacity="0.95"/>
<stop offset="1" stop-color="#8C66BC"/>
</linearGradient>
<linearGradient id="paint79_linear" x1="333.675" y1="654.734" x2="291.174" y2="586.399" gradientUnits="userSpaceOnUse">
<stop stop-color="#4654CE"/>
<stop offset="1" stop-color="#DFE8FF"/>
</linearGradient>
<linearGradient id="paint80_linear" x1="419" y1="476" x2="375.694" y2="557.884" gradientUnits="userSpaceOnUse">
<stop stop-color="#6248FE" stop-opacity="0.25"/>
<stop offset="1" stop-color="#5C3D8D"/>
</linearGradient>
<linearGradient id="paint81_linear" x1="461.263" y1="715.154" x2="415.592" y2="775.11" gradientUnits="userSpaceOnUse">
<stop stop-color="#ECE9FF"/>
<stop offset="1" stop-color="#ECB3B3"/>
</linearGradient>
<linearGradient id="paint82_linear" x1="416.074" y1="636.686" x2="311.572" y2="579.519" gradientUnits="userSpaceOnUse">
<stop stop-color="#4A12B7"/>
<stop offset="1" stop-color="#DFE8FF"/>
</linearGradient>
<linearGradient id="paint83_linear" x1="450.353" y1="176.294" x2="505.762" y2="134.516" gradientUnits="userSpaceOnUse">
<stop stop-color="#A19EF8"/>
<stop offset="1" stop-color="#77D9D3" stop-opacity="0.41"/>
</linearGradient>
<linearGradient id="paint84_linear" x1="170.557" y1="605.162" x2="260.905" y2="537.039" gradientUnits="userSpaceOnUse">
<stop stop-color="#5D80E3"/>
<stop offset="1" stop-color="#77D9D3" stop-opacity="0.41"/>
</linearGradient>
<linearGradient id="paint85_linear" x1="954.824" y1="521.353" x2="1057.39" y2="444.019" gradientUnits="userSpaceOnUse">
<stop stop-color="#E7C2A7"/>
<stop offset="1" stop-color="#E29696"/>
</linearGradient>
</defs>
</svg>
