<svg width="1147" height="881" viewBox="0 0 1147 881" fill="none" xmlns="http://www.w3.org/2000/svg">
<path fill-rule="evenodd" clip-rule="evenodd" d="M211 501C217 440 246.074 334.193 342 275C378.853 256.862 468.41 230.758 568.114 284.217C603.961 303.946 707.216 322.975 833.453 241.259C907.159 194.164 1073.87 108.565 1151.06 142.932V518.102L1150.07 518.084V788.47C1079.88 794.312 980.309 750.487 922.966 725.247C912.794 720.77 903.951 716.878 896.836 713.951C763.748 659.208 665.372 680.668 601.876 694.519C594.961 696.028 588.46 697.446 582.372 698.666C511.154 713.951 445.188 721.802 412.765 723.505C248.284 732.145 201.17 610.45 211.35 501.006L211 501Z" fill="url(#paint0_linear)"/>
<path opacity="0.2" d="M366.298 384.524C601.205 306.123 909.177 306.141 1033.8 315.95C1112.21 330.591 1055.28 344.374 1017.01 349.436C932.798 366.75 1270.97 402.139 1450.58 417.669C1624.65 422.742 1557.39 440.344 1501.99 448.51C997.455 494.344 559.733 482.308 403.939 470.56C234.15 452.022 308.099 405.478 366.298 384.524Z" fill="url(#paint1_linear)"/>
<g opacity="0.15">
<rect x="291.358" y="571" width="19.6328" height="76.3497" rx="9.81639" fill="#D8D9DB"/>
<rect x="263" y="618.991" width="19.6328" height="76.3497" rx="9.81639" transform="rotate(-90 263 618.991)" fill="#D8D9DB"/>
</g>
<g opacity="0.5">
<path opacity="0.5" d="M57.3974 816.832C122.783 797.857 86.7544 782.877 77.4135 779.881C-19.7312 767.896 12.917 756.245 41.3842 751.917C110.773 738.335 253.555 741.597 316.272 744.926C425.16 761.704 603.615 756.578 679.231 751.917C830.82 747.922 1003.05 753.582 1070.21 756.911C1211.13 761.704 1165.4 774.221 1124.92 779.881C1096.1 779.082 1112.91 789.535 1124.92 794.861C1274.38 852.386 1105.35 859.443 1002.16 855.781C889 850.189 810.893 861.441 785.984 867.766C664.286 891.734 511.985 877.753 451.047 867.766C337.89 854.982 210.854 859.11 161.481 862.772C-68.0369 872.36 -3.54056 836.14 57.3974 816.832Z" fill="url(#paint2_linear)"/>
<path d="M1111.76 812.521C1114.55 792.183 1092.04 789.52 1080.44 790.731C1047.04 795.089 942.403 784.072 894.263 778.019C731.398 757.681 586.282 769.545 534.082 778.019C463.089 788.188 410.541 787.099 393.141 785.283C362.517 780.925 303.821 783.467 278.301 785.283C225.405 789.641 182.02 793.152 166.94 794.362C47.2279 810.342 143.74 822.811 206.96 827.048C257.073 834.312 408.801 833.707 478.401 832.496C528.514 832.496 580.482 838.549 600.202 841.575C671.194 848.839 728.382 844.602 748.102 841.575C784.295 838.67 839.743 834.312 862.943 832.496C948.203 825.232 1009.1 832.496 1014.32 832.496C1089.49 841.212 1110.6 822.811 1111.76 812.521Z" fill="url(#paint3_linear)"/>
</g>
<path d="M553.559 148.149C531.869 133.826 493.367 141.158 476.827 147.126C471.506 151.218 471.859 166.289 472.541 172.939L564.108 162.197C560.698 157.934 553.559 149.377 553.559 148.149Z" fill="#A1A9C0"/>
<path d="M578.943 90.1933C577.688 83.927 575.406 70.3393 574.421 64.3288C543.976 27.5335 512.92 53.9423 501.198 71.7461C490.54 88.461 499.382 107.967 505.135 115.631L494.339 139.423C502.178 167.41 520.318 163.617 533.632 165.6C543.248 166.504 548.679 154.717 550.469 147.441C547.468 145.441 542.468 142.44 540.967 141.44C539.358 140.367 543.391 133.955 544.695 131.775C582.697 148.35 583.361 110.96 578.943 90.1933Z" fill="#F3BB93"/>
<path d="M584.374 102.765C583.889 101.784 579.825 95.0987 577.854 91.8784L577.631 106.095C584.242 104.66 584.881 103.277 584.374 102.765Z" fill="#F3BB93"/>
<path fill-rule="evenodd" clip-rule="evenodd" d="M544.686 131.79C541.319 130.206 537.903 128.214 534.711 125.734C530.539 122.491 522.436 119.139 537.701 154.288C538.395 154.245 544.049 151.696 550.367 147.848C550.402 147.711 550.437 147.575 550.47 147.441C548.712 146.269 546.268 144.754 544.243 143.499C542.812 142.612 541.59 141.854 540.968 141.44C539.469 140.44 542.867 134.807 544.392 132.278C544.501 132.099 544.599 131.935 544.686 131.79Z" fill="url(#paint4_linear)"/>
<path d="M570.148 86.1532C571.577 86.6881 571.306 87.8228 570.322 88.852C569.488 89.7235 568.019 88.7672 567.989 87.6706C567.934 85.6815 569.367 85.5174 570.676 86.1548C571.393 86.5041 570.613 87.9796 570.311 88.3449C569.468 89.3654 567.748 88.1421 568.866 87.3504C569.519 86.8884 570.755 87.4134 569.896 88.2108C569.536 88.5444 569.219 87.8183 569.446 87.5514C569.652 87.3098 569.954 87.4999 569.985 87.7282" stroke="black" stroke-width="1.34171" stroke-linecap="round" stroke-linejoin="round"/>
<path d="M570.161 81.8071C567.558 81.6349 565.059 81.7896 562.653 82.991C561.575 83.529 560.283 84.1899 559.545 85.1967" stroke="black" stroke-width="1.34171" stroke-linecap="round" stroke-linejoin="round"/>
<path d="M573.546 115.066C571.388 115.343 569.873 114.844 568.121 113.528C567.034 112.71 565.731 111.422 565.118 110.15" stroke="black" stroke-width="1.34171" stroke-linecap="round" stroke-linejoin="round"/>
<path d="M490.96 501.995C501.893 498.561 510.13 498.495 513.964 497.995L492.461 480.992C482.459 482.592 476.292 489.66 474.458 492.994C468.457 507.396 482.454 503.677 490.96 501.995Z" fill="url(#paint5_linear)"/>
<path d="M629.5 442C637.5 438.8 644.833 433.667 647.5 431.5L626 430L629.5 442Z" fill="url(#paint6_linear)"/>
<path d="M619.55 445.871L623.642 440.244C622.414 438.607 614.264 435.129 610.342 433.594L619.55 445.871Z" fill="#616E91"/>
<path d="M633.433 769.29C630.3 781.745 665.36 783.494 683.281 782.811C710.896 779.107 694.437 768.08 682.755 763.029C647.485 758.028 635.178 765.119 633.433 769.29Z" fill="#D7E0F9"/>
<path d="M643.338 758.458C646.123 752.174 648.888 732.52 649.922 723.478L677.161 723.95C678.654 736.257 697.539 748.648 706.795 753.306C714.085 757.189 730.544 764.943 737.862 768.334C760.956 779.794 734.439 781.056 718.294 780.254C703.032 778.862 680.588 779.665 671.274 780.241C641.384 781.539 640.196 766.259 643.338 758.458Z" fill="#F3BB93"/>
<path d="M679.099 730.16C670.188 733.114 651.148 740.73 646.272 747.565C647.082 741.159 648.761 727.962 649.004 726.417C649.117 725.696 649.117 725.331 649.068 725.17L648.8 725.197C648.89 725.071 649.012 724.986 649.068 725.17L677.162 722.333C676.994 723.824 677.145 727.477 679.099 730.16Z" fill="url(#paint7_linear)"/>
<path d="M677.584 783.093C677.386 764.245 698.359 751.402 705.041 747.325C739.214 760.332 753.089 772.114 749.692 777.153C738.287 781.816 692.731 786.189 677.584 783.093Z" fill="url(#paint8_linear)"/>
<path d="M510.124 780.333C504.726 791.987 538.847 800.234 556.582 802.901C584.404 804.404 570.286 790.505 559.749 783.367C526.027 771.886 512.615 776.561 510.124 780.333Z" fill="#D7E0F9"/>
<path d="M521.872 771.535C525.779 765.88 532.155 747.084 534.855 738.393L561.53 743.93C560.705 756.299 576.952 771.991 585.179 778.291C591.619 783.464 606.345 794.146 612.904 798.841C633.46 814.401 607.172 810.702 591.458 806.908C576.722 802.699 554.522 799.309 545.263 798.14C515.654 793.848 517.332 778.615 521.872 771.535Z" fill="#F3BB93"/>
<path d="M562.278 750.392C552.973 751.634 532.848 755.572 526.784 761.379C528.772 755.237 532.88 742.583 533.407 741.11C533.652 740.423 533.72 740.064 533.702 739.897L533.433 739.874C533.545 739.766 533.68 739.706 533.702 739.897L561.833 742.341C561.389 743.775 560.858 747.392 562.278 750.392Z" fill="url(#paint9_linear)"/>
<path d="M550.932 802.117C554.247 783.562 577.245 774.849 584.569 772.088C615.723 791.23 627.161 805.39 622.884 809.709C610.81 812.166 565.237 807.979 550.932 802.117Z" fill="url(#paint10_linear)"/>
<path d="M563.281 515.757L478.281 488.257C410.281 466.257 431.948 425.091 451.281 407.257C496.081 376.857 552.281 376.924 574.781 380.757L680.781 473.257C702.781 492.457 706.948 509.591 706.281 515.757L682.781 724.757H645L637.781 523.757L566.281 745.257L530.781 741.757C530.781 717.357 552.448 601.591 563.281 546.757C568.172 522 566.5 517.5 563.281 515.757Z" fill="url(#paint11_linear)"/>
<path opacity="0.6" d="M581.694 436.152C598.473 439.835 637.679 440.124 644.5 442C643.272 438.726 591.243 399.661 576.067 378.347L448.691 397.274L468.5 485.5L500.5 495C495.998 486.406 518.774 471.79 532.074 464.287C544.76 459.376 539.747 450.987 535.655 447.406C524.401 436.152 514.34 422.34 508.543 413.132C522.457 404.129 553.559 396.592 567.371 394.716C567.78 399.218 569.758 415.178 570.44 421.317C572.077 431.957 578.625 435.64 581.694 436.152Z" fill="url(#paint12_linear)"/>
<path d="M537.821 155.793C522.619 158.593 503.036 147.097 492.684 138.43C492.684 142.83 464.158 151.701 452.904 174.72L450.737 416.202C526.447 385.509 565.836 388.066 585.275 393.693C561.671 370.09 561.971 335.303 561.471 313.967V213.951L589.975 180.446C585.175 172.845 575.973 163.944 571.973 160.443C564.933 152.724 549.305 145.838 544.471 143.004C542.071 155.406 541.155 155.126 537.821 155.793Z" fill="url(#paint13_linear)"/>
<path d="M543.449 161.931C541.812 166.842 534.582 166.024 531.172 165.001L537.31 156.304L543.449 161.931Z" fill="#ECF1FF"/>
<path d="M530.148 179.324L488.713 142.493L496.386 136.865L537.822 156.816L544.983 144.027L549.587 172.162L537.822 158.351L530.148 179.324Z" fill="url(#paint14_linear)"/>
<path d="M537.311 156.523L495.931 134.819L490.248 139.351L529.236 172.674L537.311 156.523Z" fill="white"/>
<path d="M537.31 156.596L540.576 140.958H544.719L545.495 164.489L537.31 156.596Z" fill="white"/>
<path opacity="0.4" d="M502.404 233.578C504.041 197.565 487.74 160.938 479.385 147.126C476.929 149.172 470.859 153.776 468.131 155.822L443.576 333.33L473.758 459.683L497.801 399.32C488.081 357.885 491.15 333.33 497.801 304.684C500.665 283.403 502.063 249.266 502.404 233.578Z" fill="url(#paint15_linear)"/>
<path opacity="0.7" d="M562.767 345.509C551.718 338.143 514.17 339.03 496.777 340.394C507.008 348.579 501.04 367.677 496.777 376.202C511.101 371.701 534.121 370.916 543.84 371.087C575.761 369.859 569.759 353.524 562.767 345.509Z" fill="url(#paint16_linear)"/>
<path opacity="0.7" d="M553.51 241.251C555.966 210.149 555.557 167.588 555.045 150.195L564.765 155.822L561.695 239.205L567.322 391.136C552.999 338.344 552.146 269.216 553.51 241.251Z" fill="url(#paint17_linear)"/>
<path d="M495.961 298.464C506.763 215.252 487.46 162.777 476.458 146.941C401.012 177.677 391.408 288.913 386.586 335.873C374.149 456.988 437.786 481.659 475.458 502.995C469.857 494.194 489.46 481.326 499.962 475.991C513.564 469.991 528.633 460.822 534.467 456.988C538.468 454.188 535.134 449.487 532.967 447.487C482.159 394.279 487.127 325.969 495.961 298.464Z" fill="url(#paint18_linear)"/>
<path d="M722.996 227.018C727.83 219.184 742.699 203.35 765.503 196.949C779.131 192.922 797.219 188.608 775.255 200.099C782.582 196.953 791.511 195.064 795.007 198.949C800.008 207.45 796.507 211.951 774.004 222.518H782.505C785.672 222.518 790.506 224.453 772.504 229.019C769.049 229.895 760.302 233.054 757.501 235.455C747 241.956 738.298 244.156 731.497 246.956L722.996 227.018Z" fill="#C4C4C4"/>
<path d="M762.502 200.949C750.1 203.75 737.331 212.785 732.497 216.952L742.999 227.453C746.599 226.253 751.167 218.285 753 214.452C767.002 204.05 765.169 201.116 762.502 200.949Z" fill="#877676"/>
<path d="M592.5 176.5C583.379 161.031 561.669 151.252 553.168 146.585C556.769 154.986 557.304 203.783 556.97 226.453C553.77 285.596 558.304 339.109 560.971 358.474C564.171 385.278 570.306 413.982 572.973 424.984C574.573 430.184 579.648 430.819 586.975 431.485C601.133 432.772 647.5 431.485 647.5 431.485C595.5 384 574.149 346 572.973 326C572.173 312.398 567.805 262.626 568.972 241.456L633.482 294.464C645.884 303.265 659.986 298.131 665.487 294.464L741.998 252.957C732.397 246.957 725.663 232.788 723.496 226.453L657.5 246.5C632.776 246.5 609.502 205.338 592.5 176.5Z" fill="url(#paint19_linear)"/>
<path fill-rule="evenodd" clip-rule="evenodd" d="M691.279 280.472L657.405 291.895C631.316 295.476 587.152 250.289 570.441 212.093C571.486 215.748 571.058 220.64 570.435 227.776C570.091 231.72 569.686 236.351 569.438 241.837L633.483 294.464C645.885 303.265 659.987 298.131 665.488 294.464L691.279 280.472Z" fill="url(#paint20_linear)"/>
<path d="M519.429 110.494C519.273 109.961 518.715 109.656 518.182 109.811C517.649 109.967 517.344 110.525 517.499 111.058L519.429 110.494ZM518.464 158.943L517.463 158.857L518.464 158.943ZM540.968 184.947L540.932 185.951L540.962 185.952L540.993 185.952L540.968 184.947ZM562.471 158.943L563.474 159.002L563.476 158.972V158.943H562.471ZM564.689 137.344C564.937 136.848 564.736 136.244 564.239 135.996C563.743 135.747 563.139 135.949 562.891 136.445L564.689 137.344ZM517.499 111.058C518.951 116.032 519.458 122.054 519.338 129.826C519.219 137.596 518.475 147.045 517.463 158.857L519.466 159.029C520.477 147.228 521.228 137.709 521.349 129.857C521.47 122.007 520.964 115.752 519.429 110.494L517.499 111.058ZM517.463 158.857C516.927 165.108 516.908 171.713 520.055 176.858C523.26 182.097 529.552 185.545 540.932 185.951L541.003 183.942C529.98 183.549 524.484 180.246 521.77 175.808C518.998 171.277 518.93 165.28 519.466 159.029L517.463 158.857ZM540.993 185.952C544.546 185.863 549.856 184.384 554.44 180.283C559.051 176.157 562.86 169.439 563.474 159.002L561.467 158.884C560.881 168.85 557.273 175.05 553.099 178.784C548.899 182.542 544.057 183.864 540.942 183.942L540.993 185.952ZM563.476 158.943C563.476 155.504 563.406 150.824 563.535 146.587C563.599 144.47 563.713 142.488 563.907 140.847C564.105 139.166 564.375 137.972 564.689 137.344L562.891 136.445C562.405 137.417 562.109 138.925 561.91 140.611C561.707 142.336 561.591 144.384 561.525 146.525C561.395 150.804 561.466 155.548 561.466 158.943H563.476Z" fill="url(#paint21_linear)"/>
<circle cx="518.482" cy="104.126" r="3.0693" fill="url(#paint22_linear)"/>
<path d="M515.925 104.126C514.731 104.126 513.469 105.456 517.971 110.776" stroke="url(#paint23_linear)" stroke-width="2.01047" stroke-linecap="round"/>
<rect x="535.967" y="184.447" width="9.00137" height="5.00076" rx="2.01047" fill="url(#paint24_linear)"/>
<path d="M540.467 188.948C539.967 197.282 537.467 216.952 530.966 239.955C510.898 310.966 513.463 392.478 553.97 341.471C566.659 325.491 574.973 297.964 578.973 275.961" stroke="url(#paint25_linear)" stroke-width="2.01047" stroke-linecap="round"/>
<g filter="url(#filter0_f)">
<path d="M523.595 448.664C501.914 431.083 486.386 385.227 482.073 360.745C481.676 358.493 478.986 357.389 477.101 358.684C380.594 424.963 450.289 464.422 470.095 486.92C471.615 488.648 474.747 488.689 476.394 487.081C485.554 478.137 509.063 462.381 523.194 454.673C525.372 453.485 525.522 450.226 523.595 448.664Z" fill="url(#paint26_linear)"/>
</g>
<g filter="url(#filter1_f)">
<path d="M578.994 424.998C572.105 394.647 570.624 382.063 569.685 370.256C569.443 367.215 573.329 365.693 575.231 368.077C594.51 392.245 620.393 423.208 633 425C626.772 424.115 597.78 423.317 583.295 427.4C581.444 427.922 579.419 426.873 578.994 424.998Z" fill="url(#paint27_linear)"/>
</g>
<path d="M546.221 67.0483C560.848 76.3751 574.474 72.9588 578.428 71.9394C585.544 31.7561 539.854 29.2429 519.407 33.3425C490.424 38.2831 480.178 64.0895 478.679 76.3751C478.382 104.753 495.216 119.953 503.669 124.005L517.289 114.39C502.757 96.1239 511.419 93.8633 517.566 95.0163C521.974 95.8431 524.989 94.149 524.618 88.9798C526.686 60.3748 539.882 62.4401 546.221 67.0483Z" fill="url(#paint28_linear)"/>
<ellipse rx="11.1506" ry="5.71411" transform="matrix(-0.308908 0.951092 -0.998048 -0.0624473 589.171 277.014)" fill="#77D9D3"/>
<ellipse rx="10.5546" ry="4.51406" transform="matrix(-0.308908 0.951092 -0.998048 -0.0624473 588.157 276.372)" fill="#92F1EB"/>
<path d="M585.961 279.501C584.293 278.815 580.792 277.327 580.141 276.858L583.897 269.059L589.368 271.759C590.191 276.798 587.266 278.689 585.961 279.501Z" fill="#4CE1C6"/>
<ellipse rx="7.66614" ry="4.16467" transform="matrix(-0.33483 0.942279 -0.995965 -0.0897476 580.688 272.057)" fill="#77D9D3"/>
<path d="M471.2 244.832C482.249 217.413 480.578 201.009 478.362 196.235L420.045 325.657L518.263 313.38L523.378 287.291C519.695 288.518 503.087 290.189 495.243 290.871C482.147 292.099 460.798 294.793 451.761 295.987C451.761 291.485 464.72 260.008 471.2 244.832Z" fill="#E3E8F6"/>
<path d="M469.786 341.486C426.815 358.674 407.547 343.191 403.284 333.301L537.31 296.469V311.816L469.786 341.486Z" fill="url(#paint29_linear)"/>
<path d="M536.799 298.515C535.98 306.7 534.07 310.452 533.218 311.304C530.353 310.486 527.932 302.437 527.079 298.515H536.799Z" fill="#B9C9F2"/>
<path d="M518.465 289.463C522.132 287.962 531.767 283.262 540.968 276.461C545.302 273.293 554.97 266.159 558.971 262.959C560.305 261.792 564.772 259.258 571.973 258.458C577.974 257.958 588.492 260.558 594.092 262.959C596.035 263.93 592.756 267.603 581.782 263.593C584.657 264.997 588.403 269.391 586.975 275.461C588.809 275.961 590.276 277.561 581.474 279.961C578.141 281.128 570.673 284.362 567.472 287.962C562.472 294.13 547.669 305.865 528.466 303.465L518.465 289.463Z" fill="#E7C2A7"/>
<path d="M537.31 288.284C536.901 286.238 534.07 283.169 532.706 282.146C531.888 282.146 528.614 284.704 527.079 285.215L530.66 303.631C542.937 304.04 555.214 299.027 559.818 294.935C547.03 301.585 538.845 300.732 536.287 299.538C537.924 295.855 537.651 290.672 537.31 288.284Z" fill="url(#paint30_linear)"/>
<path d="M477.202 215.438C486.403 190.234 471.034 176.932 462.199 173.432C434.195 163.43 409.525 254.944 400.69 301.951C390.688 351.159 433.195 348.458 455.698 340.957C464.5 338.157 511.373 319.787 533.71 310.952V289.449C532.91 282.248 526.376 283.115 523.209 284.448C515.607 286.049 502.705 288.449 497.205 289.449C460.799 293.05 447.03 296.95 444.697 298.451C444.297 292.85 466.2 240.775 477.202 215.438Z" fill="url(#paint31_linear)"/>
<mask id="mask0" mask-type="alpha" maskUnits="userSpaceOnUse" x="399" y="172" width="135" height="174">
<path d="M477.202 215.438C486.403 190.234 471.034 176.932 462.199 173.432C434.195 163.43 409.525 254.944 400.69 301.951C390.688 351.159 433.195 348.458 455.698 340.957C464.5 338.157 511.373 319.787 533.71 310.952V289.449C532.91 282.248 526.376 283.115 523.209 284.448C515.607 286.049 502.705 288.449 497.205 289.449C460.799 293.05 447.03 296.95 444.697 298.451C444.297 292.85 466.2 240.775 477.202 215.438Z" fill="url(#paint32_linear)"/>
</mask>
<g mask="url(#mask0)">
<path d="M534.241 287.261C533.013 282.76 525.885 281.293 522.475 281.123L455.462 292.377L476.435 299.539L534.241 287.261Z" fill="url(#paint33_linear)"/>
</g>
<path d="M561.471 271.96C565.638 269.626 576.373 266.259 585.974 271.46C581.807 268.293 571.072 263.959 561.471 271.96Z" fill="#C79978"/>
<path d="M570.973 261.459C573.473 261.792 578.874 262.659 580.474 263.459C579.141 262.292 575.373 260.259 570.973 261.459Z" fill="#C79978"/>
<path d="M562.472 280.962C564.639 278.128 572.473 273.061 586.475 275.461C580.974 275.461 568.473 276.561 562.472 280.962Z" fill="#C79978"/>
<path d="M631 485L532 408L628.5 477.5C660 499 659.167 519.333 658.5 531.5L661 724H645L638 524.5C647.5 505.5 640.5 493 631 485Z" fill="url(#paint34_linear)"/>
<path opacity="0.15" d="M611 488.5L564 434.5L624 480.5C644.8 493.7 643.333 510.667 640 517.5L567 744H564L611 545C621 497 614.667 495 611 488.5Z" fill="url(#paint35_linear)"/>
<path d="M815.568 691.869C818.223 688.948 825.683 682.286 842.719 680.689C837.67 685.239 824.086 694.531 815.568 691.869Z" fill="url(#paint36_linear)"/>
<path d="M832.541 608.46C873.341 621.66 882.874 613.96 882.541 608.46C882.541 584.06 833.208 569.96 808.541 565.96C781.741 566.36 760.374 542.46 753.041 530.46C718.641 502.46 694.041 518.794 686.041 530.46C685.241 536.46 696.374 542.96 702.041 545.46C722.441 551.46 744.541 570.96 753.041 579.96C767.041 593.56 787.541 597.96 796.041 598.46C816.441 600.46 828.874 605.96 832.541 608.46Z" fill="url(#paint37_linear)"/>
<path d="M813.247 659.316L776.394 495.711C776.865 463.425 816.094 485.323 835.65 500.309C848.053 526.422 843.961 640.53 840.364 694.32C840.253 710.069 846.137 723.675 849.093 728.51C856.435 739.325 847.82 750.874 842.595 755.296C837.334 759.88 833.971 763.85 832.948 765.261C822.525 777.41 806.888 788.768 800.373 792.928C759.411 815.564 773.913 790.436 786.285 775.042C793.463 766.032 804.468 751.075 809.073 744.723C823.445 724.453 817.844 679.339 813.247 659.316Z" fill="#F3BB93"/>
<mask id="mask1" mask-type="alpha" maskUnits="userSpaceOnUse" x="724" y="472" width="159" height="331">
<path d="M813.247 659.316L776.394 495.711C776.865 463.425 816.094 485.323 835.65 500.309C848.053 526.422 843.961 640.53 840.364 694.32C840.253 710.069 846.137 723.675 849.093 728.51C856.435 739.325 847.82 750.874 842.595 755.296C837.334 759.88 833.971 763.85 832.948 765.261C822.525 777.41 806.888 788.768 800.373 792.928C759.411 815.564 773.913 790.436 786.285 775.042C793.463 766.032 804.468 751.075 809.073 744.723C823.445 724.453 817.844 679.339 813.247 659.316Z" fill="#F3BB93"/>
</mask>
<g mask="url(#mask1)">
<path d="M809.931 537.933C800.847 532.64 787.119 531.895 781.391 532.184L779.571 520.769L850.202 529.172L845.421 722.356C828.704 730.265 825.207 642.555 825.548 597.711C823.657 555.315 814.349 540.194 809.931 537.933Z" fill="url(#paint38_linear)"/>
</g>
<path d="M768.798 630.377C759.766 643.578 749.113 646.01 744.915 645.575C741.441 643.839 756.495 634.72 764.456 630.377C767.582 628.64 768.653 629.654 768.798 630.377Z" fill="url(#paint39_linear)"/>
<path d="M737.165 610.52L681.775 502.163C676.135 472.366 716.352 485.138 737.165 495.249C753.489 516.945 761.893 587.456 768.701 637.629C771.561 652.141 779.534 663.555 783.163 667.448C791.953 676.018 786.198 688.265 782.222 693.317C778.243 698.525 775.895 702.81 775.219 704.302C767.913 717.441 755.661 730.833 750.448 735.886C717.014 764.42 725.632 738.57 734.121 722.078C739.031 712.438 746.344 696.604 749.387 689.893C758.8 668.538 745.161 628.08 737.165 610.52Z" fill="#F3BB93"/>
<mask id="mask2" mask-type="alpha" maskUnits="userSpaceOnUse" x="635" y="469" width="187" height="281">
<path d="M737.165 610.52L681.775 502.164C676.135 472.367 716.352 485.139 737.165 495.25C753.489 516.945 761.893 587.457 768.701 637.629C771.561 652.141 779.534 663.555 783.163 667.448C791.953 676.019 786.198 688.266 782.222 693.318C778.243 698.526 775.895 702.811 775.219 704.302C767.913 717.442 755.661 730.833 750.448 735.887C717.014 764.42 725.632 738.57 734.121 722.079C739.031 712.438 746.344 696.605 749.387 689.893C758.8 668.539 745.161 628.08 737.165 610.52Z" fill="#F3BB93"/>
</mask>
<g mask="url(#mask2)">
<path d="M740.929 549.955C730.508 539.533 708.796 536.638 699.243 536.494L693.164 524.335L768.72 546.915V613.786C761.772 575.922 747.298 555.455 740.929 549.955Z" fill="url(#paint40_linear)"/>
<path d="M767.794 626.813C761.865 635.498 752.046 641.143 747.877 642.88L748.803 648.525C755.844 646.788 765.015 638.248 768.72 634.195L767.794 626.813Z" fill="url(#paint41_linear)"/>
</g>
<path d="M765.68 184.986C779.923 170.396 788.984 166.17 791.734 165.88L800.853 214.948C782.442 222.938 741.363 267.85 722.692 289.417L744.837 298.754C755.954 303.618 758.827 301.126 760.47 298.754C764.378 293.109 770.023 287.03 777.839 281.819C786.306 276.174 788.26 269.227 789.997 269.661C794.774 270.855 783.484 284.859 784.786 285.727H785.655L788.26 283.99L792.603 281.385L797.379 277.911L799.984 275.306L803.024 272.266C812.143 260.542 809.972 271.832 803.892 278.78C808.235 274.437 808.669 283.99 803.024 293.109C800.336 297.451 799.984 297.886 797.379 300.491C811.274 289.635 799.989 303.672 797.379 305.702C785.655 314.821 761.014 314.594 751.351 315.689C718.784 319.379 710.099 316.558 705.322 315.689C651.825 298.32 723.271 221.751 765.68 184.986Z" fill="#F1B285"/>
<path d="M759.167 187.157C772.021 173.957 782.761 168.486 786.09 167.617L799.117 219.725C791.127 222.156 775.523 237.818 768.721 245.344C766.636 240.481 747.009 218.132 737.456 207.566C741.972 204.44 753.812 192.658 759.167 187.157Z" fill="#A3AFFD"/>
<path d="M785.221 170.657L786.089 168.92C787.826 167.531 791.734 168.92 793.471 169.789L786.523 173.697L785.221 170.657Z" fill="#0F1751"/>
<path d="M987.5 340L817.354 335.23C806.933 361.283 727.903 390.666 690.994 402.101C650.002 416.691 663.203 458.551 669.282 481.565C673.451 492.334 678.256 512.395 680.138 521.08C683.218 532.374 686.551 532.372 690.802 532.37L690.994 532.37C727.816 529.591 750.628 547.423 757.431 556.686C773.063 575.098 792.893 578.253 800.853 577.529C816.486 575.098 841.526 586.648 852.092 592.727C859.388 596.549 875.975 603.873 883.357 607.057C870.851 559.118 885.738 502.068 918.53 481.565C1001 430 987.5 371.264 987.5 340Z" fill="url(#paint42_linear)"/>
<path d="M803.025 391.895C796.425 384.948 774.221 377.711 763.944 374.96L772.629 370.184L815.618 322.419L886.831 329.366L982.361 348.907C992.436 375.655 983.375 405.501 977.585 417.081C975.501 413.607 955.295 412.159 945.452 411.87C939.199 411.175 938.215 407.528 938.504 405.791C939.894 403.359 942.847 381.04 944.149 370.184C938.794 378.289 927.909 394.674 927.214 395.369C919.572 407.875 907.819 402.317 902.898 397.975C893.518 388.943 870.33 382.053 859.909 379.737C855.393 385.642 845.869 392.619 841.671 395.369C824.997 406.138 808.959 397.54 803.025 391.895Z" fill="url(#paint43_linear)"/>
<path d="M979.755 171.307C962.734 155.327 939.083 145.543 929.385 142.648L971.505 229.493C984.706 222.893 1008.7 233.257 1015.8 234.27C1022.05 222.112 994.374 187.229 979.755 171.307Z" fill="#252525"/>
<path d="M801.287 153.722C794.34 166.121 788.839 169.789 785.221 170.657L799.116 235.117C801.287 244.91 806.932 247.039 816.051 252.292C828.866 259.674 831.973 277.816 832.552 286.79C836.025 321.181 805.919 350.043 790.431 360.175C860.95 361.912 901.449 385.216 912.884 396.65C916.358 399.777 918.095 397.953 918.529 396.65L947.188 358.004C949.62 353.141 950.228 357.425 950.228 360.175C950.228 367.123 948.201 385.36 947.188 393.611C946.493 397.432 948.925 397.808 950.228 397.519C956.828 396.129 975.558 403.598 984.098 407.506C987.919 409.243 989.743 405.914 990.177 404.032C997.124 342.393 981.447 267.105 974.5 235.117C963.383 189.263 934.306 140.021 915.924 122.652C865.206 91.7347 827.92 106.585 815.617 117.875L801.287 153.722Z" fill="url(#paint44_linear)"/>
<mask id="mask3" mask-type="alpha" maskUnits="userSpaceOnUse" x="785" y="104" width="207" height="304">
<path d="M801.287 153.722C794.34 166.121 788.839 169.789 785.221 170.657L799.116 235.117C801.287 244.91 806.932 247.039 816.051 252.292C828.866 259.674 831.973 277.816 832.552 286.79C836.025 321.181 805.919 350.043 790.431 360.175C860.95 361.912 901.449 385.216 912.884 396.65C916.358 399.777 918.095 397.953 918.529 396.65L947.188 358.004C949.62 353.141 950.228 357.425 950.228 360.175C950.228 367.123 948.201 385.36 947.188 393.611C946.493 397.432 948.925 397.808 950.228 397.519C956.828 396.129 975.558 403.598 984.098 407.506C987.919 409.243 989.743 405.914 990.177 404.032C997.124 342.393 981.447 267.105 974.5 235.117C963.383 189.263 934.306 140.021 915.924 122.652C865.206 91.7347 827.92 106.585 815.617 117.875L801.287 153.722Z" fill="url(#paint45_linear)"/>
</mask>
<g mask="url(#mask3)">
<path d="M926.779 140.477C945.306 168.702 983.49 258.761 988.006 393.198C998.282 325.603 1000.42 180.426 926.779 140.477Z" fill="#E3E8F6"/>
</g>
<path d="M856.434 353.683C905.068 327.282 919.542 237.599 920.7 196.058C923.131 129.361 885.817 183.031 866.855 218.204C823.78 330.409 841.96 355.275 856.434 353.683Z" fill="#E3E8F6"/>
<path d="M723.126 290.72C716.873 287.941 715.744 254.389 715.744 241.652L724.429 244.691L723.126 290.72Z" fill="url(#paint46_linear)"/>
<path d="M714.876 247.732C710.013 245.647 711.113 241.942 712.27 240.35L723.995 245.995C721.91 248.774 717.047 248.31 714.876 247.732Z" fill="#FCCDAB"/>
<path d="M763.499 193.603C760.767 189.071 757.248 190.669 755.829 192.035L763.029 202.874C765.496 200.428 764.37 195.674 763.499 193.603Z" fill="#FCCDAB"/>
<path d="M753.857 187.578C768.286 198.835 771.759 226.02 759.167 241.653C740.495 253.377 716.581 249.983 702.07 233.683C690.559 216.901 695.77 197.243 706.625 187.578C720.926 174.847 737.456 174.781 753.857 187.578Z" fill="#FCCDAB"/>
<path d="M749.316 244.03C755.643 240.956 759.589 234.715 760.771 231.979L762.625 241.831L749.316 244.03Z" fill="#F3BB93"/>
<path d="M758.732 246.213C759.08 229.539 763.798 206.553 766.114 197.145C767.234 192.282 770.344 193.092 771.759 194.106C778.707 195.148 805.919 219.436 818.656 231.449C822.825 235.27 841.98 256.019 844.276 259.021C849.921 266.403 863.382 293.325 865.119 306.352L758.732 246.213Z" fill="url(#paint47_linear)"/>
<path d="M827.265 248.476C798.606 232.844 747.222 241.023 719.576 247.392C718.534 247.629 720.01 272.386 720.879 284.736C721.921 295.157 740.419 304.71 749.538 308.184C763.433 318.605 758.223 344.659 753.88 356.383C751.449 363.331 754.894 365.936 756.92 366.371C761.089 368.108 773.421 370.568 779.066 371.581C788.098 373.318 798.461 379.253 802.514 382.003C805.293 383.74 810.62 387.648 812.935 389.385C821.62 394.943 827.554 393.438 829.436 391.99C832.563 390.601 839.423 386.779 842.463 385.042C849.758 380.527 856.793 370.713 859.398 366.371C860.787 362.549 863.161 353.489 864.174 349.436C879.112 301.149 846.805 259.134 827.265 248.476Z" fill="url(#paint48_linear)"/>
<path d="M804.761 381.474C808.235 366.536 799.116 332.84 794.774 327.195C794.774 335.88 780.734 365.118 773.062 369.316C784.526 369.663 798.971 377.566 804.761 381.474Z" fill="url(#paint49_linear)"/>
<path d="M824.302 313.3C817.007 319.901 790.866 310.55 778.708 305.05L749.614 310.261L847.316 336.314L851.224 275.957C841.15 299.231 829.078 310.55 824.302 313.3Z" fill="url(#paint50_linear)"/>
<path d="M755.693 296.799C749.093 297.841 729.784 284.496 720.955 277.693L723.126 289.851L761.338 310.26L784.353 276.824C782.616 278.561 778.418 280.443 776.536 281.167C769.936 283.946 764.233 289.851 762.207 292.457C758.386 296.625 756.272 297.088 755.693 296.799Z" fill="url(#paint51_linear)"/>
<path d="M749.475 208.072C748.629 210.206 747.571 212.139 745.738 213.615C744.917 214.277 743.92 215.064 742.865 215.284" stroke="#383737" stroke-width="1.30269" stroke-linecap="round" stroke-linejoin="round"/>
<path d="M725.345 230.771C727.44 229.832 729.324 228.689 730.718 226.793C731.342 225.943 732.085 224.913 732.258 223.849" stroke="#383737" stroke-width="1.30269" stroke-linecap="round" stroke-linejoin="round"/>
<path d="M710.232 153.826C708.183 148.755 703.418 137.972 701.292 133.215C706.17 92.1808 741.434 95.8285 758.457 102.782C774.184 109.479 776.945 127.673 776.36 135.933L796.206 132.002C803.72 155.742 800.984 159.278 792.168 167.183C785.551 172.516 787.807 169.317 783.049 165.012C780.444 162.654 770.022 160.67 767.417 160.235C765.769 159.961 759.007 160.67 755.022 166.715C735.03 197.045 716.832 170.76 710.232 153.826Z" fill="#F3BB93"/>
<path d="M714.011 168.241C713.754 167.203 712.568 159.648 712.008 156L721.146 166.471C715.305 169.572 713.956 168.943 714.011 168.241Z" fill="#F3BB93"/>
<path fill-rule="evenodd" clip-rule="evenodd" d="M785.54 167.901C784.981 167.082 784.232 166.081 783.05 165.012C780.445 162.654 770.023 160.67 767.418 160.235C765.875 159.978 759.849 160.583 755.816 165.624C758.387 161.704 761.088 156.876 763.329 151.382C765.497 145.748 773.271 141.103 787.025 167.599L785.54 167.901Z" fill="url(#paint52_linear)"/>
<path d="M717.481 134.832C697.072 135.482 693.888 130.2 692.296 126.147C690.078 120.502 694.52 108.778 697.507 104.22C699.641 100.962 703.152 96.5485 704.888 94.2326C723.3 64.7051 758.299 69.4815 773.497 75.5607C801.287 83.5505 815.183 82.9023 826.473 79.9031C868.158 68.8289 894.13 82.7242 904.2 94.2326C910.088 100.962 917.516 109.286 921.134 113.339C936.835 130.924 963.834 139.248 978.453 145.037C1011.02 157.935 1028.1 176.881 1032.3 184.118C1046.89 208.435 1037.94 223.509 1029.26 229.712C1011.89 242.119 997.559 228.191 989.743 217.119C986.269 211.214 971.505 189.473 964.557 179.341C941.283 148.077 913.174 129.26 902.028 123.76C881.88 113.686 868.737 115.799 864.685 118.115C853.568 122.978 846.447 144.748 844.276 155.025C839.76 170.309 833.42 175.215 824.301 175.868C814.922 175.868 810.005 170.004 807.801 166.315C791.821 139.566 778.707 140.293 771.76 142.866C762.38 146.34 761.209 140.042 760.47 135.484C759.167 127.45 756.128 128.537 753.088 131.142C750.048 133.747 747.009 133.747 744.838 133.747L717.481 134.832Z" fill="url(#paint53_linear)"/>
<path d="M714.922 151.959C717.017 151.021 718.901 149.878 720.295 147.981C720.92 147.132 721.662 146.102 721.835 145.037" stroke="#383737" stroke-width="1.30269" stroke-linecap="round" stroke-linejoin="round"/>
<path d="M725.969 168.896C727.681 168.04 728.555 166.947 729.215 165.155C729.625 164.043 729.969 162.49 729.816 161.287" stroke="#EA5F56" stroke-width="1.30269" stroke-linecap="round" stroke-linejoin="round"/>
<mask id="mask4" mask-type="alpha" maskUnits="userSpaceOnUse" x="720" y="260" width="106" height="73">
<path d="M738.758 283.991L720.521 290.07L744.837 316.992L809.537 332.19L825.17 309.61L820.393 264.016L783.484 260.542L738.758 283.991Z" fill="#C4C4C4"/>
</mask>
<g mask="url(#mask4)">
<path d="M765.68 184.986C779.923 170.396 788.984 166.17 791.734 165.88L800.853 214.948C782.442 222.938 740.495 268.069 721.823 289.636L744.837 298.754C755.954 303.618 758.827 301.126 760.47 298.754C764.378 293.109 770.023 287.03 777.839 281.819C786.306 276.175 788.26 269.227 789.997 269.661C794.774 270.855 783.484 284.859 784.786 285.728H785.655L788.26 283.991L792.602 281.385L797.379 277.911L799.984 275.306L803.024 272.266C812.143 260.542 809.972 271.832 803.892 278.78C808.235 274.438 815.182 271.614 804.327 292.891C802.037 297.379 799.984 297.668 797.379 300.491C815.617 285.728 799.989 303.672 797.379 305.702C785.655 314.821 761.049 314.966 751.351 315.689C718.349 320.205 706.915 318.439 705.322 316.992C651.825 299.623 723.271 221.751 765.68 184.986Z" fill="#F1B285"/>
</g>
<path opacity="0.6" d="M721.728 296.261C718.625 291.807 716.7 293.393 716.125 294.743C715.435 294.743 715.838 299.467 716.125 301.83C715.09 304.26 717.131 313.304 718.28 317.523C737.934 318.333 758.938 314.823 766.983 312.967C758.708 306.082 745.146 301.324 739.399 299.805C731.124 297.78 729.917 299.299 730.348 300.311L734.658 305.88C732.072 304.867 725.607 301.83 721.728 296.261Z" fill="url(#paint54_linear)"/>
<path d="M848.618 240.877C851.079 245.943 872.501 261.192 905.068 255.547C896.383 246.718 872.588 231.15 848.618 240.877Z" fill="url(#paint55_linear)"/>
<path d="M809.972 321.334C842.278 326.197 856.145 262.134 859.039 232.317L902.028 247.949L867.29 333.492C855.826 360.241 804.037 342.901 779.576 330.887C766.375 326.371 755.548 327.848 751.785 329.15C743.795 330.887 734.271 328.426 730.508 326.979C716.96 320.726 723.126 322.058 727.902 323.505C719.565 316.905 718.349 307.728 718.784 303.965C716.352 297.365 718.928 299.188 720.52 300.925C729.205 310.652 740.061 311.057 744.403 310.044L741.363 308.741C729.205 303.878 737.455 304.399 743.1 305.268C751.09 305.962 761.483 311.926 765.68 314.821C775.754 315.515 799.405 319.452 809.972 321.334Z" fill="#F3BB93"/>
<path d="M719.218 304.615C720.231 306.786 727.902 312.692 736.587 313.734C732.534 313.879 721.389 310.694 719.218 304.615Z" fill="#BC8660"/>
<path d="M719.218 310.694C720.231 312.865 724.429 317.468 733.113 318.51C729.06 318.655 721.389 316.774 719.218 310.694Z" fill="#BC8660"/>
<path d="M905.068 255.773C877.972 237.71 856.145 238.404 848.618 241.01C852.787 234.062 854.697 191.797 855.132 171.533C858.258 137.142 871.777 129.123 878.146 129.413C925.737 137.403 924.898 186.297 918.529 209.745C912.276 226.419 906.95 247.378 905.068 255.773Z" fill="#A3AFFD"/>
<path d="M711.871 186.747C710.61 187.391 710.128 188.957 710.789 190.21C711.445 191.467 712.996 191.95 714.251 191.292C715.109 190.845 715.713 191.126 715.932 191.271C716.14 191.405 716.485 191.717 716.449 192.281C716.386 193.187 715.351 194.619 712.598 195.934C708.882 197.706 707.03 195.356 706.257 193.797C705.316 191.897 705.189 189.449 706.277 187.879C704.166 189.75 702.374 191.856 700.9 194.128C701.102 194.799 701.35 195.454 701.659 196.076C703.808 200.41 708.707 203.477 714.807 200.567C716.052 199.973 717.069 199.343 717.902 198.7C720.827 196.443 721.476 194.036 721.569 192.619C721.72 190.337 720.659 188.224 718.732 186.97C716.698 185.643 714.132 185.563 711.871 186.747Z" fill="#5C4E43"/>
<path d="M743.101 229.385C744.865 229.385 746.109 228.743 747.069 227.208C747.693 226.21 747.921 225.282 747.551 224.174" stroke="#383737" stroke-width="1.30269" stroke-linecap="round" stroke-linejoin="round"/>
<path d="M803.024 279.864C802.011 282.325 798.248 287.246 793.037 289.417C795.787 287.391 801.982 281.948 803.024 279.864Z" fill="#BC8660"/>
<path d="M808.669 281.167C807.403 284.351 802.156 291.154 796.511 294.628C799.948 292.005 807.366 283.864 808.669 281.167Z" fill="#BC8660"/>
<path d="M926.779 158.714C939.661 196.637 962.212 288.636 949.359 353.249" stroke="#567FEA" stroke-width="1.73692" stroke-linecap="round" stroke-dasharray="2.61 6.08"/>
<path opacity="0.3" d="M747.443 243.787C750.046 243.787 810.26 231.225 831.606 254.125C831.634 254.153 831.66 254.181 831.684 254.209C831.658 254.181 831.632 254.153 831.606 254.125C829.606 252.125 817.22 250.145 782.616 257.683L731.377 268.104L747.443 243.787Z" fill="url(#paint56_linear)"/>
<path d="M795.279 476.095C795.626 447.609 828.425 422.54 844.346 414C830.799 417.821 781.383 440.405 770.093 448.738C751.856 462.199 743.461 506.346 741 526.465C747.6 526.813 752.435 532.979 754.027 536.018C760.627 555.124 782.541 562.217 792.673 563.375L795.279 476.095Z" fill="url(#paint57_linear)"/>
<path d="M769.21 630C758.094 642.853 748.367 645.777 744.893 645.632C754.967 661.264 751.696 681.963 748.801 690.358C745.675 698.348 734.472 721.767 729.261 732.478C723.355 747.763 726.8 750.426 729.261 749.847C748.019 745.679 766.025 722.925 772.684 712.069C777.2 704.079 780.355 698.898 781.368 697.305C794.569 683.41 789.474 671.541 785.276 667.344L781.368 663.436C772.684 652.667 769.644 636.658 769.21 630Z" fill="url(#paint58_linear)"/>
<path d="M842.686 680.801C827.927 692.621 819.553 692.896 815.781 692.036C823.648 711.176 810.546 733.476 805.683 742.078C800.649 750.19 783.66 773.555 775.795 784.223C766.246 799.756 769.478 803.366 772.287 803.23C793.656 802.456 817.911 782.177 827.389 771.643C833.853 764.458 835.522 763.035 840.375 757.687C857.94 743.091 853.99 729.702 850.245 724.261L846.757 719.195C839.429 705.657 841.817 688.174 842.686 680.801Z" fill="url(#paint59_linear)"/>
<g filter="url(#filter2_d)">
<circle cx="226" cy="519" r="70" fill="white"/>
</g>
<path fill-rule="evenodd" clip-rule="evenodd" d="M211.276 517.022L197.358 524.561C195.252 525.702 194.409 528.291 195.438 530.453L196.022 531.679C196.932 533.591 199.053 534.609 201.115 534.124L211.117 531.771L209.525 540.927C209.525 540.927 215.098 547.694 226.245 547.694C237.391 547.694 242.961 540.927 242.961 540.927L241.372 531.771L251.374 534.124C253.436 534.609 255.557 533.591 256.467 531.679L257.051 530.453C258.081 528.291 257.237 525.702 255.131 524.561L241.217 517.024C237.569 521.183 232.215 523.809 226.248 523.809C220.28 523.809 214.925 521.182 211.276 517.022Z" fill="#E7C2A7"/>
<ellipse cx="226.245" cy="535.752" rx="7.16558" ry="8.75793" fill="#E9CEBA"/>
<ellipse cx="235.8" cy="542.917" rx="7.16558" ry="9.5541" transform="rotate(15 235.8 542.917)" fill="#C79978"/>
<ellipse cx="216.688" cy="542.917" rx="7.16558" ry="9.5541" transform="rotate(-15 216.688 542.917)" fill="#C79978"/>
<path fill-rule="evenodd" clip-rule="evenodd" d="M206.339 492.957C206.339 495.899 207.758 498.511 209.949 500.143C209.671 501.352 209.524 502.611 209.524 503.904C209.524 513.138 217.01 520.623 226.244 520.623C235.478 520.623 242.963 513.138 242.963 503.904C242.963 502.611 242.817 501.352 242.539 500.143C244.729 498.51 246.148 495.899 246.148 492.957C246.148 488.01 242.138 484 237.191 484C234.249 484 231.638 485.419 230.005 487.609C228.796 487.331 227.537 487.184 226.244 487.184C224.95 487.184 223.691 487.331 222.482 487.609C220.849 485.419 218.238 484 215.296 484C210.349 484 206.339 488.01 206.339 492.957Z" fill="#E7C2A7"/>
<ellipse cx="232.216" cy="500.322" rx="2.38853" ry="3.58279" fill="#4A4A4A"/>
<ellipse cx="220.273" cy="500.322" rx="2.38853" ry="3.58279" fill="#4A4A4A"/>
<ellipse cx="226.245" cy="508.283" rx="8.75793" ry="8.35984" fill="#E9CEBA"/>
<circle cx="225.626" cy="504.588" r="2.38853" fill="#C79978"/>
<circle cx="323.5" cy="81.5" r="46.5" fill="url(#paint60_linear)"/>
<path fill-rule="evenodd" clip-rule="evenodd" d="M311.573 79.167L300.721 85.0451C298.704 86.1377 297.895 88.6185 298.882 90.6897C299.754 92.5219 301.786 93.4977 303.762 93.0329L311.443 91.2256L310.141 98.7114C310.141 98.7114 314.697 104.244 323.81 104.244C332.924 104.244 337.478 98.7114 337.478 98.7114L336.178 91.2256L343.859 93.0329C345.835 93.4977 347.867 92.5219 348.739 90.6897C349.726 88.6185 348.917 86.1377 346.9 85.0451L336.052 79.169C333.069 82.5696 328.692 84.7166 323.813 84.7166C318.933 84.7166 314.555 82.5688 311.573 79.167Z" fill="white"/>
<ellipse cx="323.811" cy="94.4804" rx="5.85846" ry="7.16034" fill="#F1F5FA"/>
<ellipse cx="331.623" cy="100.338" rx="5.85846" ry="7.81128" transform="rotate(15 331.623 100.338)" fill="white"/>
<ellipse cx="315.997" cy="100.339" rx="5.85846" ry="7.81128" transform="rotate(-15 315.997 100.339)" fill="white"/>
<path fill-rule="evenodd" clip-rule="evenodd" d="M337.133 65.3674C338.924 64.0324 340.084 61.8978 340.084 59.4923C340.084 55.4478 336.805 52.1692 332.761 52.1692C330.355 52.1692 328.221 53.329 326.886 55.1199C325.897 54.8927 324.868 54.7726 323.811 54.7726C322.753 54.7726 321.723 54.8927 320.734 55.1201C319.399 53.3292 317.265 52.1694 314.859 52.1694C310.815 52.1694 307.536 55.448 307.536 59.4924C307.536 61.8984 308.696 64.0333 310.488 65.3683C310.261 66.3563 310.141 67.3853 310.141 68.4423C310.141 75.9919 316.261 82.1121 323.811 82.1121C331.36 82.1121 337.48 75.9919 337.48 68.4423C337.48 67.385 337.36 66.3558 337.133 65.3674Z" fill="white"/>
<ellipse cx="328.693" cy="65.5135" rx="1.95282" ry="2.92923" fill="#A0A7B8"/>
<ellipse cx="318.929" cy="65.5135" rx="1.95282" ry="2.92923" fill="#A0A7B8"/>
<ellipse cx="323.813" cy="72.0229" rx="7.16034" ry="6.83487" fill="#F1F5FA"/>
<circle cx="323.305" cy="69.0019" r="1.95282" fill="#C4CCDF"/>
<circle cx="1021" cy="63" r="38" fill="url(#paint61_linear)"/>
<path fill-rule="evenodd" clip-rule="evenodd" d="M1009.33 62.2849L999.635 67.5389C997.832 68.5155 997.11 70.7328 997.991 72.5841C998.771 74.2218 1000.59 75.0939 1002.35 74.6785L1009.22 73.0631L1008.05 79.754C1008.05 79.754 1012.13 84.6995 1020.27 84.6995C1028.42 84.6995 1032.49 79.754 1032.49 79.754L1031.33 73.0631L1038.19 74.6785C1039.96 75.0939 1041.78 74.2218 1042.56 72.5841C1043.44 70.7328 1042.71 68.5155 1040.91 67.5389L1031.21 62.2867C1028.55 65.3263 1024.64 67.2453 1020.28 67.2453C1015.91 67.2453 1012 65.3255 1009.33 62.2849Z" fill="white"/>
<ellipse cx="1020.27" cy="75.9723" rx="5.2364" ry="6.40004" fill="#F1F5FA"/>
<ellipse cx="1027.26" cy="81.2084" rx="5.2364" ry="6.98186" transform="rotate(15 1027.26 81.2084)" fill="white"/>
<ellipse cx="1013.29" cy="81.2085" rx="5.2364" ry="6.98186" transform="rotate(-15 1013.29 81.2085)" fill="white"/>
<path fill-rule="evenodd" clip-rule="evenodd" d="M1032.18 49.9506C1033.78 48.7573 1034.82 46.8494 1034.82 44.6993C1034.82 41.0843 1031.89 38.1538 1028.27 38.1538C1026.12 38.1538 1024.21 39.1904 1023.02 40.7911C1022.14 40.588 1021.22 40.4806 1020.27 40.4806C1019.33 40.4806 1018.41 40.588 1017.52 40.7912C1016.33 39.1905 1014.42 38.1539 1012.27 38.1539C1008.66 38.1539 1005.73 41.0844 1005.73 44.6994C1005.73 46.8497 1006.76 48.7578 1008.36 49.9511C1008.16 50.8343 1008.05 51.7541 1008.05 52.6989C1008.05 59.4469 1013.52 64.9172 1020.27 64.9172C1027.02 64.9172 1032.49 59.4469 1032.49 52.6989C1032.49 51.7539 1032.38 50.834 1032.18 49.9506Z" fill="white"/>
<ellipse cx="1024.64" cy="50.0811" rx="1.74547" ry="2.6182" fill="#A0A7B8"/>
<ellipse cx="1015.91" cy="50.0811" rx="1.74547" ry="2.6182" fill="#A0A7B8"/>
<ellipse cx="1020.27" cy="55.8992" rx="6.40004" ry="6.10913" fill="#F1F5FA"/>
<circle cx="1019.82" cy="53.1991" r="1.74547" fill="#C4CCDF"/>
<g opacity="0.4">
<path d="M870.165 35.0384C867.501 41.9157 857.961 38.5172 853.524 35.9583C847.832 28.635 848.875 23.1069 850.108 21.2582C852.624 15.5642 857.196 18.6409 859.168 20.891C856.581 12.755 859.14 9.1194 860.743 8.31857C865.181 6.47085 866.412 13.0349 866.472 16.548C873.132 1.75829 878.248 2.49926 879.973 4.71845C884.335 8.2696 877.042 16.1194 872.85 19.6005C878.915 19.1584 880.06 22.0061 879.875 23.4852C879.282 28.2183 871.307 27.9203 867.394 27.1796C870.647 29.9909 870.597 33.5901 870.165 35.0384Z" fill="#F1948E"/>
<path d="M873.22 22.6511L865.824 21.7246" stroke="#7C4542" stroke-width="1.49066"/>
<path d="M863.699 14.698L865.731 22.4641" stroke="#7C4542" stroke-width="1.49066"/>
<path d="M855.007 24.1252L857.039 31.8913" stroke="#7C4542" stroke-width="1.49066"/>
<path d="M864.435 32.8179L857.039 31.8914" stroke="#7C4542" stroke-width="1.49066"/>
<path d="M877.291 8.13818L844 46.0323" stroke="#7C4542" stroke-width="1.49066"/>
</g>
<g opacity="0.4">
<path d="M340.165 229.038C337.501 235.916 327.961 232.517 323.524 229.958C317.832 222.635 318.875 217.107 320.108 215.258C322.624 209.564 327.196 212.641 329.168 214.891C326.581 206.755 329.14 203.119 330.743 202.319C335.181 200.471 336.412 207.035 336.472 210.548C343.132 195.758 348.248 196.499 349.973 198.718C354.335 202.27 347.042 210.119 342.85 213.6C348.915 213.158 350.06 216.006 349.875 217.485C349.282 222.218 341.307 221.92 337.394 221.18C340.647 223.991 340.597 227.59 340.165 229.038Z" fill="#567FEA"/>
<path d="M343.22 216.651L335.824 215.725" stroke="#00237D" stroke-width="1.49066"/>
<path d="M333.699 208.698L335.731 216.464" stroke="#00237D" stroke-width="1.49066"/>
<path d="M325.007 218.125L327.039 225.891" stroke="#00237D" stroke-width="1.49066"/>
<path d="M334.435 226.818L327.039 225.891" stroke="#00237D" stroke-width="1.49066"/>
<path d="M347.291 202.138L314 240.032" stroke="#00237D" stroke-width="1.49066"/>
</g>
<g opacity="0.7">
<path d="M1027.1 513.86C1028.65 520.042 1037.19 518.148 1041.27 516.429C1046.93 510.759 1046.63 505.908 1045.77 504.191C1044.22 499.039 1039.97 501.188 1038.04 502.906C1041.13 496.207 1039.32 492.816 1038.04 491.958C1034.43 489.899 1032.67 495.395 1032.24 498.401C1028.11 485.008 1023.65 485.096 1021.93 486.814C1017.81 489.392 1023.23 496.903 1026.45 500.336C1021.29 499.308 1020.01 501.627 1020.01 502.915C1020.01 507.037 1026.88 507.635 1030.31 507.418C1027.22 509.481 1026.88 512.572 1027.1 513.86Z" fill="#FFD4A3"/>
<path d="M1025.8 502.912L1032.24 502.909" stroke="#A1704D" stroke-width="1.28803"/>
<path d="M1034.82 497.112L1032.24 503.553" stroke="#A1704D" stroke-width="1.28803"/>
<path d="M1041.26 506.125L1038.69 512.566" stroke="#A1704D" stroke-width="1.28803"/>
<path d="M1032.25 512.569L1038.69 512.566" stroke="#A1704D" stroke-width="1.28803"/>
<path d="M1023.87 490.033L1048.36 526.086" stroke="#A1704D" stroke-width="1.28803"/>
</g>
<path d="M242.755 680.677H231.685C228.628 680.677 226.146 678.196 226.146 675.138C226.146 672.081 228.628 669.608 231.685 669.608H242.755C245.812 669.608 248.293 672.081 248.293 675.138C248.293 678.195 245.811 680.677 242.755 680.677Z" fill="#D0D9F3"/>
<path d="M375.616 680.677H364.547C361.489 680.677 359.008 678.196 359.008 675.138C359.008 672.081 361.489 669.608 364.547 669.608H375.616C378.674 669.608 381.155 672.081 381.155 675.138C381.155 678.195 378.674 680.677 375.616 680.677Z" fill="#D0D9F3"/>
<path d="M331.332 653H275.97C272.913 653 270.432 655.474 270.432 658.531V691.746C270.432 694.803 272.913 697.285 275.97 697.285H331.332C334.389 697.285 336.863 694.803 336.863 691.746V658.531C336.863 655.474 334.389 653 331.332 653ZM325.793 686.215H281.509V664.069H325.793V686.215Z" fill="#D0D9F3"/>
<path d="M403.292 802.469C403.292 805.527 400.818 808 397.762 808H209.539C206.481 808 204 805.526 204 802.469V680.677C204 677.62 206.481 675.138 209.539 675.138H397.762C400.819 675.138 403.292 677.62 403.292 680.677V802.469Z" fill="url(#paint62_linear)"/>
<path d="M397.762 796.931H209.539C206.481 796.931 204 794.449 204 791.392V802.469C204 805.527 206.481 808 209.539 808H397.762C400.819 808 403.292 805.526 403.292 802.469V791.392C403.292 794.449 400.819 796.931 397.762 796.931Z" fill="#AFC0EC"/>
<path d="M314.724 763.716C314.724 769.83 309.76 774.785 303.647 774.785C297.532 774.785 292.577 769.83 292.577 763.716V719.431C292.577 713.316 297.532 708.354 303.647 708.354C309.76 708.354 314.724 713.316 314.724 719.431V763.716Z" fill="#DA4453"/>
<path d="M336.863 741.569C336.863 747.683 331.916 752.646 325.793 752.646H281.509C275.394 752.646 270.432 747.683 270.432 741.569C270.432 735.455 275.394 730.5 281.509 730.5H325.793C331.916 730.5 336.863 735.455 336.863 741.569Z" fill="#ED5564"/>
<mask id="mask5" mask-type="alpha" maskUnits="userSpaceOnUse" x="204" y="675" width="200" height="134">
<path d="M403.292 802.469C403.292 805.527 400.818 808 397.762 808H209.539C206.481 808 204 805.526 204 802.469V680.677C204 677.62 206.481 675.138 209.539 675.138H397.762C400.819 675.138 403.292 677.62 403.292 680.677V802.469Z" fill="url(#paint63_linear)"/>
</mask>
<g mask="url(#mask5)">
<path opacity="0.3" d="M403.749 791.656C335.905 746.776 199.854 656.798 198.397 655.925L408.482 652.65L403.749 791.656Z" fill="white"/>
</g>
<path d="M964.367 688.78C965.395 703.725 992.098 716.299 1005.32 720.717C1011.84 705 1023.73 717.659 1030.14 702.193C1047.79 679.288 1040.44 655.584 1034.45 645.1C1023.1 625.233 1019.89 662.553 1016.69 654.348C1014.02 645.546 1018.16 638.927 1019.66 635.318C1027.51 616.355 1007.17 599.523 1000.5 612.866C997.799 618.281 1002.22 627.509 997.198 629.945C989.936 631.724 991.149 621.773 984.06 609.823C968.701 583.933 956.764 586.096 946.917 589.27C937.649 592.257 944.632 612.933 958.935 622.007C973.238 631.081 969.633 633.724 966.597 633.783C956.496 635.15 952.304 639.207 952.033 648.332C951.825 655.342 953.867 659.642 963.794 663.536C974.585 667.768 973.775 671.957 970.428 674.163C964.213 678.26 963.952 682.753 964.367 688.78Z" fill="url(#paint64_linear)"/>
<path opacity="0.3" d="M1012.28 703.926C1004.53 699.038 989.814 683.906 992.976 662.478C994.346 653.196 991.393 640.547 974.078 619.372" stroke="url(#paint65_linear)" stroke-width="2.79328" stroke-linecap="round" stroke-linejoin="round"/>
<path d="M995.165 660.103C989.826 677.308 1014.05 706.737 1026.83 719.3C1040.89 705.605 1048.61 726.556 1062.45 713.08C1092 697.84 1094.11 667.241 1092 652.122C1088 623.472 1068.25 663.095 1068.25 652.122C1069.09 640.791 1076.57 635.836 1079.8 632.689C1096.75 616.158 1081.44 585.679 1068.25 596.651C1062.9 601.104 1063.81 613.92 1057.17 613.719C1048.33 611.494 1053.99 601.136 1051.3 583.753C1045.46 546.091 1031.25 541.585 1018.93 539.413C1007.34 537.369 1006.13 564.388 1018.09 582.751C1030.05 601.114 1024.9 601.964 1021.5 600.273C1009.68 595.946 1003.26 598.029 999.002 608.013C995.73 615.683 996.134 621.644 1005.48 631.717C1015.64 642.666 1012.92 646.852 1008.24 647.367C999.557 648.322 997.318 653.165 995.165 660.103Z" fill="url(#paint66_linear)"/>
<path opacity="0.3" d="M1041.85 704.67C1035.35 694.75 1025.56 669.415 1038.37 647.432C1043.92 637.909 1046.12 622.142 1036.06 588.588" stroke="url(#paint67_linear)" stroke-width="2.79328" stroke-linecap="round" stroke-linejoin="round"/>
<path d="M972.159 715.437C971.824 713.255 973.512 711.288 975.719 711.288H1087.43C1089.64 711.288 1091.33 713.255 1091 715.437L1077.09 805.997C1076.82 807.755 1075.31 809.052 1073.53 809.052H989.627C987.848 809.052 986.336 807.755 986.066 805.997L972.159 715.437Z" fill="#F3BB93"/>
<path d="M971.521 730.176L1091.63 724.323L1086.63 744.807L971.521 730.176Z" fill="#C17A48"/>
<rect x="961.279" y="708.494" width="135.009" height="21.4152" rx="3.6023" fill="#F3BB93"/>
<circle opacity="0.1" cx="227.986" cy="108.986" r="23.9864" fill="#567FEA"/>
<circle opacity="0.4" cx="1087" cy="194" r="13" fill="white"/>
<circle opacity="0.4" cx="629.5" cy="27.5" r="18.5" fill="#FFBABA"/>
<circle opacity="0.2" cx="52" cy="633" r="40" fill="#ADBEF4"/>
<defs>
<filter id="filter0_f" x="426.179" y="357.104" width="99.7904" height="132.177" filterUnits="userSpaceOnUse" color-interpolation-filters="sRGB">
<feFlood flood-opacity="0" result="BackgroundImageFix"/>
<feBlend mode="normal" in="SourceGraphic" in2="BackgroundImageFix" result="shape"/>
<feGaussianBlur stdDeviation="0.51415" result="effect1_foregroundBlur"/>
</filter>
<filter id="filter1_f" x="545.57" y="361.031" width="88.4575" height="92.0704" filterUnits="userSpaceOnUse" color-interpolation-filters="sRGB">
<feFlood flood-opacity="0" result="BackgroundImageFix"/>
<feBlend mode="normal" in="SourceGraphic" in2="BackgroundImageFix" result="shape"/>
<feGaussianBlur stdDeviation="0.51415" result="effect1_foregroundBlur"/>
</filter>
<filter id="filter2_d" x="131" y="429" width="200" height="200" filterUnits="userSpaceOnUse" color-interpolation-filters="sRGB">
<feFlood flood-opacity="0" result="BackgroundImageFix"/>
<feColorMatrix in="SourceAlpha" type="matrix" values="0 0 0 0 0 0 0 0 0 0 0 0 0 0 0 0 0 0 127 0"/>
<feOffset dx="5" dy="10"/>
<feGaussianBlur stdDeviation="15"/>
<feColorMatrix type="matrix" values="0 0 0 0 0.761999 0 0 0 0 0.812206 0 0 0 0 0.943231 0 0 0 1 0"/>
<feBlend mode="normal" in2="BackgroundImageFix" result="effect1_dropShadow"/>
<feBlend mode="normal" in="SourceGraphic" in2="effect1_dropShadow" result="shape"/>
</filter>
<linearGradient id="paint0_linear" x1="1263.01" y1="811.257" x2="216.032" y2="588.515" gradientUnits="userSpaceOnUse">
<stop stop-color="#567FEA" stop-opacity="0.22"/>
<stop offset="1" stop-color="#6D71DF"/>
</linearGradient>
<linearGradient id="paint1_linear" x1="330.226" y1="471.52" x2="1661.75" y2="451.526" gradientUnits="userSpaceOnUse">
<stop offset="0.00389023" stop-color="#DAEBF5"/>
<stop offset="1" stop-color="#E3F1F9" stop-opacity="0.37"/>
</linearGradient>
<linearGradient id="paint2_linear" x1="108" y1="842.93" x2="1593.39" y2="927.13" gradientUnits="userSpaceOnUse">
<stop stop-color="#AFC4F9"/>
<stop offset="1" stop-color="#C8D8FF"/>
</linearGradient>
<linearGradient id="paint3_linear" x1="1086.4" y1="845.586" x2="-144.087" y2="798.266" gradientUnits="userSpaceOnUse">
<stop stop-color="#737BE2"/>
<stop offset="1" stop-color="#757DE2" stop-opacity="0.25"/>
</linearGradient>
<linearGradient id="paint4_linear" x1="546.547" y1="117.592" x2="529.116" y2="132.452" gradientUnits="userSpaceOnUse">
<stop stop-color="#E0A780"/>
<stop offset="1" stop-color="#E0A780" stop-opacity="0"/>
</linearGradient>
<linearGradient id="paint5_linear" x1="465.573" y1="474.518" x2="493.502" y2="504.271" gradientUnits="userSpaceOnUse">
<stop offset="0.182023" stop-color="#91A6DF"/>
<stop offset="1" stop-color="#BECAEB"/>
</linearGradient>
<linearGradient id="paint6_linear" x1="622.098" y1="426.579" x2="636.862" y2="442.204" gradientUnits="userSpaceOnUse">
<stop offset="0.182023" stop-color="#91A6DF"/>
<stop offset="1" stop-color="#BECAEB"/>
</linearGradient>
<linearGradient id="paint7_linear" x1="683.951" y1="717.938" x2="647.579" y2="738.755" gradientUnits="userSpaceOnUse">
<stop stop-color="#BC8660"/>
<stop offset="1" stop-color="#BC8660" stop-opacity="0"/>
</linearGradient>
<linearGradient id="paint8_linear" x1="736.519" y1="798.001" x2="677.68" y2="788.129" gradientUnits="userSpaceOnUse">
<stop stop-color="#D4E0FF"/>
<stop offset="1" stop-color="white"/>
</linearGradient>
<linearGradient id="paint9_linear" x1="569.321" y1="739.287" x2="529.709" y2="752.967" gradientUnits="userSpaceOnUse">
<stop stop-color="#BC8660"/>
<stop offset="1" stop-color="#BC8660" stop-opacity="0"/>
</linearGradient>
<linearGradient id="paint10_linear" x1="606.059" y1="827.739" x2="550.088" y2="807.082" gradientUnits="userSpaceOnUse">
<stop stop-color="#D4E0FF"/>
<stop offset="1" stop-color="white"/>
</linearGradient>
<linearGradient id="paint11_linear" x1="569.173" y1="379" x2="569.173" y2="745.257" gradientUnits="userSpaceOnUse">
<stop stop-color="#5352A1"/>
<stop offset="1" stop-color="#271B72"/>
</linearGradient>
<linearGradient id="paint12_linear" x1="513.147" y1="386.02" x2="529.208" y2="514.58" gradientUnits="userSpaceOnUse">
<stop stop-color="#2A1D63" stop-opacity="0.46"/>
<stop offset="1" stop-color="#493B99"/>
</linearGradient>
<linearGradient id="paint13_linear" x1="474.456" y1="462.489" x2="554.773" y2="208.073" gradientUnits="userSpaceOnUse">
<stop stop-color="#BCADDA"/>
<stop offset="1" stop-color="#D9CAE5"/>
</linearGradient>
<linearGradient id="paint14_linear" x1="520.429" y1="136.865" x2="520.429" y2="179.324" gradientUnits="userSpaceOnUse">
<stop stop-color="#B199C4"/>
<stop offset="1" stop-color="#DACBE6" stop-opacity="0.09"/>
</linearGradient>
<linearGradient id="paint15_linear" x1="495.243" y1="312.357" x2="477.85" y2="482.703" gradientUnits="userSpaceOnUse">
<stop stop-color="#AAA1B9"/>
<stop offset="1" stop-color="#D3C5EA"/>
</linearGradient>
<linearGradient id="paint16_linear" x1="559.49" y1="358.888" x2="526.45" y2="392.043" gradientUnits="userSpaceOnUse">
<stop stop-color="#B19FC8"/>
<stop offset="1" stop-color="#CBBDE0" stop-opacity="0"/>
</linearGradient>
<linearGradient id="paint17_linear" x1="565.56" y1="277.566" x2="526.557" y2="397.574" gradientUnits="userSpaceOnUse">
<stop offset="0.00172742" stop-color="#B8ABCC"/>
<stop offset="1" stop-color="#D3C5EA"/>
</linearGradient>
<linearGradient id="paint18_linear" x1="422.603" y1="211.07" x2="569.976" y2="355.084" gradientUnits="userSpaceOnUse">
<stop offset="0.0127845" stop-color="white"/>
<stop offset="1" stop-color="#EAF0FF"/>
</linearGradient>
<linearGradient id="paint19_linear" x1="559.015" y1="214.298" x2="755.803" y2="342.563" gradientUnits="userSpaceOnUse">
<stop offset="0.0127845" stop-color="white"/>
<stop offset="1" stop-color="#EAF0FF"/>
</linearGradient>
<linearGradient id="paint20_linear" x1="569.437" y1="232.946" x2="607.302" y2="319.803" gradientUnits="userSpaceOnUse">
<stop stop-color="#EEF3FF"/>
<stop offset="1" stop-color="#F8FAFF" stop-opacity="0"/>
</linearGradient>
<linearGradient id="paint21_linear" x1="540.993" y1="124.438" x2="540.993" y2="184.947" gradientUnits="userSpaceOnUse">
<stop stop-color="#B8A0FC"/>
<stop offset="1" stop-color="#26285A"/>
</linearGradient>
<linearGradient id="paint22_linear" x1="517.459" y1="103.103" x2="531.271" y2="104.126" gradientUnits="userSpaceOnUse">
<stop stop-color="#756AB2"/>
<stop offset="1" stop-color="#C4B3FF"/>
</linearGradient>
<linearGradient id="paint23_linear" x1="517.459" y1="109.753" x2="511.321" y2="100.034" gradientUnits="userSpaceOnUse">
<stop stop-color="#B8A0FC"/>
<stop offset="1" stop-color="#26285A"/>
</linearGradient>
<linearGradient id="paint24_linear" x1="544.471" y1="184.951" x2="528.102" y2="189.043" gradientUnits="userSpaceOnUse">
<stop stop-color="#567FEA"/>
<stop offset="1" stop-color="#567FEA" stop-opacity="0"/>
</linearGradient>
<linearGradient id="paint25_linear" x1="548.847" y1="188.948" x2="582.326" y2="295.957" gradientUnits="userSpaceOnUse">
<stop stop-color="#212352"/>
<stop offset="1" stop-color="#4F5297"/>
</linearGradient>
<linearGradient id="paint26_linear" x1="541.173" y1="454.056" x2="516.554" y2="408.901" gradientUnits="userSpaceOnUse">
<stop stop-color="#D6E1FF"/>
<stop offset="1" stop-color="#E3E8F6" stop-opacity="0"/>
</linearGradient>
<linearGradient id="paint27_linear" x1="572.069" y1="437.235" x2="559.844" y2="404.575" gradientUnits="userSpaceOnUse">
<stop stop-color="#D6E1FF"/>
<stop offset="1" stop-color="#E3E8F6" stop-opacity="0"/>
</linearGradient>
<linearGradient id="paint28_linear" x1="514.234" y1="112.629" x2="582.495" y2="85.9098" gradientUnits="userSpaceOnUse">
<stop stop-color="#252525"/>
<stop offset="1" stop-color="#73655A"/>
</linearGradient>
<linearGradient id="paint29_linear" x1="420.165" y1="354.786" x2="499.967" y2="334.324" gradientUnits="userSpaceOnUse">
<stop stop-color="#CCD4E9"/>
<stop offset="1" stop-color="#E3E8F6" stop-opacity="0"/>
</linearGradient>
<linearGradient id="paint30_linear" x1="528.102" y1="288.284" x2="541.914" y2="289.307" gradientUnits="userSpaceOnUse">
<stop stop-color="#C79978"/>
<stop offset="1" stop-color="#C79978" stop-opacity="0"/>
</linearGradient>
<linearGradient id="paint31_linear" x1="458.222" y1="180.662" x2="518.626" y2="323.188" gradientUnits="userSpaceOnUse">
<stop stop-color="white"/>
<stop offset="1" stop-color="#EAF0FF"/>
</linearGradient>
<linearGradient id="paint32_linear" x1="403.148" y1="211.997" x2="526.957" y2="309.161" gradientUnits="userSpaceOnUse">
<stop offset="0.0127845" stop-color="white"/>
<stop offset="1" stop-color="#EAF0FF"/>
</linearGradient>
<linearGradient id="paint33_linear" x1="533.218" y1="284.704" x2="478.786" y2="311.243" gradientUnits="userSpaceOnUse">
<stop stop-color="#D7E2FF"/>
<stop offset="1" stop-color="#E3E8F6" stop-opacity="0"/>
</linearGradient>
<linearGradient id="paint34_linear" x1="595.279" y1="408" x2="595.279" y2="727" gradientUnits="userSpaceOnUse">
<stop stop-color="#2F2479"/>
<stop offset="1" stop-color="#31277C" stop-opacity="0.03"/>
</linearGradient>
<linearGradient id="paint35_linear" x1="602.979" y1="434.5" x2="602.979" y2="744" gradientUnits="userSpaceOnUse">
<stop offset="0.00646204" stop-color="white"/>
<stop offset="1" stop-color="#332A7E" stop-opacity="0"/>
</linearGradient>
<linearGradient id="paint36_linear" x1="846.39" y1="678.513" x2="819.85" y2="691.171" gradientUnits="userSpaceOnUse">
<stop stop-color="#BBCEFF"/>
<stop offset="1" stop-color="#BACDFF"/>
</linearGradient>
<linearGradient id="paint37_linear" x1="721" y1="522" x2="715" y2="616" gradientUnits="userSpaceOnUse">
<stop stop-color="#11184D"/>
<stop offset="0.991742" stop-color="#2F1A6C"/>
</linearGradient>
<linearGradient id="paint38_linear" x1="778.875" y1="488.931" x2="856.309" y2="514.807" gradientUnits="userSpaceOnUse">
<stop stop-color="#BC8660"/>
<stop offset="1" stop-color="#BC8660" stop-opacity="0.18"/>
</linearGradient>
<linearGradient id="paint39_linear" x1="756.601" y1="629.418" x2="756.601" y2="645.622" gradientUnits="userSpaceOnUse">
<stop stop-color="white"/>
<stop offset="1" stop-color="#C1D2FF"/>
</linearGradient>
<linearGradient id="paint40_linear" x1="697.941" y1="510.874" x2="733.982" y2="559.508" gradientUnits="userSpaceOnUse">
<stop stop-color="#BC8660"/>
<stop offset="1" stop-color="#BC8660" stop-opacity="0.18"/>
</linearGradient>
<linearGradient id="paint41_linear" x1="736.761" y1="628.984" x2="761.592" y2="631.58" gradientUnits="userSpaceOnUse">
<stop stop-color="#BC8660"/>
<stop offset="1" stop-color="#BC8660" stop-opacity="0.18"/>
</linearGradient>
<linearGradient id="paint42_linear" x1="733.982" y1="391.461" x2="910.279" y2="615.523" gradientUnits="userSpaceOnUse">
<stop stop-color="#3B47B0"/>
<stop offset="1" stop-color="#15227D"/>
</linearGradient>
<linearGradient id="paint43_linear" x1="845.579" y1="357.591" x2="877.712" y2="423.16" gradientUnits="userSpaceOnUse">
<stop stop-color="#243196"/>
<stop offset="1" stop-color="#222E8D" stop-opacity="0.12"/>
</linearGradient>
<linearGradient id="paint44_linear" x1="791.3" y1="173.478" x2="1000.6" y2="316.774" gradientUnits="userSpaceOnUse">
<stop offset="0.0127845" stop-color="white"/>
<stop offset="1" stop-color="#EAF0FF"/>
</linearGradient>
<linearGradient id="paint45_linear" x1="791.3" y1="173.478" x2="1000.6" y2="316.774" gradientUnits="userSpaceOnUse">
<stop offset="0.0127845" stop-color="white"/>
<stop offset="1" stop-color="#EAF0FF"/>
</linearGradient>
<linearGradient id="paint46_linear" x1="720.086" y1="241.652" x2="720.086" y2="290.72" gradientUnits="userSpaceOnUse">
<stop stop-color="#BC8660"/>
<stop offset="1" stop-color="#BC8660" stop-opacity="0"/>
</linearGradient>
<linearGradient id="paint47_linear" x1="846.447" y1="266.403" x2="735.835" y2="152.433" gradientUnits="userSpaceOnUse">
<stop stop-color="#355DC8"/>
<stop offset="1" stop-color="#A3BCFF"/>
</linearGradient>
<linearGradient id="paint48_linear" x1="797.923" y1="393.402" x2="799.462" y2="148.882" gradientUnits="userSpaceOnUse">
<stop stop-color="#355DC8"/>
<stop offset="1" stop-color="#A3BCFF"/>
</linearGradient>
<linearGradient id="paint49_linear" x1="825.604" y1="378" x2="762.207" y2="353.249" gradientUnits="userSpaceOnUse">
<stop stop-color="#3A5AAB"/>
<stop offset="1" stop-color="#3E66CE" stop-opacity="0"/>
</linearGradient>
<linearGradient id="paint50_linear" x1="914.029" y1="332.451" x2="810.44" y2="218.644" gradientUnits="userSpaceOnUse">
<stop stop-color="#3A5AAB"/>
<stop offset="1" stop-color="#3E66CE" stop-opacity="0"/>
</linearGradient>
<linearGradient id="paint51_linear" x1="825.686" y1="308.12" x2="770.034" y2="235.482" gradientUnits="userSpaceOnUse">
<stop stop-color="#3A5AAB"/>
<stop offset="1" stop-color="#3E66CE" stop-opacity="0"/>
</linearGradient>
<linearGradient id="paint52_linear" x1="758.5" y1="162.5" x2="772.253" y2="152.168" gradientUnits="userSpaceOnUse">
<stop stop-color="#E0A780"/>
<stop offset="1" stop-color="#E0A780" stop-opacity="0"/>
</linearGradient>
<linearGradient id="paint53_linear" x1="998.861" y1="180.426" x2="645.399" y2="71" gradientUnits="userSpaceOnUse">
<stop stop-color="#343333"/>
<stop offset="1" stop-color="#73655A"/>
</linearGradient>
<linearGradient id="paint54_linear" x1="733.113" y1="293.325" x2="738.366" y2="309.853" gradientUnits="userSpaceOnUse">
<stop stop-color="#BC8660" stop-opacity="0.52"/>
<stop offset="1" stop-color="#F0B285" stop-opacity="0"/>
</linearGradient>
<linearGradient id="paint55_linear" x1="882.488" y1="239.915" x2="900.726" y2="268.14" gradientUnits="userSpaceOnUse">
<stop stop-color="#6972AF"/>
<stop offset="1" stop-color="#A3AFFD"/>
</linearGradient>
<linearGradient id="paint56_linear" x1="826.473" y1="247.297" x2="750.049" y2="259.021" gradientUnits="userSpaceOnUse">
<stop stop-color="white" stop-opacity="0.34"/>
<stop offset="1" stop-color="white" stop-opacity="0"/>
</linearGradient>
<linearGradient id="paint57_linear" x1="792.673" y1="414" x2="792.673" y2="563.375" gradientUnits="userSpaceOnUse">
<stop stop-color="#243196"/>
<stop offset="1" stop-color="#222E8D" stop-opacity="0.12"/>
</linearGradient>
<linearGradient id="paint58_linear" x1="757.927" y1="630" x2="757.927" y2="749.919" gradientUnits="userSpaceOnUse">
<stop stop-color="#B9C2FF"/>
<stop offset="1" stop-color="#7B88D9"/>
</linearGradient>
<linearGradient id="paint59_linear" x1="828" y1="678.09" x2="803.816" y2="809.13" gradientUnits="userSpaceOnUse">
<stop stop-color="#B9C2FF"/>
<stop offset="1" stop-color="#7B88D9"/>
</linearGradient>
<linearGradient id="paint60_linear" x1="315.294" y1="144.412" x2="424.933" y2="61.7442" gradientUnits="userSpaceOnUse">
<stop stop-color="#5D80E3"/>
<stop offset="1" stop-color="#77D9D3" stop-opacity="0.41"/>
</linearGradient>
<linearGradient id="paint61_linear" x1="1014.29" y1="114.412" x2="1103.89" y2="46.8555" gradientUnits="userSpaceOnUse">
<stop stop-color="#5DD3E3"/>
<stop offset="1" stop-color="#77D99F" stop-opacity="0.41"/>
</linearGradient>
<linearGradient id="paint62_linear" x1="303.646" y1="675.138" x2="303.646" y2="808" gradientUnits="userSpaceOnUse">
<stop stop-color="white"/>
<stop offset="1" stop-color="#D9E4FF"/>
</linearGradient>
<linearGradient id="paint63_linear" x1="303.646" y1="675.138" x2="303.646" y2="808" gradientUnits="userSpaceOnUse">
<stop stop-color="white"/>
<stop offset="1" stop-color="#A9C1FF"/>
</linearGradient>
<linearGradient id="paint64_linear" x1="997.592" y1="703.839" x2="960.237" y2="556.237" gradientUnits="userSpaceOnUse">
<stop stop-color="#567FEA"/>
<stop offset="1" stop-color="#A099F1"/>
</linearGradient>
<linearGradient id="paint65_linear" x1="974.434" y1="618.856" x2="1013.84" y2="703.693" gradientUnits="userSpaceOnUse">
<stop stop-color="white"/>
<stop offset="1" stop-color="white" stop-opacity="0"/>
</linearGradient>
<linearGradient id="paint66_linear" x1="1025.56" y1="696.069" x2="1069.52" y2="515.639" gradientUnits="userSpaceOnUse">
<stop stop-color="#3337A8"/>
<stop offset="1" stop-color="#D6B8F3"/>
</linearGradient>
<linearGradient id="paint67_linear" x1="1036.68" y1="588.221" x2="1031.13" y2="704.717" gradientUnits="userSpaceOnUse">
<stop stop-color="white"/>
<stop offset="1" stop-color="white" stop-opacity="0"/>
</linearGradient>
</defs>
</svg>
